<svg xmlns="http://www.w3.org/2000/svg" version="1.1" width="727" height="1024">
<rect x="0" y="0" width="727" height="1024" fill="#676256" />
<g transform="scale(2.115702) translate(0.5 0.5)">
<polygon fill="#fcce70" fill-opacity="0.501961" points="217.597141,6.731756,133.443318,126.037571,88.338905,104.117988,42.258889,42.418675" />
<polygon fill="#f4e7d0" fill-opacity="0.501961" points="59.750865,211.332228,21.064021,162.674374,81.036044,118.424723,108.477510,182.233644" />
<polygon fill="#ffffff" fill-opacity="0.501961" points="315.013557,260.270773,324.961832,353.384377,326.381539,499.000000,303.256057,223.485062" />
<polygon fill="#ffffea" fill-opacity="0.501961" points="324.206257,272.179998,269.326097,167.527966,250.460659,68.783190,256.402145,174.890683" />
<polygon fill="#c5a86b" fill-opacity="0.501961" points="156.536341,409.189609,191.752570,312.721895,206.074304,229.755901,137.400388,194.902967" />
<polygon fill="#ffffea" fill-opacity="0.501961" points="182.731048,-16.000000,239.972570,80.920654,267.608470,146.356701,247.548986,72.571114" />
<polygon fill="#00000e" fill-opacity="0.501961" points="86.684269,152.909602,82.232545,186.662434,54.826941,182.787392,53.965971,150.249979" />
<polygon fill="#c0a364" fill-opacity="0.501961" points="63.854171,295.781445,142.645502,442.543502,125.263180,211.362460,69.824955,240.706504" />
<polygon fill="#ffffdb" fill-opacity="0.501961" points="331.334523,434.088458,313.809066,352.184206,319.720196,437.403962,335.541792,457.533650" />
<polygon fill="#363a42" fill-opacity="0.501961" points="359.000000,470.294618,271.914021,405.332751,147.320237,497.504683,359.000000,499.000000" />
<polygon fill="#ffffe1" fill-opacity="0.501961" points="55.005293,155.522456,40.673611,203.315346,38.456321,137.234828,85.488732,135.883280" />
<polygon fill="#363940" fill-opacity="0.501961" points="270.288262,499.000000,179.863341,162.444223,277.842710,200.326341,315.395020,362.161996" />
<polygon fill="#ffffde" fill-opacity="0.501961" points="107.047919,156.147211,78.361079,182.202902,38.308704,190.730225,85.421766,206.202974" />
<polygon fill="#333840" fill-opacity="0.501961" points="294.000924,205.239631,259.384852,167.896805,339.166052,-16.000000,359.000000,391.033393" />
<polygon fill="#ffffdb" fill-opacity="0.501961" points="295.553704,233.472685,323.976571,326.026339,304.792357,226.145346,255.198951,160.357221" />
<polygon fill="#d6b168" fill-opacity="0.501961" points="112.818024,67.187773,127.468132,17.417935,188.938600,10.322649,258.738325,19.278768" />
<polygon fill="#3d414b" fill-opacity="0.501961" points="36.030808,155.792919,12.121124,499.000000,-16.000000,-0.473828,66.266452,65.238681" />
<polygon fill="#222634" fill-opacity="0.501961" points="125.035416,351.850408,87.287353,283.670725,104.569832,241.539955,102.861104,364.411710" />
<polygon fill="#ffd073" fill-opacity="0.501961" points="186.027400,96.123633,169.052476,159.384464,160.664901,138.659448,165.766377,111.770984" />
<polygon fill="#d3b16b" fill-opacity="0.501961" points="165.334647,442.833890,74.768388,326.805760,175.004414,412.343037,154.015491,378.226224" />
<polygon fill="#383b45" fill-opacity="0.501961" points="69.186579,308.568930,34.907777,193.910942,-16.000000,482.313193,154.049237,499.000000" />
<polygon fill="#ffd070" fill-opacity="0.501961" points="31.351393,21.465914,63.025891,38.287202,39.357408,45.330434,6.950430,7.444857" />
<polygon fill="#353942" fill-opacity="0.501961" points="334.158014,-16.000000,233.748509,28.648728,264.242877,127.530240,271.228629,155.565215" />
<polygon fill="#323640" fill-opacity="0.501961" points="-16.000000,-16.000000,333.394101,11.146610,151.312990,12.539181,69.286026,43.550018" />
<polygon fill="#eec575" fill-opacity="0.501961" points="117.677600,335.960221,165.661980,366.384403,172.535946,351.871448,108.507612,318.159929" />
<polygon fill="#f7cc77" fill-opacity="0.501961" points="132.717977,199.303080,124.491265,173.147930,129.963825,156.961826,143.462052,180.475403" />
<polygon fill="#ffffdf" fill-opacity="0.501961" points="257.581113,106.689063,209.916449,34.672942,228.378674,43.185987,255.885652,97.440236" />
<polygon fill="#747371" fill-opacity="0.501961" points="69.751980,103.471658,45.633667,64.021429,8.671296,159.539364,140.248785,101.584567" />
<polygon fill="#ffffe4" fill-opacity="0.501961" points="68.545146,141.284851,64.462647,132.174600,89.894665,141.102658,103.233710,172.587389" />
<polygon fill="#dfba71" fill-opacity="0.501961" points="234.470274,131.485284,221.329807,155.229092,210.967576,95.036467,182.230675,99.540994" />
<polygon fill="#3b3d43" fill-opacity="0.501961" points="102.173986,127.106771,259.097267,201.639968,256.265556,128.595436,176.486791,220.512877" />
<polygon fill="#ffffd2" fill-opacity="0.501961" points="300.548278,227.974733,322.766975,324.998861,325.920977,406.760753,319.024797,377.117657" />
<polygon fill="#ffefcc" fill-opacity="0.501961" points="266.457594,173.453041,296.959902,216.878363,253.316949,176.949473,263.213143,115.038441" />
<polygon fill="#2f343c" fill-opacity="0.501961" points="169.321726,333.279785,190.616019,341.330486,206.827153,410.925124,182.651813,427.067652" />
<polygon fill="#07122b" fill-opacity="0.501961" points="181.725814,269.149864,167.359872,293.832303,163.114368,273.457239,168.146198,255.058265" />
<polygon fill="#282a30" fill-opacity="0.501961" points="172.260054,148.885801,179.700908,112.673316,225.596443,121.052948,201.760138,152.066769" />
<polygon fill="#353841" fill-opacity="0.501961" points="151.294540,91.336442,209.838066,32.260510,256.945001,133.276706,209.232268,97.611236" />
<polygon fill="#deba70" fill-opacity="0.501961" points="162.867661,243.092594,148.896710,231.528629,186.430679,217.521547,220.756157,215.941162" />
<polygon fill="#fff7d3" fill-opacity="0.501961" points="37.833227,188.816525,60.690922,202.251880,74.805464,200.399936,33.858664,153.361805" />
<polygon fill="#272931" fill-opacity="0.501961" points="153.298324,300.961222,136.385008,263.011165,127.932767,303.411916,133.444814,322.048831" />
<polygon fill="#5b5e61" fill-opacity="0.501961" points="106.722349,40.627979,123.896919,225.633916,87.843157,228.357992,104.373084,148.993729" />
<polygon fill="#e5bf74" fill-opacity="0.501961" points="140.768615,313.851167,161.770018,305.359426,191.207657,313.448377,190.070524,334.512784" />
<polygon fill="#d4b16a" fill-opacity="0.501961" points="131.277792,145.168631,174.897490,46.387805,133.807718,60.688780,128.199007,124.617443" />
<polygon fill="#f3ca76" fill-opacity="0.501961" points="198.580039,155.278075,180.937653,151.475925,177.506527,163.933492,193.844789,169.772432" />
<polygon fill="#838077" fill-opacity="0.501961" points="243.276888,395.820217,207.698209,315.398607,203.439031,449.641668,256.833749,424.243219" />
<polygon fill="#74757c" fill-opacity="0.501961" points="96.520818,216.976158,53.745987,232.397088,33.119767,204.040692,112.321902,195.778134" />
<polygon fill="#e4bc6e" fill-opacity="0.501961" points="190.681172,259.069773,204.467842,255.354876,207.285124,241.228014,127.178046,261.767631" />
<polygon fill="#bba169" fill-opacity="0.501961" points="63.741710,290.585856,68.314390,253.918795,72.331357,246.285175,159.470617,202.932857" />
<polygon fill="#d3b16c" fill-opacity="0.501961" points="61.421843,268.166478,96.375732,330.362109,119.335338,388.596666,69.653752,310.154943" />
<polygon fill="#222530" fill-opacity="0.501961" points="138.373599,355.999271,129.412904,359.546351,141.747588,388.422997,158.592116,376.486397" />
<polygon fill="#4d4f51" fill-opacity="0.501961" points="86.340040,105.051319,141.744265,163.849007,67.165310,129.630609,51.925216,45.231605" />
<polygon fill="#393d43" fill-opacity="0.501961" points="341.675740,488.027441,356.428247,370.384657,322.645173,291.139835,325.191683,389.651307" />
<polygon fill="#333539" fill-opacity="0.501961" points="48.307411,167.497215,88.313564,177.506586,84.212481,151.198686,63.033924,148.206192" />
<polygon fill="#4e4e4b" fill-opacity="0.501961" points="337.348162,482.956438,164.497870,496.921173,314.104468,366.870866,316.753510,421.513073" />
<polygon fill="#d0af6e" fill-opacity="0.501961" points="228.701982,12.796033,268.788682,23.802217,197.467534,26.259719,137.867358,100.284908" />
<polygon fill="#494a4b" fill-opacity="0.501961" points="76.742763,224.758340,-16.000000,238.321838,11.824538,499.000000,51.831857,317.103052" />
<polygon fill="#fff6d0" fill-opacity="0.501961" points="99.986794,183.480813,66.434524,202.979020,87.723188,170.615709,88.143269,136.336066" />
<polygon fill="#393b41" fill-opacity="0.501961" points="275.834601,209.968646,301.047957,245.639207,307.277199,280.358857,314.459992,340.901491" />
<polygon fill="#ffffd9" fill-opacity="0.501961" points="320.639609,400.086968,325.898298,450.112471,335.272041,451.198819,329.059994,428.438288" />
<polygon fill="#3c4148" fill-opacity="0.501961" points="170.967205,494.628977,95.222148,384.567152,205.968336,498.480894,177.385661,405.796321" />
<polygon fill="#908562" fill-opacity="0.501961" points="139.127614,430.970568,169.360992,462.644357,180.561521,383.709047,169.723487,369.306506" />
<polygon fill="#4a4a4a" fill-opacity="0.501961" points="262.380560,112.032798,317.286843,268.276738,359.000000,-10.070044,229.009573,36.883870" />
<polygon fill="#2e3032" fill-opacity="0.501961" points="135.284278,265.074973,123.389456,234.323222,135.195786,223.047739,147.057284,236.079430" />
<polygon fill="#707070" fill-opacity="0.501961" points="39.009466,224.591401,101.666156,205.411931,52.517626,199.980243,10.041673,155.537500" />
<polygon fill="#6e6956" fill-opacity="0.501961" points="100.897703,114.634753,84.455801,75.135807,98.552626,74.990875,125.518923,-1.925617" />
<polygon fill="#6c6d6d" fill-opacity="0.501961" points="119.284313,473.381821,158.830041,469.356292,130.941360,437.241207,70.173016,470.428456" />
<polygon fill="#9e9369" fill-opacity="0.501961" points="221.008156,459.012462,255.671023,472.523053,212.369193,471.610559,198.760196,474.294994" />
<polygon fill="#424447" fill-opacity="0.501961" points="231.318548,63.397450,228.786673,150.925308,37.396982,244.591128,258.115392,157.057340" />
<polygon fill="#e5bf6e" fill-opacity="0.501961" points="131.664202,285.954373,133.805166,275.303386,100.981913,259.717327,109.638432,276.819520" />
<polygon fill="#494a4a" fill-opacity="0.501961" points="226.456559,147.471890,191.841812,313.466411,321.250559,461.223530,312.067372,321.669070" />
<polygon fill="#3e3d43" fill-opacity="0.501961" points="162.552722,91.325118,158.601070,161.252351,132.784451,143.595091,157.315403,84.370606" />
<polygon fill="#c7a96d" fill-opacity="0.501961" points="216.022430,126.791051,225.315959,108.013949,229.789994,134.738531,218.141955,163.584027" />
<polygon fill="#3c3e41" fill-opacity="0.501961" points="110.953314,361.175407,90.325267,322.183494,116.362040,327.270079,123.230754,360.424088" />
<polygon fill="#c6a866" fill-opacity="0.501961" points="59.538627,38.697637,110.821453,39.884356,98.225230,84.612566,32.360643,40.665120" />
<polygon fill="#fff5d0" fill-opacity="0.501961" points="55.656576,135.061412,67.833575,136.200319,36.193013,182.193752,35.216268,155.815205" />
<polygon fill="#e5bf77" fill-opacity="0.501961" points="168.058567,291.004350,184.021260,293.041763,198.254102,285.956648,187.886186,274.903044" />
<polygon fill="#57564f" fill-opacity="0.501961" points="117.069376,224.644952,118.456717,80.731399,123.977756,108.852257,131.113781,92.215224" />
<polygon fill="#747476" fill-opacity="0.501961" points="209.808843,284.055291,230.655163,398.272110,225.687829,393.096430,191.217435,392.143402" />
<polygon fill="#d1b16c" fill-opacity="0.501961" points="120.507711,336.620382,90.320069,300.678951,101.154167,301.353229,110.629871,312.148740" />
<polygon fill="#404245" fill-opacity="0.501961" points="331.721527,-14.960374,153.049218,4.202034,253.753394,18.439185,261.182274,16.398467" />
<polygon fill="#ffedc9" fill-opacity="0.501961" points="93.944925,147.400125,100.405238,160.872217,97.419301,172.897681,67.483210,135.847133" />
<polygon fill="#727271" fill-opacity="0.501961" points="81.742162,113.690604,52.055033,80.277299,17.137557,118.751201,14.136517,170.649817" />
<polygon fill="#2c3039" fill-opacity="0.501961" points="100.572508,254.443756,104.530898,301.240463,90.067802,297.232144,88.365886,275.030824" />
<polygon fill="#e2bd6e" fill-opacity="0.501961" points="129.188826,296.088897,104.264273,280.983421,107.616695,291.150651,124.603434,308.412129" />
<polygon fill="#ffefcd" fill-opacity="0.501961" points="227.901738,39.077344,256.581546,124.509262,263.152152,142.864096,260.026481,109.392260" />
<polygon fill="#35383e" fill-opacity="0.501961" points="227.781621,26.861408,207.727583,36.090047,238.568284,33.279354,238.494598,26.117265" />
<polygon fill="#434345" fill-opacity="0.501961" points="179.450962,468.140673,199.434656,345.227372,213.375713,224.464160,192.399506,306.882431" />
<polygon fill="#caac6e" fill-opacity="0.501961" points="88.356383,243.724192,153.481693,208.080397,163.207925,207.838778,163.891356,214.499262" />
<polygon fill="#464544" fill-opacity="0.501961" points="11.583430,10.816206,0.704519,-16.000000,-12.193280,134.566134,52.327978,76.141166" />
<polygon fill="#36363b" fill-opacity="0.501961" points="69.759514,186.812397,86.542855,174.975580,52.314338,157.882370,52.715020,177.632382" />
<polygon fill="#726e5c" fill-opacity="0.501961" points="214.255178,203.151289,210.290291,239.911485,134.036169,253.638908,216.838892,219.393657" />
<polygon fill="#fdeacb" fill-opacity="0.501961" points="251.754539,88.775361,258.969875,162.767172,264.725657,191.862323,264.420234,129.795213" />
<polygon fill="#4a4a4a" fill-opacity="0.501961" points="272.278787,194.640595,301.142403,245.422048,314.876776,351.566510,226.154222,146.519412" />
<polygon fill="#4e4d4b" fill-opacity="0.501961" points="253.581672,119.179776,256.681620,132.995674,257.511621,164.485766,148.429310,227.276452" />
<polygon fill="#c0a267" fill-opacity="0.501961" points="118.170316,97.970378,220.670386,28.264137,224.959421,11.736674,153.119110,12.398243" />
<polygon fill="#c8aa6f" fill-opacity="0.501961" points="154.153156,291.571363,165.775141,281.656111,147.316895,276.335062,115.156361,239.904723" />
<polygon fill="#cfac68" fill-opacity="0.501961" points="157.781779,392.926728,166.628562,383.355628,149.664462,416.534997,119.212674,384.248875" />
<polygon fill="#75705e" fill-opacity="0.501961" points="101.647818,302.536935,120.581225,326.860625,166.068896,347.231042,197.453290,334.453121" />
<polygon fill="#737171" fill-opacity="0.501961" points="93.949446,192.089800,112.128726,137.383062,115.720473,204.671463,64.256240,207.442255" />
<polygon fill="#4d4d4b" fill-opacity="0.501961" points="266.843006,163.682987,340.860773,296.997327,345.726398,-15.904952,260.932082,103.020299" />
<polygon fill="#cbac6d" fill-opacity="0.501961" points="163.720497,140.048113,169.964540,111.125917,220.467369,109.773558,197.144628,94.457650" />
<polygon fill="#4b4b4a" fill-opacity="0.501961" points="347.610525,169.365886,308.527013,237.314978,316.422655,278.970701,332.449836,394.216512" />
<polygon fill="#f6dfbe" fill-opacity="0.501961" points="210.876610,38.611573,219.775228,33.175090,239.867093,62.115553,193.582522,24.694036" />
<polygon fill="#c5a667" fill-opacity="0.501961" points="68.894910,38.275389,59.329555,59.546529,93.631998,115.408362,101.948599,118.382835" />
<polygon fill="#3b3a3c" fill-opacity="0.501961" points="144.899803,363.855582,155.867394,369.266700,154.917878,394.136487,139.822172,388.655500" />
<polygon fill="#cbab6d" fill-opacity="0.501961" points="78.330821,233.256933,65.507548,298.178898,71.015041,246.003546,111.231058,229.952869" />
<polygon fill="#666356" fill-opacity="0.501961" points="85.247268,237.458211,112.928442,242.354348,210.932921,206.773115,115.393297,232.664419" />
<polygon fill="#777263" fill-opacity="0.501961" points="76.496930,122.917331,130.969144,142.689692,84.841067,62.456867,114.134141,178.236314" />
<polygon fill="#bfa36a" fill-opacity="0.501961" points="165.088750,150.984921,179.152109,148.737098,165.095405,111.962601,157.445356,134.645064" />
<polygon fill="#cfaf6f" fill-opacity="0.501961" points="127.738575,159.389512,137.142230,164.100713,139.007319,184.941363,128.932734,196.289100" />
<polygon fill="#ffedc7" fill-opacity="0.501961" points="315.560533,364.236613,317.722281,417.767575,324.746438,370.229904,309.909880,240.415509" />
<polygon fill="#424343" fill-opacity="0.501961" points="160.205476,179.791056,88.268235,126.376264,54.359951,72.294755,101.455131,119.776847" />
<polygon fill="#fde5c4" fill-opacity="0.501961" points="311.378446,311.521369,325.997484,451.401642,323.528498,329.658743,312.897473,261.818388" />
<polygon fill="#c0a266" fill-opacity="0.501961" points="113.983952,26.667876,155.495320,95.335462,186.679308,11.704052,149.856241,13.471541" />
<polygon fill="#c5a767" fill-opacity="0.501961" points="95.583815,359.321052,133.037049,360.604804,133.732546,371.960101,145.581173,397.682016" />
<polygon fill="#ffe5c4" fill-opacity="0.501961" points="296.678394,234.116433,267.118437,185.992328,305.627580,235.889503,315.480687,289.382348" />
<polygon fill="#f9e4c5" fill-opacity="0.501961" points="288.026107,200.673213,300.251101,224.696633,304.761764,239.459774,252.854993,168.841525" />
<polygon fill="#4a4947" fill-opacity="0.501961" points="264.326213,172.627196,267.358944,156.816852,265.549652,133.853438,306.447793,214.946743" />
<polygon fill="#696857" fill-opacity="0.501961" points="90.266729,253.552389,138.921169,275.350390,204.342709,258.118598,199.173998,271.422584" />
<polygon fill="#6b6a68" fill-opacity="0.501961" points="54.324637,213.537151,25.783225,195.659297,37.048555,153.690736,11.573945,131.334787" />
<polygon fill="#7e765e" fill-opacity="0.501961" points="182.687285,373.239370,156.459368,453.710563,88.425965,356.940659,147.390238,414.614910" />
<polygon fill="#64645d" fill-opacity="0.501961" points="202.938505,305.806598,186.085330,292.311583,141.214570,292.125146,163.762325,307.776576" />
<polygon fill="#4a4949" fill-opacity="0.501961" points="164.906056,76.712375,220.127103,26.060716,149.066184,138.628117,110.550844,184.849070" />
<polygon fill="#fff0cd" fill-opacity="0.501961" points="89.197342,193.463289,52.537735,182.332965,48.820926,147.875305,41.130255,188.218605" />
<polygon fill="#3a393b" fill-opacity="0.501961" points="197.747892,110.053639,173.815411,122.411593,203.804157,153.380222,221.636644,134.854733" />
<polygon fill="#ffe7c5" fill-opacity="0.501961" points="82.867282,136.007810,95.479034,148.451473,43.414000,148.456807,63.120903,133.103301" />
<polygon fill="#d6b36d" fill-opacity="0.501961" points="139.710415,258.841425,140.653511,253.399629,164.587675,250.269227,166.673746,263.330089" />
<polygon fill="#8b7f5a" fill-opacity="0.501961" points="237.262318,432.668488,233.296541,436.057528,206.041478,450.684147,219.833431,359.659201" />
<polygon fill="#474747" fill-opacity="0.501961" points="-16.000000,448.353595,183.289380,456.571060,233.470788,439.155452,209.924286,466.417824" />
<polygon fill="#4c4c4a" fill-opacity="0.501961" points="234.555061,151.513260,136.369396,185.099696,169.219813,216.460556,285.077776,213.852955" />
<polygon fill="#c0a265" fill-opacity="0.501961" points="7.649135,5.819820,101.603367,67.952384,32.618138,40.379369,19.300460,24.327357" />
<polygon fill="#8b8063" fill-opacity="0.501961" points="193.877095,167.223205,221.423195,159.505977,210.655406,106.923165,229.280617,119.822656" />
<polygon fill="#4b4b4b" fill-opacity="0.501961" points="-8.263409,430.163575,-3.849064,115.173756,84.168692,347.244134,139.364534,437.066516" />
<polygon fill="#393737" fill-opacity="0.501961" points="183.805638,373.198516,172.738508,378.024407,172.200279,333.085879,183.514000,343.190559" />
<polygon fill="#cbab69" fill-opacity="0.501961" points="101.044605,316.274766,99.138208,302.655138,150.131182,359.321792,155.393111,341.708731" />
<polygon fill="#f9e5c8" fill-opacity="0.501961" points="253.442872,89.351234,225.070741,38.913390,220.940086,36.946654,210.085112,36.525897" />
<polygon fill="#4b4b4b" fill-opacity="0.501961" points="295.731774,499.000000,221.456437,351.068949,324.600208,449.419535,359.000000,451.819907" />
<polygon fill="#3d3c3d" fill-opacity="0.501961" points="150.645071,296.521422,147.249279,285.749626,125.918593,290.065861,140.083696,329.583145" />
<polygon fill="#6e6d6c" fill-opacity="0.501961" points="33.302974,90.989476,106.737479,133.055879,52.991176,134.794620,22.298943,166.527929" />
<polygon fill="#464445" fill-opacity="0.501961" points="123.830739,218.756354,60.572722,239.532979,132.069441,199.292779,112.768760,158.864441" />
<polygon fill="#414348" fill-opacity="0.501961" points="154.374336,492.165827,187.476020,454.954476,154.966397,469.545085,131.415762,473.499954" />
<polygon fill="#b49c69" fill-opacity="0.501961" points="69.615909,303.238772,98.715552,328.333289,102.904283,373.525753,90.126758,356.295573" />
<polygon fill="#383b3b" fill-opacity="0.501961" points="165.378308,284.261200,160.336463,269.792783,169.207188,256.794233,172.912899,258.862590" />
<polygon fill="#77705a" fill-opacity="0.501961" points="148.339583,194.534894,160.834940,202.684200,112.052173,230.916183,103.613627,227.745825" />
<polygon fill="#4c4b4c" fill-opacity="0.501961" points="229.409534,62.007454,240.206282,82.599445,244.398759,230.329511,217.376318,46.020990" />
<polygon fill="#403f41" fill-opacity="0.501961" points="51.823932,174.424826,77.344826,150.707790,69.846672,147.221788,53.833035,156.001275" />
<polygon fill="#787775" fill-opacity="0.501961" points="101.989728,469.980372,141.301604,472.948746,160.188042,464.244449,109.922984,459.135282" />
<polygon fill="#ffebca" fill-opacity="0.501961" points="89.377363,193.257881,71.120847,202.779975,47.827498,196.527550,81.723834,182.466004" />
<polygon fill="#4b4c4a" fill-opacity="0.501961" points="292.912849,156.200112,227.665978,41.885395,216.773569,31.522818,239.146898,24.991312" />
<polygon fill="#3f3f41" fill-opacity="0.501961" points="173.031994,443.305258,210.010615,405.749695,203.737436,387.317400,178.121820,414.223248" />
<polygon fill="#6f7176" fill-opacity="0.501961" points="199.003896,452.055063,216.615301,403.558780,186.743345,429.419159,186.588997,452.434535" />
<polygon fill="#4a4949" fill-opacity="0.501961" points="81.494877,39.438969,43.319964,27.852674,-12.067883,-6.251184,166.662189,6.530089" />
<polygon fill="#ffeac8" fill-opacity="0.501961" points="333.458519,447.562476,319.801879,384.766311,316.567741,399.862015,323.817511,448.510340" />
<polygon fill="#787059" fill-opacity="0.501961" points="122.575347,72.816030,121.525068,98.566192,95.011984,54.770370,105.618641,103.876233" />
<polygon fill="#535251" fill-opacity="0.501961" points="326.090603,414.017144,323.476920,346.595490,359.000000,452.242519,330.587928,433.438890" />
<polygon fill="#37373a" fill-opacity="0.501961" points="130.904061,255.919337,144.872879,247.911437,135.178687,219.647555,125.628743,249.689609" />
<polygon fill="#4b4b4a" fill-opacity="0.501961" points="334.613177,499.000000,323.966497,445.693664,314.115166,401.123073,222.781123,350.424542" />
<polygon fill="#76725f" fill-opacity="0.501961" points="100.992339,336.268892,103.859600,325.244022,69.950492,262.154925,82.734454,304.990141" />
<polygon fill="#cdab67" fill-opacity="0.501961" points="101.949105,103.160114,104.527039,103.218561,94.911932,59.429878,92.541230,76.158468" />
<polygon fill="#c1a568" fill-opacity="0.501961" points="80.096906,247.772088,128.762002,254.735093,134.941764,259.832763,90.734954,254.761278" />
<polygon fill="#c8a96a" fill-opacity="0.501961" points="180.069473,217.860007,212.896162,217.691632,153.666990,242.955107,144.008806,238.381342" />
<polygon fill="#ccaa6b" fill-opacity="0.501961" points="229.519633,134.098337,223.160250,105.276712,217.400896,157.697871,228.363050,142.062104" />
<polygon fill="#434448" fill-opacity="0.501961" points="67.972480,240.171501,91.130181,225.741168,44.360730,229.551710,63.204452,287.107667" />
<polygon fill="#ffefce" fill-opacity="0.501961" points="264.554644,175.930241,269.551647,189.578269,253.843283,174.343144,264.312719,147.008407" />
<polygon fill="#cbac6d" fill-opacity="0.501961" points="148.183592,307.071313,143.702638,318.345684,189.586816,329.961091,193.081408,311.442580" />
<polygon fill="#6f7070" fill-opacity="0.501961" points="64.079431,108.446485,98.951914,155.367381,103.010488,204.428628,117.843488,150.011136" />
<polygon fill="#3a3a3e" fill-opacity="0.501961" points="104.633896,330.992208,124.877490,338.704821,107.115085,350.002194,97.736860,339.761321" />
<polygon fill="#726d59" fill-opacity="0.501961" points="114.287541,337.988987,166.720929,364.871615,174.721740,372.393579,169.017444,380.211416" />
<polygon fill="#4c4c4c" fill-opacity="0.501961" points="256.610167,168.121568,245.141662,202.292422,241.019320,83.914066,258.042700,145.059679" />
<polygon fill="#715857" fill-opacity="0.501961" points="51.219895,429.155980,30.798463,430.429338,30.167439,453.073408,53.061716,450.644274" />
<polygon fill="#b59c65" fill-opacity="0.501961" points="63.278892,281.681997,110.236091,242.398959,82.105738,281.418455,66.783715,256.799053" />
<polygon fill="#c4a76b" fill-opacity="0.501961" points="181.451641,261.939082,203.489015,256.510444,209.545260,233.286919,177.031624,261.345802" />
<polygon fill="#d0af6f" fill-opacity="0.501961" points="165.016562,290.792432,147.848029,287.079436,159.574351,272.789394,166.619337,288.791630" />
<polygon fill="#ccae6f" fill-opacity="0.501961" points="170.180437,291.029601,194.041437,293.441239,195.748553,276.359165,178.639596,277.264947" />
<polygon fill="#c3a566" fill-opacity="0.501961" points="49.509824,52.486766,17.786405,24.018737,46.218220,30.645616,107.067784,53.447123" />
<polygon fill="#6a6966" fill-opacity="0.501961" points="41.372796,141.396910,16.480038,162.977380,9.618165,148.516336,23.950169,198.617730" />
<polygon fill="#4d4d4b" fill-opacity="0.501961" points="241.224258,160.071123,280.343414,206.175728,299.450165,240.689190,200.776598,268.195367" />
<polygon fill="#c3a567" fill-opacity="0.501961" points="157.226615,55.301677,136.083144,137.514247,129.877519,146.790412,128.726423,108.398638" />
<polygon fill="#f7e4c4" fill-opacity="0.501961" points="231.546034,65.667679,252.260306,106.023018,259.708675,112.968876,226.103866,41.600110" />
<polygon fill="#474747" fill-opacity="0.501961" points="177.253022,172.443625,141.527979,117.213800,145.798333,175.745932,124.333313,212.055108" />
<polygon fill="#646152" fill-opacity="0.501961" points="102.722465,244.492910,92.598155,240.976159,108.230018,253.072515,144.466803,250.244380" />
<polygon fill="#464645" fill-opacity="0.501961" points="125.659611,415.828932,114.186065,426.577517,74.652031,499.000000,108.047688,461.424209" />
<polygon fill="#c1a36a" fill-opacity="0.501961" points="199.844269,12.609707,137.978071,108.085492,203.955279,34.218784,253.489534,20.935119" />
<polygon fill="#414240" fill-opacity="0.501961" points="85.472464,175.104940,82.132686,179.991770,75.801099,150.405846,88.721631,162.759367" />
<polygon fill="#494948" fill-opacity="0.501961" points="197.802835,287.627467,178.095121,387.267188,184.565061,458.980676,197.499172,353.746051" />
<polygon fill="#3a3a3d" fill-opacity="0.501961" points="175.548573,124.804946,189.667743,111.081001,213.652889,116.171680,177.172846,146.872415" />
<polygon fill="#7a725c" fill-opacity="0.501961" points="184.965272,246.931245,157.425649,249.942355,216.927922,214.237481,208.202165,239.458145" />
<polygon fill="#f3e2c4" fill-opacity="0.501961" points="274.273611,196.781049,255.936361,176.216747,273.518042,181.355834,307.554706,236.182663" />
<polygon fill="#706e6c" fill-opacity="0.501961" points="24.379833,188.910778,92.958168,212.880334,112.171622,185.342930,40.197781,217.280851" />
<polygon fill="#484749" fill-opacity="0.501961" points="120.219349,144.167745,113.638040,171.606786,120.612339,199.023782,132.065739,145.176311" />
<polygon fill="#4b4b4a" fill-opacity="0.501961" points="185.703457,97.570524,191.690993,106.812104,188.564995,52.173317,143.987675,113.612483" />
<polygon fill="#f3e3c5" fill-opacity="0.501961" points="307.074503,238.073107,318.173207,288.294362,285.847210,209.880325,276.893065,185.197361" />
<polygon fill="#474644" fill-opacity="0.501961" points="48.161939,67.892875,79.910605,95.503118,61.806224,65.192953,1.425400,9.164830" />
<polygon fill="#7d7e82" fill-opacity="0.501961" points="193.118593,465.928551,182.857021,465.082324,176.220848,468.103991,172.142841,473.953166" />
<polygon fill="#4b4b4a" fill-opacity="0.501961" points="192.477990,219.159298,233.979115,211.421477,134.744022,128.268050,166.010601,211.312232" />
<polygon fill="#4b4b4b" fill-opacity="0.501961" points="121.246867,-1.699879,208.338760,10.814008,337.280088,33.641294,359.000000,0.327885" />
<polygon fill="#4e4d4c" fill-opacity="0.501961" points="318.288319,302.500801,359.000000,389.546886,299.206575,191.860000,324.680790,320.824226" />
<polygon fill="#7c7762" fill-opacity="0.501961" points="96.073753,356.310124,143.053425,414.797869,143.127361,437.090559,87.121293,353.930183" />
<polygon fill="#fde9c9" fill-opacity="0.501961" points="96.863579,156.910381,100.216403,179.361722,81.667439,200.220181,88.432771,162.610803" />
<polygon fill="#4d4d4d" fill-opacity="0.501961" points="12.008645,499.000000,-16.000000,138.015560,47.207377,226.322793,71.217552,239.470812" />
</g>
</svg>