<svg xmlns="http://www.w3.org/2000/svg" version="1.1" width="1024" height="828">
<rect x="0" y="0" width="1024" height="828" fill="#7c858d" />
<g transform="scale(4.000000) translate(0.5 0.5)">
<polygon fill="#d3d6e9" fill-opacity="0.501961" points="248,64 263,222 185,216" />
<polygon fill="#2f3b2f" fill-opacity="0.501961" points="117,179 51,102 182,88" />
<polygon fill="#ffffff" fill-opacity="0.501961" points="67,222 -16,201 20,170" />
<polygon fill="#dbe4f9" fill-opacity="0.501961" points="31,52 101,65 161,6" />
<polygon fill="#424b39" fill-opacity="0.501961" points="-16,88 138,-16 -16,8" />
<polygon fill="#2f3d2a" fill-opacity="0.501961" points="271,-3 151,-4 271,64" />
<polygon fill="#e3f5ff" fill-opacity="0.501961" points="91,144 31,112 89,175" />
<polygon fill="#f7ffff" fill-opacity="0.501961" points="160,152 177,110 144,122" />
<polygon fill="#dde7f9" fill-opacity="0.501961" points="251,73 130,8 204,22" />
<polygon fill="#dbdaed" fill-opacity="0.501961" points="66,213 127,222 184,153" />
<polygon fill="#152023" fill-opacity="0.501961" points="154,26 210,54 130,52" />
<polygon fill="#cde3ff" fill-opacity="0.501961" points="188,114 157,48 192,58" />
<polygon fill="#0a1212" fill-opacity="0.501961" points="229,77 178,32 217,93" />
<polygon fill="#9baabe" fill-opacity="0.501961" points="80,91 137,66 122,152" />
<polygon fill="#191e05" fill-opacity="0.501961" points="173,100 130,126 143,62" />
<polygon fill="#6b6161" fill-opacity="0.501961" points="227,140 179,152 229,211" />
<polygon fill="#000504" fill-opacity="0.501961" points="26,83 71,81 58,63" />
<polygon fill="#4d5a5b" fill-opacity="0.501961" points="37,190 36,89 -15,64" />
<polygon fill="#323438" fill-opacity="0.501961" points="62,208 167,156 102,169" />
<polygon fill="#101700" fill-opacity="0.501961" points="75,140 65,105 103,113" />
<polygon fill="#deecff" fill-opacity="0.501961" points="249,220 252,129 225,175" />
<polygon fill="#c7d1e2" fill-opacity="0.501961" points="26,67 18,113 55,40" />
<polygon fill="#b2c6e3" fill-opacity="0.501961" points="70,86 37,142 41,85" />
<polygon fill="#d8e6fa" fill-opacity="0.501961" points="253,76 235,88 205,33" />
<polygon fill="#e2ffff" fill-opacity="0.501961" points="23,180 54,208 -16,205" />
<polygon fill="#101916" fill-opacity="0.501961" points="167,28 135,68 131,42" />
<polygon fill="#bcc6d3" fill-opacity="0.501961" points="126,74 111,102 155,86" />
<polygon fill="#b8c3d7" fill-opacity="0.501961" points="100,187 93,130 64,171" />
<polygon fill="#4a5748" fill-opacity="0.501961" points="58,36 112,24 146,-16" />
<polygon fill="#d4ddec" fill-opacity="0.501961" points="121,12 102,47 163,13" />
<polygon fill="#dfedff" fill-opacity="0.501961" points="213,136 245,144 242,111" />
<polygon fill="#676b76" fill-opacity="0.501961" points="224,82 262,84 206,137" />
<polygon fill="#eaf6ff" fill-opacity="0.501961" points="130,207 120,186 142,169" />
<polygon fill="#60514f" fill-opacity="0.501961" points="158,178 192,165 181,215" />
<polygon fill="#535054" fill-opacity="0.501961" points="105,191 26,178 55,203" />
<polygon fill="#acbed4" fill-opacity="0.501961" points="172,124 178,47 202,81" />
<polygon fill="#f2ffff" fill-opacity="0.501961" points="196,184 183,222 222,222" />
<polygon fill="#000708" fill-opacity="0.501961" points="141,137 123,102 138,99" />
<polygon fill="#2b363c" fill-opacity="0.501961" points="22,145 22,106 45,77" />
<polygon fill="#79838f" fill-opacity="0.501961" points="131,179 105,38 77,67" />
<polygon fill="#656a76" fill-opacity="0.501961" points="208,44 169,31 230,73" />
<polygon fill="#4b574e" fill-opacity="0.501961" points="7,30 13,99 45,29" />
<polygon fill="#c7d6ea" fill-opacity="0.501961" points="76,91 71,65 96,109" />
<polygon fill="#272625" fill-opacity="0.501961" points="179,146 195,152 156,159" />
<polygon fill="#ecfdff" fill-opacity="0.501961" points="203,141 193,150 208,149" />
<polygon fill="#222d24" fill-opacity="0.501961" points="110,147 80,96 55,95" />
<polygon fill="#75727b" fill-opacity="0.501961" points="242,163 219,169 248,177" />
<polygon fill="#e1ddf4" fill-opacity="0.501961" points="160,191 153,214 185,222" />
<polygon fill="#676f6a" fill-opacity="0.501961" points="264,69 257,30 195,25" />
<polygon fill="#ffffff" fill-opacity="0.501961" points="96,136 78,161 78,143" />
<polygon fill="#b4c4dd" fill-opacity="0.501961" points="173,142 172,106 139,167" />
<polygon fill="#dceefc" fill-opacity="0.501961" points="199,36 233,48 246,73" />
<polygon fill="#beb859" fill-opacity="0.501961" points="77,128 77,115 91,139" />
<polygon fill="#98a8bf" fill-opacity="0.501961" points="139,65 156,70 186,31" />
<polygon fill="#cbd6e6" fill-opacity="0.501961" points="38,64 91,29 43,45" />
<polygon fill="#2f3f47" fill-opacity="0.501961" points="179,82 145,80 128,55" />
<polygon fill="#a2b2ca" fill-opacity="0.501961" points="31,109 69,158 55,84" />
<polygon fill="#e2f2ff" fill-opacity="0.501961" points="165,118 143,119 163,138" />
<polygon fill="#e6f1ff" fill-opacity="0.501961" points="267,200 221,174 246,213" />
<polygon fill="#2f393b" fill-opacity="0.501961" points="143,126 133,169 92,197" />
<polygon fill="#525f56" fill-opacity="0.501961" points="255,12 181,-16 116,9" />
<polygon fill="#1c2628" fill-opacity="0.501961" points="66,74 40,65 44,87" />
<polygon fill="#4f5e72" fill-opacity="0.501961" points="27,131 57,177 65,149" />
<polygon fill="#96a5b9" fill-opacity="0.501961" points="28,172 21,133 3,186" />
<polygon fill="#7e787b" fill-opacity="0.501961" points="157,174 237,137 223,168" />
<polygon fill="#544a47" fill-opacity="0.501961" points="222,220 241,222 222,178" />
<polygon fill="#697581" fill-opacity="0.501961" points="136,39 107,114 83,106" />
<polygon fill="#0d191d" fill-opacity="0.501961" points="96,131 106,135 92,149" />
<polygon fill="#929db1" fill-opacity="0.501961" points="60,166 112,161 64,193" />
<polygon fill="#797a2c" fill-opacity="0.501961" points="164,115 137,109 150,120" />
<polygon fill="#505258" fill-opacity="0.501961" points="147,165 169,151 144,153" />
<polygon fill="#9a9fae" fill-opacity="0.501961" points="173,14 149,18 172,41" />
<polygon fill="#acbcb6" fill-opacity="0.501961" points="121,160 130,166 120,139" />
<polygon fill="#8e94a2" fill-opacity="0.501961" points="215,92 268,131 267,76" />
<polygon fill="#d4e1f8" fill-opacity="0.501961" points="265,158 248,136 224,161" />
<polygon fill="#182225" fill-opacity="0.501961" points="128,130 136,118 154,134" />
<polygon fill="#252d2c" fill-opacity="0.501961" points="218,62 169,38 212,76" />
<polygon fill="#848794" fill-opacity="0.501961" points="75,190 111,215 141,208" />
<polygon fill="#2d3738" fill-opacity="0.501961" points="114,132 108,191 124,170" />
<polygon fill="#687168" fill-opacity="0.501961" points="271,107 228,39 271,9" />
<polygon fill="#cbdcee" fill-opacity="0.501961" points="133,59 130,89 121,88" />
<polygon fill="#89919f" fill-opacity="0.501961" points="132,17 143,37 135,61" />
<polygon fill="#798080" fill-opacity="0.501961" points="-4,22 62,24 -8,-13" />
<polygon fill="#968d92" fill-opacity="0.501961" points="148,167 133,191 174,200" />
<polygon fill="#424145" fill-opacity="0.501961" points="271,170 250,171 271,116" />
<polygon fill="#cae0ff" fill-opacity="0.501961" points="26,170 40,215 -15,210" />
<polygon fill="#a7b8d9" fill-opacity="0.501961" points="43,171 39,153 27,145" />
<polygon fill="#363a3f" fill-opacity="0.501961" points="33,187 34,168 46,171" />
<polygon fill="#2c3a3d" fill-opacity="0.501961" points="70,102 56,115 82,140" />
<polygon fill="#9bacc2" fill-opacity="0.501961" points="164,76 202,91 195,56" />
<polygon fill="#d6e0f2" fill-opacity="0.501961" points="109,62 109,75 102,60" />
<polygon fill="#3f4c48" fill-opacity="0.501961" points="233,44 216,-13 185,10" />
<polygon fill="#bfb62b" fill-opacity="0.501961" points="158,114 160,99 166,105" />
<polygon fill="#5b5b60" fill-opacity="0.501961" points="60,222 70,183 102,173" />
<polygon fill="#cbd4e5" fill-opacity="0.501961" points="87,94 92,105 96,83" />
<polygon fill="#9faecd" fill-opacity="0.501961" points="207,124 196,144 188,122" />
<polygon fill="#acadbc" fill-opacity="0.501961" points="228,174 199,170 190,196" />
<polygon fill="#515559" fill-opacity="0.501961" points="227,115 224,97 200,144" />
<polygon fill="#ced5e5" fill-opacity="0.501961" points="139,10 113,20 163,28" />
<polygon fill="#1f1d21" fill-opacity="0.501961" points="116,53 127,70 113,58" />
</g>
</svg>