<svg xmlns="http://www.w3.org/2000/svg" version="1.1" width="1024" height="828">
<rect x="0" y="0" width="1024" height="828" fill="#7c858d" />
<g transform="scale(4.000000) translate(0.5 0.5)">
<ellipse fill="#eef3ff" fill-opacity="0.501961" cx="246" cy="158" rx="23" ry="55" />
<ellipse fill="#ffffff" fill-opacity="0.501961" cx="13" cy="205" rx="32" ry="27" />
<ellipse fill="#030900" fill-opacity="0.501961" cx="148" cy="104" rx="23" ry="16" />
<ellipse fill="#010a00" fill-opacity="0.501961" cx="78" cy="116" rx="18" ry="18" />
<ellipse fill="#283724" fill-opacity="0.501961" cx="234" cy="0" rx="50" ry="36" />
<ellipse fill="#324043" fill-opacity="0.501961" cx="122" cy="144" rx="27" ry="32" />
<ellipse fill="#464f3d" fill-opacity="0.501961" cx="17" cy="13" rx="86" ry="30" />
<ellipse fill="#d3dcf2" fill-opacity="0.501961" cx="84" cy="48" rx="37" ry="15" />
<ellipse fill="#dae0f3" fill-opacity="0.501961" cx="150" cy="22" rx="40" ry="10" />
<ellipse fill="#d8d3e3" fill-opacity="0.501961" cx="136" cy="206" rx="29" ry="31" />
<ellipse fill="#2b3940" fill-opacity="0.501961" cx="150" cy="54" rx="17" ry="30" />
<ellipse fill="#cee2ff" fill-opacity="0.501961" cx="168" cy="62" rx="24" ry="10" />
<ellipse fill="#dbebff" fill-opacity="0.501961" cx="78" cy="158" rx="14" ry="19" />
<ellipse fill="#f1ffff" fill-opacity="0.501961" cx="161" cy="133" rx="11" ry="17" />
<ellipse fill="#f9ffff" fill-opacity="0.501961" cx="201" cy="206" rx="12" ry="25" />
<ellipse fill="#000201" fill-opacity="0.501961" cx="51" cy="74" rx="15" ry="9" />
<ellipse fill="#55625d" fill-opacity="0.501961" cx="14" cy="81" rx="26" ry="72" />
<ellipse fill="#0c1619" fill-opacity="0.501961" cx="212" cy="76" rx="11" ry="17" />
<ellipse fill="#f0ffff" fill-opacity="0.501961" cx="226" cy="57" rx="12" ry="11" />
<ellipse fill="#b0c3de" fill-opacity="0.501961" cx="50" cy="115" rx="14" ry="28" />
<ellipse fill="#c1d5ef" fill-opacity="0.501961" cx="183" cy="86" rx="10" ry="26" />
<ellipse fill="#d9e0f2" fill-opacity="0.501961" cx="196" cy="33" rx="16" ry="10" />
<ellipse fill="#e2f0ff" fill-opacity="0.501961" cx="239" cy="75" rx="11" ry="11" />
<ellipse fill="#d8e2f5" fill-opacity="0.501961" cx="121" cy="31" rx="18" ry="10" />
<ellipse fill="#d6e5f8" fill-opacity="0.501961" cx="129" cy="83" rx="8" ry="16" />
<ellipse fill="#e9ffff" fill-opacity="0.501961" cx="19" cy="206" rx="32" ry="16" />
<ellipse fill="#2c3539" fill-opacity="0.501961" cx="164" cy="44" rx="34" ry="9" />
<ellipse fill="#1a1e1d" fill-opacity="0.501961" cx="113" cy="177" rx="12" ry="11" />
<ellipse fill="#1a2125" fill-opacity="0.501961" cx="199" cy="55" rx="15" ry="7" />
<ellipse fill="#9ca9b5" fill-opacity="0.501961" cx="116" cy="124" rx="14" ry="15" />
<ellipse fill="#c7cfe1" fill-opacity="0.501961" cx="33" cy="68" rx="7" ry="13" />
<ellipse fill="#504d52" fill-opacity="0.501961" cx="70" cy="192" rx="33" ry="9" />
<ellipse fill="#2b330c" fill-opacity="0.501961" cx="84" cy="122" rx="17" ry="16" />
<ellipse fill="#cadef8" fill-opacity="0.501961" cx="64" cy="137" rx="11" ry="10" />
<ellipse fill="#121f1e" fill-opacity="0.501961" cx="134" cy="131" rx="7" ry="29" />
<ellipse fill="#f4ffff" fill-opacity="0.501961" cx="224" cy="133" rx="10" ry="7" />
<ellipse fill="#deecff" fill-opacity="0.501961" cx="216" cy="46" rx="10" ry="9" />
<ellipse fill="#434f41" fill-opacity="0.501961" cx="183" cy="4" rx="31" ry="11" />
<ellipse fill="#cce5ff" fill-opacity="0.501961" cx="20" cy="190" rx="9" ry="27" />
<ellipse fill="#232b12" fill-opacity="0.501961" cx="158" cy="96" rx="18" ry="10" />
<ellipse fill="#4a564a" fill-opacity="0.501961" cx="12" cy="52" rx="22" ry="25" />
<ellipse fill="#545f56" fill-opacity="0.501961" cx="252" cy="25" rx="34" ry="32" />
<ellipse fill="#2d3b3d" fill-opacity="0.501961" cx="68" cy="107" rx="12" ry="15" />
<ellipse fill="#5c4b49" fill-opacity="0.501961" cx="178" cy="189" rx="11" ry="18" />
<ellipse fill="#eef2ff" fill-opacity="0.501961" cx="42" cy="57" rx="6" ry="8" />
<ellipse fill="#8892a3" fill-opacity="0.501961" cx="92" cy="80" rx="18" ry="30" />
<ellipse fill="#d7e3f8" fill-opacity="0.501961" cx="25" cy="85" rx="4" ry="12" />
<ellipse fill="#566055" fill-opacity="0.501961" cx="92" cy="5" rx="31" ry="24" />
<ellipse fill="#263039" fill-opacity="0.501961" cx="27" cy="125" rx="5" ry="27" />
<ellipse fill="#d3e0fa" fill-opacity="0.501961" cx="243" cy="178" rx="9" ry="45" />
<ellipse fill="#918992" fill-opacity="0.501961" cx="239" cy="169" rx="95" ry="7" />
<ellipse fill="#596576" fill-opacity="0.501961" cx="41" cy="161" rx="15" ry="30" />
<ellipse fill="#b8bed1" fill-opacity="0.501961" cx="112" cy="202" rx="31" ry="9" />
<ellipse fill="#9494a0" fill-opacity="0.501961" cx="149" cy="180" rx="12" ry="37" />
<ellipse fill="#3e3736" fill-opacity="0.501961" cx="183" cy="153" rx="20" ry="4" />
<ellipse fill="#c5d9f2" fill-opacity="0.501961" cx="173" cy="116" rx="7" ry="10" />
<ellipse fill="#cad3e4" fill-opacity="0.501961" cx="127" cy="191" rx="16" ry="13" />
<ellipse fill="#cad3eb" fill-opacity="0.501961" cx="169" cy="164" rx="11" ry="6" />
<ellipse fill="#d7dfee" fill-opacity="0.501961" cx="142" cy="18" rx="18" ry="8" />
<ellipse fill="#deeeff" fill-opacity="0.501961" cx="157" cy="123" rx="15" ry="5" />
<ellipse fill="#f1fbff" fill-opacity="0.501961" cx="84" cy="151" rx="7" ry="12" />
<ellipse fill="#d9ecff" fill-opacity="0.501961" cx="207" cy="204" rx="14" ry="8" />
<ellipse fill="#818390" fill-opacity="0.501961" cx="255" cy="113" rx="10" ry="30" />
<ellipse fill="#706366" fill-opacity="0.501961" cx="226" cy="148" rx="10" ry="8" />
<ellipse fill="#a1b4ce" fill-opacity="0.501961" cx="191" cy="80" rx="15" ry="12" />
<ellipse fill="#a7b8d0" fill-opacity="0.501961" cx="166" cy="55" rx="16" ry="7" />
<ellipse fill="#1f2626" fill-opacity="0.501961" cx="205" cy="66" rx="8" ry="12" />
<ellipse fill="#848fa6" fill-opacity="0.501961" cx="66" cy="173" rx="17" ry="18" />
<ellipse fill="#202625" fill-opacity="0.501961" cx="160" cy="158" rx="8" ry="4" />
<ellipse fill="#a9b4c0" fill-opacity="0.501961" cx="127" cy="90" rx="18" ry="6" />
<ellipse fill="#a1b7d0" fill-opacity="0.501961" cx="66" cy="89" rx="21" ry="7" />
<ellipse fill="#454c5a" fill-opacity="0.501961" cx="151" cy="31" rx="20" ry="4" />
<ellipse fill="#2c3937" fill-opacity="0.501961" cx="152" cy="75" rx="13" ry="8" />
<ellipse fill="#848d8d" fill-opacity="0.501961" cx="9" cy="9" rx="17" ry="14" />
<ellipse fill="#7d8b93" fill-opacity="0.501961" cx="0" cy="152" rx="24" ry="34" />
<ellipse fill="#363f42" fill-opacity="0.501961" cx="221" cy="110" rx="5" ry="12" />
<ellipse fill="#07150f" fill-opacity="0.501961" cx="99" cy="136" rx="5" ry="9" />
<ellipse fill="#776c6a" fill-opacity="0.501961" cx="116" cy="203" rx="10" ry="5" />
<ellipse fill="#0c110a" fill-opacity="0.501961" cx="149" cy="44" rx="8" ry="10" />
<ellipse fill="#212e32" fill-opacity="0.501961" cx="52" cy="80" rx="18" ry="5" />
<ellipse fill="#596671" fill-opacity="0.501961" cx="103" cy="93" rx="9" ry="22" />
<ellipse fill="#e6f1ff" fill-opacity="0.501961" cx="204" cy="146" rx="6" ry="4" />
<ellipse fill="#1f2b34" fill-opacity="0.501961" cx="34" cy="96" rx="6" ry="9" />
<ellipse fill="#97a8af" fill-opacity="0.501961" cx="121" cy="135" rx="4" ry="24" />
<ellipse fill="#a6b7cd" fill-opacity="0.501961" cx="183" cy="70" rx="17" ry="15" />
<ellipse fill="#7a7a87" fill-opacity="0.501961" cx="209" cy="183" rx="4" ry="98" />
<ellipse fill="#d5e4f4" fill-opacity="0.501961" cx="86" cy="95" rx="6" ry="5" />
<ellipse fill="#ffffff" fill-opacity="0.501961" cx="89" cy="141" rx="4" ry="4" />
<ellipse fill="#c9cbde" fill-opacity="0.501961" cx="148" cy="175" rx="16" ry="4" />
<ellipse fill="#0b1715" fill-opacity="0.501961" cx="188" cy="51" rx="7" ry="6" />
<ellipse fill="#2c383b" fill-opacity="0.501961" cx="138" cy="57" rx="8" ry="12" />
<ellipse fill="#b4ae2d" fill-opacity="0.501961" cx="161" cy="104" rx="3" ry="9" />
<ellipse fill="#494948" fill-opacity="0.501961" cx="70" cy="199" rx="12" ry="9" />
<ellipse fill="#a2aec0" fill-opacity="0.501961" cx="81" cy="168" rx="21" ry="9" />
<ellipse fill="#7f8da7" fill-opacity="0.501961" cx="184" cy="131" rx="19" ry="16" />
<ellipse fill="#515d5a" fill-opacity="0.501961" cx="227" cy="20" rx="28" ry="22" />
<ellipse fill="#cee1ff" fill-opacity="0.501961" cx="40" cy="164" rx="5" ry="5" />
<ellipse fill="#51525c" fill-opacity="0.501961" cx="215" cy="126" rx="8" ry="8" />
<ellipse fill="#181d04" fill-opacity="0.501961" cx="146" cy="105" rx="14" ry="8" />
<ellipse fill="#cac376" fill-opacity="0.501961" cx="79" cy="125" rx="2" ry="8" />
<ellipse fill="#d1e0fb" fill-opacity="0.501961" cx="231" cy="128" rx="10" ry="10" />
<ellipse fill="#101714" fill-opacity="0.501961" cx="82" cy="79" rx="2" ry="7" />
<ellipse fill="#c3c5d3" fill-opacity="0.501961" cx="219" cy="178" rx="20" ry="5" />
<ellipse fill="#3d484c" fill-opacity="0.501961" cx="218" cy="75" rx="8" ry="16" />
<ellipse fill="#e8f2fd" fill-opacity="0.501961" cx="120" cy="38" rx="2" ry="24" />
<ellipse fill="#acb5cc" fill-opacity="0.501961" cx="230" cy="65" rx="13" ry="8" />
<ellipse fill="#d7e7fe" fill-opacity="0.501961" cx="247" cy="171" rx="4" ry="37" />
<ellipse fill="#979db0" fill-opacity="0.501961" cx="242" cy="97" rx="9" ry="20" />
<ellipse fill="#f3fcff" fill-opacity="0.501961" cx="167" cy="206" rx="4" ry="6" />
<ellipse fill="#7e7676" fill-opacity="0.501961" cx="204" cy="165" rx="25" ry="15" />
<ellipse fill="#5c6573" fill-opacity="0.501961" cx="119" cy="64" rx="9" ry="13" />
<ellipse fill="#e6f2fe" fill-opacity="0.501961" cx="209" cy="40" rx="6" ry="6" />
<ellipse fill="#636b3c" fill-opacity="0.501961" cx="83" cy="135" rx="7" ry="7" />
<ellipse fill="#555c57" fill-opacity="0.501961" cx="28" cy="36" rx="30" ry="12" />
<ellipse fill="#637178" fill-opacity="0.501961" cx="128" cy="135" rx="24" ry="4" />
<ellipse fill="#d5cb34" fill-opacity="0.501961" cx="151" cy="114" rx="10" ry="2" />
<ellipse fill="#c5cee0" fill-opacity="0.501961" cx="22" cy="101" rx="3" ry="8" />
<ellipse fill="#252e2a" fill-opacity="0.501961" cx="116" cy="166" rx="6" ry="14" />
<ellipse fill="#cdc040" fill-opacity="0.501961" cx="87" cy="132" rx="7" ry="3" />
<ellipse fill="#dfe6f7" fill-opacity="0.501961" cx="49" cy="50" rx="7" ry="5" />
<ellipse fill="#1e1c17" fill-opacity="0.501961" cx="106" cy="185" rx="5" ry="5" />
<ellipse fill="#8d99a4" fill-opacity="0.501961" cx="105" cy="165" rx="10" ry="5" />
<ellipse fill="#d5e0f5" fill-opacity="0.501961" cx="108" cy="71" rx="2" ry="11" />
<ellipse fill="#64524f" fill-opacity="0.501961" cx="226" cy="199" rx="5" ry="13" />
<ellipse fill="#a7b8d0" fill-opacity="0.501961" cx="41" cy="123" rx="6" ry="21" />
<ellipse fill="#6b7265" fill-opacity="0.501961" cx="252" cy="46" rx="11" ry="28" />
<ellipse fill="#e1f1ff" fill-opacity="0.501961" cx="227" cy="55" rx="7" ry="8" />
<ellipse fill="#cfe1f8" fill-opacity="0.501961" cx="154" cy="149" rx="7" ry="4" />
<ellipse fill="#9194a4" fill-opacity="0.501961" cx="154" cy="23" rx="9" ry="7" />
<ellipse fill="#586678" fill-opacity="0.501961" cx="63" cy="160" rx="10" ry="6" />
<ellipse fill="#454342" fill-opacity="0.501961" cx="35" cy="178" rx="5" ry="10" />
<ellipse fill="#ffffff" fill-opacity="0.501961" cx="231" cy="181" rx="5" ry="6" />
<ellipse fill="#263231" fill-opacity="0.501961" cx="74" cy="100" rx="8" ry="6" />
<ellipse fill="#000411" fill-opacity="0.501961" cx="88" cy="122" rx="7" ry="9" />
<ellipse fill="#252728" fill-opacity="0.501961" cx="76" cy="67" rx="2" ry="8" />
<ellipse fill="#434f51" fill-opacity="0.501961" cx="99" cy="148" rx="11" ry="5" />
<ellipse fill="#f9ffff" fill-opacity="0.501961" cx="244" cy="74" rx="5" ry="5" />
<ellipse fill="#5c675c" fill-opacity="0.501961" cx="3" cy="160" rx="8" ry="14" />
<ellipse fill="#c5d2e2" fill-opacity="0.501961" cx="87" cy="41" rx="28" ry="5" />
<ellipse fill="#eaf3ff" fill-opacity="0.501961" cx="131" cy="195" rx="4" ry="17" />
<ellipse fill="#6a6369" fill-opacity="0.501961" cx="149" cy="202" rx="7" ry="6" />
<ellipse fill="#d1e7ff" fill-opacity="0.501961" cx="18" cy="205" rx="29" ry="18" />
<ellipse fill="#eefdff" fill-opacity="0.501961" cx="197" cy="204" rx="7" ry="11" />
<ellipse fill="#a7b2c1" fill-opacity="0.501961" cx="91" cy="86" rx="3" ry="24" />
<ellipse fill="#5f707e" fill-opacity="0.501961" cx="143" cy="154" rx="8" ry="17" />
<ellipse fill="#9297a5" fill-opacity="0.501961" cx="138" cy="34" rx="5" ry="10" />
<ellipse fill="#c1cada" fill-opacity="0.501961" cx="193" cy="30" rx="12" ry="10" />
<ellipse fill="#010700" fill-opacity="0.501961" cx="58" cy="76" rx="9" ry="4" />
<ellipse fill="#dbecff" fill-opacity="0.501961" cx="176" cy="160" rx="6" ry="3" />
<ellipse fill="#030400" fill-opacity="0.501961" cx="136" cy="121" rx="4" ry="11" />
<ellipse fill="#767782" fill-opacity="0.501961" cx="255" cy="177" rx="5" ry="16" />
<ellipse fill="#1f252a" fill-opacity="0.501961" cx="112" cy="73" rx="2" ry="7" />
<ellipse fill="#97a8bd" fill-opacity="0.501961" cx="118" cy="83" rx="6" ry="18" />
<ellipse fill="#a9b6c8" fill-opacity="0.501961" cx="96" cy="37" rx="16" ry="8" />
<ellipse fill="#c2d5ed" fill-opacity="0.501961" cx="32" cy="154" rx="7" ry="2" />
<ellipse fill="#d9eaff" fill-opacity="0.501961" cx="222" cy="135" rx="8" ry="6" />
<ellipse fill="#8691a2" fill-opacity="0.501961" cx="153" cy="64" rx="12" ry="9" />
<ellipse fill="#000000" fill-opacity="0.501961" cx="88" cy="86" rx="2" ry="3" />
<ellipse fill="#887e7e" fill-opacity="0.501961" cx="149" cy="189" rx="17" ry="4" />
<ellipse fill="#414349" fill-opacity="0.501961" cx="123" cy="57" rx="2" ry="21" />
<ellipse fill="#6f8097" fill-opacity="0.501961" cx="202" cy="104" rx="14" ry="22" />
<ellipse fill="#677068" fill-opacity="0.501961" cx="127" cy="0" rx="69" ry="10" />
<ellipse fill="#7b7a85" fill-opacity="0.501961" cx="240" cy="171" rx="6" ry="7" />
<ellipse fill="#a6bbdd" fill-opacity="0.501961" cx="34" cy="111" rx="5" ry="4" />
<ellipse fill="#43514a" fill-opacity="0.501961" cx="202" cy="12" rx="28" ry="7" />
<ellipse fill="#868117" fill-opacity="0.501961" cx="141" cy="106" rx="3" ry="8" />
<ellipse fill="#cddaf2" fill-opacity="0.501961" cx="232" cy="159" rx="6" ry="9" />
<ellipse fill="#deebfe" fill-opacity="0.501961" cx="159" cy="131" rx="6" ry="9" />
<ellipse fill="#808a8d" fill-opacity="0.501961" cx="85" cy="105" rx="15" ry="3" />
<ellipse fill="#8e9398" fill-opacity="0.501961" cx="142" cy="87" rx="11" ry="4" />
<ellipse fill="#c2cce5" fill-opacity="0.501961" cx="19" cy="116" rx="2" ry="6" />
<ellipse fill="#9193a2" fill-opacity="0.501961" cx="90" cy="58" rx="22" ry="6" />
<ellipse fill="#404149" fill-opacity="0.501961" cx="207" cy="53" rx="2" ry="10" />
<ellipse fill="#e0edff" fill-opacity="0.501961" cx="246" cy="198" rx="10" ry="10" />
<ellipse fill="#f5ffff" fill-opacity="0.501961" cx="136" cy="178" rx="4" ry="4" />
<ellipse fill="#dbebff" fill-opacity="0.501961" cx="87" cy="206" rx="4" ry="8" />
<ellipse fill="#d7e9ff" fill-opacity="0.501961" cx="125" cy="62" rx="2" ry="4" />
<ellipse fill="#222f2d" fill-opacity="0.501961" cx="143" cy="131" rx="8" ry="4" />
<ellipse fill="#a9b7d0" fill-opacity="0.501961" cx="65" cy="180" rx="15" ry="3" />
<ellipse fill="#3e4345" fill-opacity="0.501961" cx="92" cy="191" rx="6" ry="7" />
<ellipse fill="#b5c4d5" fill-opacity="0.501961" cx="179" cy="102" rx="7" ry="10" />
<ellipse fill="#9da2b4" fill-opacity="0.501961" cx="180" cy="39" rx="5" ry="4" />
<ellipse fill="#27383e" fill-opacity="0.501961" cx="163" cy="68" rx="3" ry="4" />
<ellipse fill="#535b6f" fill-opacity="0.501961" cx="55" cy="62" rx="2" ry="10" />
<ellipse fill="#111915" fill-opacity="0.501961" cx="131" cy="154" rx="4" ry="7" />
<ellipse fill="#dbe9fb" fill-opacity="0.501961" cx="172" cy="30" rx="3" ry="4" />
<ellipse fill="#aebcd0" fill-opacity="0.501961" cx="49" cy="102" rx="10" ry="10" />
<ellipse fill="#292d31" fill-opacity="0.501961" cx="106" cy="177" rx="16" ry="2" />
<ellipse fill="#121c1a" fill-opacity="0.501961" cx="103" cy="97" rx="2" ry="6" />
<ellipse fill="#415054" fill-opacity="0.501961" cx="176" cy="132" rx="3" ry="10" />
<ellipse fill="#1a1e19" fill-opacity="0.501961" cx="104" cy="77" rx="3" ry="5" />
<ellipse fill="#303939" fill-opacity="0.501961" cx="24" cy="123" rx="3" ry="21" />
<ellipse fill="#c2cade" fill-opacity="0.501961" cx="202" cy="148" rx="8" ry="4" />
<ellipse fill="#e0f2ff" fill-opacity="0.501961" cx="234" cy="60" rx="5" ry="5" />
<ellipse fill="#c9d0e3" fill-opacity="0.501961" cx="200" cy="47" rx="4" ry="3" />
<ellipse fill="#a8b6d0" fill-opacity="0.501961" cx="204" cy="127" rx="4" ry="7" />
<ellipse fill="#0f1914" fill-opacity="0.501961" cx="146" cy="76" rx="5" ry="6" />
<ellipse fill="#545f58" fill-opacity="0.501961" cx="19" cy="43" rx="23" ry="19" />
<ellipse fill="#e0f7ff" fill-opacity="0.501961" cx="143" cy="163" rx="2" ry="4" />
<ellipse fill="#abb2aa" fill-opacity="0.501961" cx="125" cy="158" rx="3" ry="6" />
<ellipse fill="#b3c4dc" fill-opacity="0.501961" cx="135" cy="58" rx="2" ry="5" />
<ellipse fill="#a4b3ca" fill-opacity="0.501961" cx="213" cy="105" rx="3" ry="12" />
<ellipse fill="#d9e6ff" fill-opacity="0.501961" cx="249" cy="153" rx="6" ry="10" />
<ellipse fill="#98a4b3" fill-opacity="0.501961" cx="28" cy="88" rx="8" ry="6" />
<ellipse fill="#5d6661" fill-opacity="0.501961" cx="24" cy="31" rx="51" ry="10" />
<ellipse fill="#e7eeff" fill-opacity="0.501961" cx="224" cy="92" rx="4" ry="2" />
<ellipse fill="#babdcc" fill-opacity="0.501961" cx="21" cy="120" rx="4" ry="2" />
<ellipse fill="#bfd1e4" fill-opacity="0.501961" cx="77" cy="82" rx="3" ry="9" />
<ellipse fill="#5b6067" fill-opacity="0.501961" cx="221" cy="66" rx="10" ry="3" />
<ellipse fill="#dfeafa" fill-opacity="0.501961" cx="80" cy="59" rx="2" ry="10" />
<ellipse fill="#687988" fill-opacity="0.501961" cx="174" cy="89" rx="4" ry="12" />
<ellipse fill="#74787d" fill-opacity="0.501961" cx="37" cy="20" rx="19" ry="8" />
<ellipse fill="#242d2b" fill-opacity="0.501961" cx="158" cy="36" rx="8" ry="6" />
<ellipse fill="#4d5f6d" fill-opacity="0.501961" cx="188" cy="115" rx="11" ry="4" />
<ellipse fill="#232828" fill-opacity="0.501961" cx="180" cy="46" rx="8" ry="4" />
<ellipse fill="#c1c9db" fill-opacity="0.501961" cx="32" cy="75" rx="7" ry="5" />
<ellipse fill="#635a56" fill-opacity="0.501961" cx="170" cy="187" rx="15" ry="5" />
<ellipse fill="#c2bc47" fill-opacity="0.501961" cx="150" cy="115" rx="7" ry="2" />
<ellipse fill="#dae4f3" fill-opacity="0.501961" cx="102" cy="59" rx="2" ry="6" />
<ellipse fill="#6d6767" fill-opacity="0.501961" cx="185" cy="174" rx="11" ry="12" />
<ellipse fill="#95a4b7" fill-opacity="0.501961" cx="49" cy="126" rx="20" ry="5" />
<ellipse fill="#ffffff" fill-opacity="0.501961" cx="134" cy="36" rx="2" ry="4" />
<ellipse fill="#556070" fill-opacity="0.501961" cx="56" cy="161" rx="4" ry="17" />
<ellipse fill="#deeeff" fill-opacity="0.501961" cx="252" cy="176" rx="6" ry="3" />
<ellipse fill="#7e825d" fill-opacity="0.501961" cx="157" cy="98" rx="4" ry="4" />
<ellipse fill="#b1bbc8" fill-opacity="0.501961" cx="105" cy="88" rx="4" ry="4" />
<ellipse fill="#e3f2ff" fill-opacity="0.501961" cx="76" cy="145" rx="11" ry="3" />
<ellipse fill="#50525e" fill-opacity="0.501961" cx="124" cy="177" rx="6" ry="5" />
<ellipse fill="#000914" fill-opacity="0.501961" cx="151" cy="109" rx="6" ry="5" />
<ellipse fill="#a6abc2" fill-opacity="0.501961" cx="20" cy="146" rx="2" ry="13" />
<ellipse fill="#e3f5ff" fill-opacity="0.501961" cx="200" cy="206" rx="13" ry="4" />
<ellipse fill="#2b3232" fill-opacity="0.501961" cx="149" cy="162" rx="3" ry="4" />
<ellipse fill="#a4acc1" fill-opacity="0.501961" cx="99" cy="80" rx="2" ry="16" />
<ellipse fill="#b0bfdc" fill-opacity="0.501961" cx="18" cy="178" rx="14" ry="5" />
<ellipse fill="#95a4b8" fill-opacity="0.501961" cx="58" cy="91" rx="10" ry="9" />
<ellipse fill="#000000" fill-opacity="0.501961" cx="155" cy="92" rx="10" ry="2" />
<ellipse fill="#131514" fill-opacity="0.501961" cx="119" cy="64" rx="3" ry="3" />
<ellipse fill="#b9c5de" fill-opacity="0.501961" cx="108" cy="198" rx="11" ry="4" />
<ellipse fill="#686f75" fill-opacity="0.501961" cx="60" cy="117" rx="6" ry="8" />
<ellipse fill="#b2b0b7" fill-opacity="0.501961" cx="151" cy="180" rx="6" ry="13" />
<ellipse fill="#8998a8" fill-opacity="0.501961" cx="0" cy="128" rx="7" ry="17" />
<ellipse fill="#ffffff" fill-opacity="0.501961" cx="62" cy="58" rx="2" ry="5" />
<ellipse fill="#484a50" fill-opacity="0.501961" cx="111" cy="58" rx="6" ry="3" />
<ellipse fill="#616d65" fill-opacity="0.501961" cx="10" cy="90" rx="10" ry="36" />
<ellipse fill="#c3d6f0" fill-opacity="0.501961" cx="130" cy="72" rx="2" ry="12" />
<ellipse fill="#7a868e" fill-opacity="0.501961" cx="127" cy="128" rx="4" ry="9" />
<ellipse fill="#998d97" fill-opacity="0.501961" cx="189" cy="193" rx="5" ry="10" />
<ellipse fill="#666e69" fill-opacity="0.501961" cx="244" cy="41" rx="11" ry="20" />
<ellipse fill="#c6d5e4" fill-opacity="0.501961" cx="167" cy="120" rx="7" ry="5" />
<ellipse fill="#5f707e" fill-opacity="0.501961" cx="112" cy="188" rx="7" ry="3" />
<ellipse fill="#162c3c" fill-opacity="0.501961" cx="78" cy="136" rx="5" ry="4" />
<ellipse fill="#eeffff" fill-opacity="0.501961" cx="216" cy="47" rx="3" ry="5" />
<ellipse fill="#99a5bb" fill-opacity="0.501961" cx="195" cy="129" rx="5" ry="13" />
<ellipse fill="#707b87" fill-opacity="0.501961" cx="24" cy="147" rx="12" ry="8" />
<ellipse fill="#c7d5ec" fill-opacity="0.501961" cx="93" cy="87" rx="2" ry="8" />
<ellipse fill="#dff2ff" fill-opacity="0.501961" cx="120" cy="57" rx="2" ry="4" />
<ellipse fill="#4d545f" fill-opacity="0.501961" cx="108" cy="77" rx="17" ry="2" />
<ellipse fill="#3f5461" fill-opacity="0.501961" cx="73" cy="156" rx="2" ry="3" />
<ellipse fill="#101d12" fill-opacity="0.501961" cx="197" cy="55" rx="3" ry="5" />
<ellipse fill="#c3cbe5" fill-opacity="0.501961" cx="44" cy="62" rx="2" ry="6" />
<ellipse fill="#909ba2" fill-opacity="0.501961" cx="129" cy="96" rx="6" ry="5" />
<ellipse fill="#27373c" fill-opacity="0.501961" cx="28" cy="132" rx="9" ry="4" />
<ellipse fill="#070512" fill-opacity="0.501961" cx="96" cy="91" rx="2" ry="3" />
<ellipse fill="#42494d" fill-opacity="0.501961" cx="226" cy="83" rx="3" ry="7" />
<ellipse fill="#3e474f" fill-opacity="0.501961" cx="44" cy="82" rx="7" ry="5" />
<ellipse fill="#ffffff" fill-opacity="0.501961" cx="127" cy="37" rx="3" ry="3" />
<ellipse fill="#6b7370" fill-opacity="0.501961" cx="107" cy="9" rx="12" ry="18" />
<ellipse fill="#eaf8ff" fill-opacity="0.501961" cx="126" cy="189" rx="6" ry="5" />
<ellipse fill="#4c5860" fill-opacity="0.501961" cx="109" cy="101" rx="2" ry="19" />
<ellipse fill="#808490" fill-opacity="0.501961" cx="210" cy="52" rx="3" ry="6" />
<ellipse fill="#0a120f" fill-opacity="0.501961" cx="166" cy="96" rx="6" ry="4" />
<ellipse fill="#d5e1ed" fill-opacity="0.501961" cx="128" cy="20" rx="13" ry="4" />
<ellipse fill="#818e9b" fill-opacity="0.501961" cx="110" cy="113" rx="11" ry="18" />
<ellipse fill="#bccfe4" fill-opacity="0.501961" cx="167" cy="58" rx="10" ry="5" />
<ellipse fill="#d8e3f5" fill-opacity="0.501961" cx="83" cy="158" rx="10" ry="5" />
<ellipse fill="#1b1b1c" fill-opacity="0.501961" cx="81" cy="77" rx="2" ry="6" />
<ellipse fill="#697684" fill-opacity="0.501961" cx="37" cy="75" rx="7" ry="3" />
<ellipse fill="#bfcce7" fill-opacity="0.501961" cx="237" cy="118" rx="10" ry="6" />
<ellipse fill="#9f9faa" fill-opacity="0.501961" cx="212" cy="177" rx="15" ry="7" />
<ellipse fill="#677179" fill-opacity="0.501961" cx="83" cy="71" rx="2" ry="11" />
<ellipse fill="#ccd5e2" fill-opacity="0.501961" cx="169" cy="32" rx="2" ry="6" />
<ellipse fill="#303e44" fill-opacity="0.501961" cx="164" cy="32" rx="6" ry="3" />
<ellipse fill="#ffffff" fill-opacity="0.501961" cx="86" cy="72" rx="1" ry="6" />
<ellipse fill="#e2ecff" fill-opacity="0.501961" cx="182" cy="134" rx="2" ry="4" />
<ellipse fill="#282f2f" fill-opacity="0.501961" cx="30" cy="160" rx="5" ry="3" />
<ellipse fill="#d8e1eb" fill-opacity="0.501961" cx="125" cy="48" rx="2" ry="3" />
<ellipse fill="#000000" fill-opacity="0.501961" cx="73" cy="116" rx="3" ry="7" />
<ellipse fill="#feffff" fill-opacity="0.501961" cx="130" cy="51" rx="1" ry="4" />
<ellipse fill="#878b9c" fill-opacity="0.501961" cx="101" cy="51" rx="7" ry="8" />
<ellipse fill="#d5ebff" fill-opacity="0.501961" cx="248" cy="94" rx="2" ry="4" />
<ellipse fill="#0f1513" fill-opacity="0.501961" cx="187" cy="152" rx="5" ry="2" />
<ellipse fill="#75877c" fill-opacity="0.501961" cx="82" cy="117" rx="4" ry="2" />
<ellipse fill="#9c9dbd" fill-opacity="0.501961" cx="145" cy="29" rx="4" ry="4" />
<ellipse fill="#cfd4e2" fill-opacity="0.501961" cx="91" cy="57" rx="2" ry="13" />
<ellipse fill="#747e8c" fill-opacity="0.501961" cx="154" cy="61" rx="3" ry="14" />
<ellipse fill="#b0c0d5" fill-opacity="0.501961" cx="68" cy="143" rx="9" ry="9" />
<ellipse fill="#4d5854" fill-opacity="0.501961" cx="203" cy="2" rx="5" ry="32" />
<ellipse fill="#0a0e15" fill-opacity="0.501961" cx="95" cy="143" rx="2" ry="4" />
<ellipse fill="#767985" fill-opacity="0.501961" cx="233" cy="69" rx="4" ry="4" />
<ellipse fill="#37444b" fill-opacity="0.501961" cx="133" cy="146" rx="9" ry="7" />
</g>
</svg>