<svg xmlns="http://www.w3.org/2000/svg" version="1.1" width="727" height="1024">
<rect x="0" y="0" width="727" height="1024" fill="#676256" />
<g transform="scale(2.115702) translate(0.5 0.5)">
<polygon fill="#e0c388" fill-opacity="0.501961" points="85.431785,33.767581,213.911108,7.630027,84.991099,202.851188,22.510582,194.127300" />
<polygon fill="#ffffff" fill-opacity="0.501961" points="317.185202,390.409225,326.474260,461.466440,323.392277,311.182465,298.571623,203.342796" />
<polygon fill="#b49a62" fill-opacity="0.501961" points="142.108656,199.205024,214.773810,229.784450,147.455280,445.749994,46.721216,267.087784" />
<polygon fill="#ffffe3" fill-opacity="0.501961" points="245.494232,94.116981,287.313544,243.413087,250.964281,78.257986,200.632466,5.050469" />
<polygon fill="#ffffef" fill-opacity="0.501961" points="311.986684,246.899246,311.044933,262.659889,246.475840,150.240615,282.960304,192.786883" />
<polygon fill="#3e4146" fill-opacity="0.501961" points="290.111167,216.033940,-16.000000,36.702027,64.782686,122.520314,314.927551,326.826031" />
<polygon fill="#fffff2" fill-opacity="0.501961" points="41.659394,116.944412,59.886468,211.290340,112.837119,178.400242,36.321099,188.549716" />
<polygon fill="#000627" fill-opacity="0.501961" points="63.680696,146.998967,89.020582,158.194837,76.367590,187.512529,49.489377,177.198965" />
<polygon fill="#ffcf6d" fill-opacity="0.501961" points="9.904385,13.737191,35.516889,41.218795,83.470949,80.003869,77.753458,42.283801" />
<polygon fill="#ffffd8" fill-opacity="0.501961" points="332.078072,446.935783,312.202124,301.184019,319.057795,445.099888,353.226885,457.387033" />
<polygon fill="#363b46" fill-opacity="0.501961" points="137.377231,499.000000,-7.848664,499.000000,-0.910792,19.659997,58.079231,268.492877" />
<polygon fill="#d7af5f" fill-opacity="0.501961" points="140.512107,72.126916,50.142078,51.823488,159.407625,9.332736,253.736022,18.037723" />
<polygon fill="#fffff6" fill-opacity="0.501961" points="89.020793,137.158009,103.691743,170.176977,52.860931,139.236825,63.862068,133.472067" />
<polygon fill="#ffffe4" fill-opacity="0.501961" points="254.036976,178.151236,256.418562,161.912036,257.590854,97.724639,269.624363,188.941160" />
<polygon fill="#1b2232" fill-opacity="0.501961" points="149.959751,302.324611,139.119794,327.736754,129.455636,304.086573,135.760064,214.719785" />
<polygon fill="#d9b56c" fill-opacity="0.501961" points="176.721104,141.345430,176.422555,96.621802,152.835933,144.894167,204.084575,177.135623" />
<polygon fill="#363a3f" fill-opacity="0.501961" points="103.875282,321.692234,189.682442,403.641390,99.788187,349.599394,98.380361,344.481575" />
<polygon fill="#333740" fill-opacity="0.501961" points="309.898882,246.335561,231.857404,35.289156,346.526747,-16.000000,343.721188,450.053983" />
<polygon fill="#ffd87d" fill-opacity="0.501961" points="131.625207,197.530513,125.161340,162.162187,137.985913,163.200834,142.725661,181.507978" />
<polygon fill="#3a3d43" fill-opacity="0.501961" points="250.525946,499.000000,324.977599,488.143635,307.358648,276.018888,185.063124,104.657213" />
<polygon fill="#ffffe7" fill-opacity="0.501961" points="224.377170,36.580688,228.031235,38.688624,208.580529,33.889772,256.788114,99.653693" />
<polygon fill="#fffff0" fill-opacity="0.501961" points="55.537753,135.563845,62.945251,148.057018,32.827999,179.218541,37.174948,154.211054" />
<polygon fill="#020d28" fill-opacity="0.501961" points="97.072275,260.666539,85.003467,289.788682,103.198502,301.619097,102.346782,260.084105" />
<polygon fill="#fffddf" fill-opacity="0.501961" points="100.191172,176.008119,89.071979,135.529226,86.389267,195.833026,33.095708,190.847358" />
<polygon fill="#d8b36a" fill-opacity="0.501961" points="138.894699,412.139968,159.184894,410.782971,132.303748,372.428232,67.606446,310.457331" />
<polygon fill="#ffffd5" fill-opacity="0.501961" points="313.067947,322.015334,303.138788,244.916474,317.634622,276.454600,328.793301,443.351411" />
<polygon fill="#b8a06b" fill-opacity="0.501961" points="201.430995,262.399072,212.101817,217.750089,133.473838,215.681929,156.609672,262.222639" />
<polygon fill="#373a41" fill-opacity="0.501961" points="252.328416,111.701681,237.511740,75.859859,206.675517,32.203401,157.825920,86.862780" />
<polygon fill="#4f5259" fill-opacity="0.501961" points="14.618862,165.590918,86.025885,114.675639,71.618107,78.339026,1.632270,8.978029" />
<polygon fill="#323640" fill-opacity="0.501961" points="23.768324,15.299772,87.060004,38.918208,177.234373,-0.133327,-16.000000,-6.924104" />
<polygon fill="#e6c075" fill-opacity="0.501961" points="212.039220,96.243640,212.647460,110.564859,164.381943,111.630725,183.178124,97.696062" />
<polygon fill="#d9b774" fill-opacity="0.501961" points="205.479572,312.540431,150.298207,306.285660,168.277042,366.564274,124.538178,341.152378" />
<polygon fill="#d0af6e" fill-opacity="0.501961" points="226.192001,110.912290,228.885904,151.662280,178.125607,152.845094,206.918097,167.691436" />
<polygon fill="#2f3239" fill-opacity="0.501961" points="265.313126,132.623516,262.233062,116.247911,290.419030,194.087078,265.553216,176.213615" />
<polygon fill="#848177" fill-opacity="0.501961" points="260.631614,417.161449,265.810233,437.254205,204.631971,317.030956,206.203693,452.800916" />
<polygon fill="#373b43" fill-opacity="0.501961" points="123.873256,499.000000,184.461132,499.000000,170.981467,322.111212,211.708920,404.722709" />
<polygon fill="#fff9d0" fill-opacity="0.501961" points="286.815074,216.307587,314.515446,266.977439,289.843031,201.695395,249.191887,163.307007" />
<polygon fill="#0f1b32" fill-opacity="0.501961" points="166.397581,290.711927,161.203456,267.417728,169.215278,257.798576,183.735733,267.634138" />
<polygon fill="#c3a769" fill-opacity="0.501961" points="73.969516,232.500724,86.863449,233.222933,90.000447,351.078172,62.583262,297.533986" />
<polygon fill="#dab260" fill-opacity="0.501961" points="128.196404,137.523622,131.409347,63.308362,164.239081,59.185990,133.120308,145.623309" />
<polygon fill="#393b42" fill-opacity="0.501961" points="257.072183,162.063481,240.572654,86.062821,223.005130,168.662414,249.440243,205.296520" />
<polygon fill="#2c2e33" fill-opacity="0.501961" points="170.747964,148.263595,205.761844,155.487398,217.489806,124.993501,185.723963,104.770570" />
<polygon fill="#3a3d43" fill-opacity="0.501961" points="306.421117,-5.914204,122.070754,2.518038,235.005035,15.666778,305.700034,28.349369" />
<polygon fill="#60605a" fill-opacity="0.501961" points="91.199122,111.467013,126.775058,-15.474704,111.531547,65.607535,111.446442,243.953623" />
<polygon fill="#7c7a76" fill-opacity="0.501961" points="16.830664,116.603559,14.983567,160.614804,21.986151,197.352603,71.001420,65.104584" />
<polygon fill="#fff9d8" fill-opacity="0.501961" points="33.653638,175.648292,48.771100,198.997112,71.915598,201.925709,46.170692,165.423507" />
<polygon fill="#454648" fill-opacity="0.501961" points="186.906877,459.894024,177.314423,499.000000,354.765268,478.843745,287.682317,406.678681" />
<polygon fill="#222635" fill-opacity="0.501961" points="156.179120,392.681333,154.173775,369.496360,134.894594,349.479685,140.090471,390.301335" />
<polygon fill="#32353b" fill-opacity="0.501961" points="51.819814,158.085221,68.700660,187.742601,89.054626,171.063118,78.070488,145.693550" />
<polygon fill="#fff7d6" fill-opacity="0.501961" points="227.749481,42.139545,266.950501,150.057591,257.248810,98.861490,239.093638,64.535956" />
<polygon fill="#9e8e66" fill-opacity="0.501961" points="148.005180,430.298046,165.884647,329.924339,179.275089,400.641867,169.930845,461.301364" />
<polygon fill="#2f333a" fill-opacity="0.501961" points="130.795659,228.090974,153.097326,218.474731,135.590985,264.046334,125.822600,246.097819" />
<polygon fill="#373a40" fill-opacity="0.501961" points="220.420644,224.556959,204.640706,247.897317,180.442309,378.535497,195.681461,359.832149" />
<polygon fill="#fffbd6" fill-opacity="0.501961" points="335.250231,448.598195,315.279965,379.920546,315.570304,387.559526,324.860758,450.556996" />
<polygon fill="#c6a969" fill-opacity="0.501961" points="102.346786,269.235482,123.157031,313.167126,142.189692,250.439384,210.418745,253.122091" />
<polygon fill="#3e4047" fill-opacity="0.501961" points="89.999629,224.412199,49.915376,228.028964,42.272616,371.632461,72.083249,239.776719" />
<polygon fill="#73757b" fill-opacity="0.501961" points="47.609951,195.923069,102.130658,214.346736,47.275375,232.346338,11.436779,165.017871" />
<polygon fill="#cfad6d" fill-opacity="0.501961" points="221.208802,24.688849,272.376748,23.190032,202.141802,8.993217,161.506040,72.543129" />
<polygon fill="#404145" fill-opacity="0.501961" points="48.895799,68.486526,173.804653,189.544881,151.901009,100.393944,120.625322,166.320809" />
<polygon fill="#fffedd" fill-opacity="0.501961" points="71.626857,200.961648,86.773460,196.116587,98.782569,183.321874,96.927342,155.698773" />
<polygon fill="#242936" fill-opacity="0.501961" points="101.633360,328.969546,106.408280,358.837067,125.211872,359.219487,106.888083,319.267223" />
<polygon fill="#53524e" fill-opacity="0.501961" points="275.090412,198.392808,298.606421,238.579279,119.279256,250.199396,169.955853,239.339599" />
<polygon fill="#d0b071" fill-opacity="0.501961" points="196.407725,296.921380,195.286733,274.167441,150.678035,292.092446,135.585368,267.492626" />
<polygon fill="#fffad4" fill-opacity="0.501961" points="95.744672,158.221745,70.522661,147.109775,32.951392,156.356013,73.253208,132.414587" />
<polygon fill="#ceab64" fill-opacity="0.501961" points="37.308360,20.555776,83.677455,71.366352,101.791625,123.528488,87.932962,106.073675" />
<polygon fill="#d8b672" fill-opacity="0.501961" points="188.670043,311.084541,190.362185,293.941748,190.765373,334.007573,142.442848,314.193294" />
<polygon fill="#48494a" fill-opacity="0.501961" points="96.958935,460.357044,159.708778,458.062746,44.776987,299.312730,-16.000000,375.414877" />
<polygon fill="#baa169" fill-opacity="0.501961" points="137.503636,220.876072,64.115324,287.326644,67.586388,254.378305,81.198697,233.883422" />
<polygon fill="#dcb66c" fill-opacity="0.501961" points="170.483644,145.841225,184.829801,98.308554,162.813710,115.042784,160.523443,141.906183" />
<polygon fill="#dab76e" fill-opacity="0.501961" points="177.708716,221.277294,143.533440,235.232494,175.466385,238.902049,216.622483,214.838609" />
<polygon fill="#d6b26d" fill-opacity="0.501961" points="119.582357,323.283663,173.849662,361.244836,116.920449,336.913205,100.650238,303.813998" />
<polygon fill="#404246" fill-opacity="0.501961" points="325.924276,409.212636,347.470298,499.000000,321.669074,272.332578,325.270689,382.011952" />
<polygon fill="#ffeecb" fill-opacity="0.501961" points="302.389227,227.115323,255.461630,177.068666,261.387853,116.289248,264.360154,170.921899" />
<polygon fill="#68675c" fill-opacity="0.501961" points="116.257397,321.624563,108.671265,305.388948,180.395571,330.092730,170.968267,350.384032" />
<polygon fill="#6e6e70" fill-opacity="0.501961" points="36.747771,215.094079,108.187215,210.103110,129.702064,89.660584,92.874184,194.086291" />
<polygon fill="#424140" fill-opacity="0.501961" points="7.927766,65.615681,7.495276,141.008968,53.812802,64.422513,-13.624957,-16.000000" />
<polygon fill="#48494b" fill-opacity="0.501961" points="210.109751,38.468240,229.896425,128.619088,204.825559,35.004025,249.176543,21.403806" />
<polygon fill="#3e3f44" fill-opacity="0.501961" points="144.601328,127.527638,192.235342,89.097521,162.649588,82.333056,152.190465,96.387521" />
<polygon fill="#6b6c6c" fill-opacity="0.501961" points="130.930550,436.453462,66.921567,471.621165,84.538180,472.825669,153.892192,470.345813" />
<polygon fill="#6e6f72" fill-opacity="0.501961" points="73.748416,133.248699,117.980997,155.312199,43.449169,72.917307,15.774282,138.047393" />
<polygon fill="#d3b06c" fill-opacity="0.501961" points="221.769966,97.825270,230.845049,138.803671,216.906867,159.760680,221.971202,128.955790" />
<polygon fill="#ffe7c4" fill-opacity="0.501961" points="290.438133,203.360980,302.370640,228.545859,313.827028,262.241642,318.360010,322.112108" />
<polygon fill="#404145" fill-opacity="0.501961" points="170.956010,174.391183,35.158420,251.083088,105.802485,223.430165,137.518120,204.917449" />
<polygon fill="#494a4b" fill-opacity="0.501961" points="125.863727,18.687050,172.470878,11.748836,356.719219,15.538632,161.875320,-16.000000" />
<polygon fill="#4c4c4a" fill-opacity="0.501961" points="314.611524,339.222565,300.777676,243.974212,250.971596,170.059633,167.559318,166.035328" />
<polygon fill="#bfa469" fill-opacity="0.501961" points="124.348916,383.648243,142.968296,330.215989,105.178515,382.303835,63.646008,279.874371" />
<polygon fill="#958b64" fill-opacity="0.501961" points="245.774853,472.324200,200.399701,472.725433,223.035823,457.533997,248.950390,473.077593" />
<polygon fill="#404042" fill-opacity="0.501961" points="127.150334,291.080849,132.519132,326.999172,155.747664,295.196090,82.994849,269.984741" />
<polygon fill="#414146" fill-opacity="0.501961" points="49.237401,165.456062,64.704839,187.761812,85.052667,178.216199,59.127898,149.864337" />
<polygon fill="#4b4b4a" fill-opacity="0.501961" points="130.683120,158.693406,204.071754,205.613894,139.188523,236.097509,163.078015,211.475356" />
<polygon fill="#d1b272" fill-opacity="0.501961" points="186.638541,166.690659,200.589003,166.042740,192.060828,152.080270,175.194856,164.858235" />
<polygon fill="#d3b371" fill-opacity="0.501961" points="168.117860,212.316941,154.295103,206.845549,123.429898,225.869883,142.617462,225.034571" />
<polygon fill="#434241" fill-opacity="0.501961" points="62.138678,64.278922,56.573299,53.295787,38.160293,55.000305,99.114263,126.461177" />
<polygon fill="#474848" fill-opacity="0.501961" points="314.793458,362.313998,258.148674,432.361345,193.915726,259.798826,313.657078,331.547208" />
<polygon fill="#464649" fill-opacity="0.501961" points="257.911554,148.756265,252.782340,116.791266,247.481133,97.704830,197.124889,83.256851" />
<polygon fill="#4c4d4b" fill-opacity="0.501961" points="288.906288,204.069109,316.210638,250.582356,297.072390,100.830113,263.409635,167.329836" />
<polygon fill="#514f48" fill-opacity="0.501961" points="119.659989,74.189865,117.330493,86.160415,115.361722,187.544932,127.501785,206.813976" />
<polygon fill="#cead6b" fill-opacity="0.501961" points="198.654400,267.871445,207.943761,241.171595,137.580332,256.645500,201.743783,259.378202" />
<polygon fill="#484848" fill-opacity="0.501961" points="233.937751,51.192615,267.203899,116.457530,250.676654,23.685073,218.749367,31.762937" />
<polygon fill="#6e7076" fill-opacity="0.501961" points="207.952699,286.081175,227.099346,370.360574,187.031283,400.246785,192.658142,391.920004" />
</g>
</svg>