<svg xmlns="http://www.w3.org/2000/svg" version="1.1" width="727" height="1024">
<rect x="0" y="0" width="727" height="1024" fill="#676256" />
<g transform="scale(2.115702) translate(0.5 0.5)">
<ellipse fill="#fff7db" fill-opacity="0.501961" cx="65" cy="168" rx="35" ry="35" />
<g transform="translate(144 50) rotate(159) scale(156 63)"><rect fill="#eec470" fill-opacity="0.501961" x="-0.5" y="-0.5" width="1" height="1" /></g>
<g transform="translate(314.947373 315.343518) rotate(263.691412) scale(80.353693 5.182279)"><ellipse fill="#ffffff" fill-opacity="0.501961" cx="0" cy="0" rx="1" ry="1" /></g>
<ellipse fill="#000000" fill-opacity="0.501961" cx="69" cy="167" rx="18" ry="18" />
<g transform="translate(134.898052 287.726871) rotate(286.135801) scale(85.857627 63.991462)"><ellipse fill="#b29962" fill-opacity="0.501961" cx="0" cy="0" rx="1" ry="1" /></g>
<g transform="translate(264.678426 299.814465) rotate(345.164237) scale(42.495016 112.093552)"><ellipse fill="#30353e" fill-opacity="0.501961" cx="0" cy="0" rx="1" ry="1" /></g>
<g transform="translate(281.359722 202.031889) rotate(146.368923) scale(4.928099 44.446046)"><ellipse fill="#ffffff" fill-opacity="0.501961" cx="0" cy="0" rx="1" ry="1" /></g>
<rect fill="#ffffeb" fill-opacity="0.501961" x="317" y="372" width="10" height="72" />
<g transform="translate(309.010086 93.140032) rotate(82.278079) scale(145.914951 51.003086)"><ellipse fill="#323740" fill-opacity="0.501961" cx="0" cy="0" rx="1" ry="1" /></g>
<ellipse fill="#fffff6" fill-opacity="0.501961" cx="260" cy="142" rx="5" ry="41" />
<polygon fill="#ffffff" fill-opacity="0.501961" points="259,117 249,70 215,34" />
<polygon fill="#dcb76a" fill-opacity="0.501961" points="174.327538,10.759899,190.199456,31.505274,127.194343,145.076989,115.742029,31.471867" />
<ellipse fill="#343843" fill-opacity="0.501961" cx="27" cy="402" rx="84" ry="84" />
<g transform="translate(193.925040 68.908136) rotate(309.047757) scale(34.569119 17.920266)"><ellipse fill="#222b3e" fill-opacity="0.501961" cx="0" cy="0" rx="1" ry="1" /></g>
<g transform="translate(134.131132 395.157043) rotate(47.574445) scale(57.079006 14.734410)"><ellipse fill="#c9ac6a" fill-opacity="0.501961" cx="0" cy="0" rx="1" ry="1" /></g>
<ellipse fill="#303642" fill-opacity="0.501961" cx="186" cy="5" rx="327" ry="7" />
<ellipse fill="#363a42" fill-opacity="0.501961" cx="281" cy="452" rx="41" ry="81" />
<g transform="translate(12.780154 255.009530) rotate(70.299438) scale(179.339395 39.367225)"><ellipse fill="#3d4047" fill-opacity="0.501961" cx="0" cy="0" rx="1" ry="1" /></g>
<g transform="translate(49.473941 42.694609) rotate(219.018112) scale(39.902432 7.814101)"><ellipse fill="#facc6d" fill-opacity="0.501961" cx="0" cy="0" rx="1" ry="1" /></g>
<ellipse fill="#09122a" fill-opacity="0.501961" cx="138" cy="295" rx="10" ry="25" />
<polygon fill="#ffffdb" fill-opacity="0.501961" points="333.906825,449.882517,324.720882,452.742715,313.820229,368.883303,325.144147,395.096412" />
<g transform="translate(172.023984 120.871917) rotate(22.681358) scale(6.885378 24.627416)"><ellipse fill="#ffd172" fill-opacity="0.501961" cx="0" cy="0" rx="1" ry="1" /></g>
<g transform="translate(201.468135 185.883371) rotate(172.040636) scale(54.749479 20.715706)"><ellipse fill="#32363f" fill-opacity="0.501961" cx="0" cy="0" rx="1" ry="1" /></g>
<ellipse fill="#cfaf6a" fill-opacity="0.501961" cx="77" cy="276" rx="12" ry="43" />
<polygon fill="#ffffe2" fill-opacity="0.501961" points="99.484729,190.464431,88.192689,123.201168,87.119447,175.664246,50.975536,201.827607" />
<polygon fill="#fffacf" fill-opacity="0.501961" points="312.322973,250.163103,265.426466,171.002241,299.612229,243.947188,329.016272,367.640300" />
<g transform="translate(6.431301 82.068242) rotate(284.121348) scale(55.282792 29.417681)"><ellipse fill="#32353f" fill-opacity="0.501961" cx="0" cy="0" rx="1" ry="1" /></g>
<polygon fill="#fff9d7" fill-opacity="0.501961" points="74.827223,210.115178,34.152038,178.135074,82.624684,126.956605,34.168728,144.780473" />
<polygon fill="#060f28" fill-opacity="0.501961" points="106.191785,295.048461,97.349314,301.730612,85.968622,288.128924,100.184951,254.359695" />
<polygon fill="#0b152d" fill-opacity="0.501961" points="128,350 108,359 103,315" />
<polygon fill="#010c26" fill-opacity="0.501961" points="125.759620,240.101240,136.814003,265.781075,144.492466,236.420704,134.020630,223.164165" />
<ellipse fill="#33373f" fill-opacity="0.501961" cx="338" cy="360" rx="15" ry="85" />
<polygon fill="#fffed5" fill-opacity="0.501961" points="257.656880,104.134368,266.299972,168.565725,237.144324,57.981060,207.996948,33.775540" />
<ellipse fill="#c7aa6d" fill-opacity="0.501961" cx="182" cy="239" rx="26" ry="23" />
<polygon fill="#f4c974" fill-opacity="0.501961" points="207,30 215,10 260,20" />
<polygon fill="#383a3e" fill-opacity="0.501961" points="253.763972,52.579289,261.000471,26.162744,231.867055,29.115686,268.525619,141.031291" />
<ellipse fill="#1f222b" fill-opacity="0.501961" cx="196" cy="132" rx="21" ry="22" />
<polygon fill="#f7cc77" fill-opacity="0.501961" points="129.025650,157.242445,126.919878,169.462354,125.741082,196.268867,144.754984,182.097642" />
<g transform="translate(146.940483 347.100849) rotate(32.339626) scale(32.953777 9.288419)"><ellipse fill="#dbb76f" fill-opacity="0.501961" cx="0" cy="0" rx="1" ry="1" /></g>
<polygon fill="#ffd576" fill-opacity="0.501961" points="222,110 231,136 218,158" />
<g transform="translate(201 105) rotate(21) scale(25 12)"><rect fill="#ffd27c" fill-opacity="0.501961" x="-0.5" y="-0.5" width="1" height="1" /></g>
<polygon fill="#f2c879" fill-opacity="0.501961" points="159.497244,321.028672,191.816871,331.893018,187.351041,308.866118,145.237679,306.263667" />
<ellipse fill="#ffffde" fill-opacity="0.501961" cx="318" cy="344" rx="5" ry="36" />
<polygon fill="#30343b" fill-opacity="0.501961" points="171,342 201,326 185,447" />
<g transform="translate(142 370) rotate(252) scale(42 12)"><rect fill="#212634" fill-opacity="0.501961" x="-0.5" y="-0.5" width="1" height="1" /></g>
<polygon fill="#ffffdc" fill-opacity="0.501961" points="55.193413,133.138633,62.000779,133.840556,84.799905,136.165848,103.602033,169.429546" />
<ellipse fill="#46494d" fill-opacity="0.501961" cx="226" cy="469" rx="186" ry="24" />
<g transform="translate(169 272) rotate(220) scale(17 20)"><rect fill="#101b32" fill-opacity="0.501961" x="-0.5" y="-0.5" width="1" height="1" /></g>
<polygon fill="#d5b470" fill-opacity="0.501961" points="183,167 204,160 157,135" />
<polygon fill="#858176" fill-opacity="0.501961" points="207,451 205,325 256,417" />
<g transform="translate(90.212258 15.496878) rotate(255.595086) scale(19.340356 43.562637)"><ellipse fill="#3b3c42" fill-opacity="0.501961" cx="0" cy="0" rx="1" ry="1" /></g>
<ellipse fill="#948661" fill-opacity="0.501961" cx="163" cy="410" rx="13" ry="48" />
<polygon fill="#45474a" fill-opacity="0.501961" points="193.737948,300.857627,202.582698,256.562936,221.138292,193.585145,269.211919,445.302477" />
<ellipse fill="#3a3c42" fill-opacity="0.501961" cx="242" cy="150" rx="16" ry="31" />
<g transform="translate(158.094981 171.597589) rotate(157.958352) scale(15.460819 46.858041)"><ellipse fill="#3c3d43" fill-opacity="0.501961" cx="0" cy="0" rx="1" ry="1" /></g>
<polygon fill="#6d7077" fill-opacity="0.501961" points="68,98 25,97 19,188" />
<ellipse fill="#3a3e43" fill-opacity="0.501961" cx="334" cy="254" rx="22" ry="38" />
<polygon fill="#95855f" fill-opacity="0.501961" points="77,96 118,27 137,149" />
<polygon fill="#3e3f46" fill-opacity="0.501961" points="222.009805,49.839507,184.677664,49.064330,244.264635,149.503154,252.252645,112.076231" />
<polygon fill="#cdad68" fill-opacity="0.501961" points="106,51 79,94 50,32" />
<g transform="translate(46.739097 179.808319) rotate(333.624018) scale(8.959763 19.450820)"><ellipse fill="#fff7d4" fill-opacity="0.501961" cx="0" cy="0" rx="1" ry="1" /></g>
<ellipse fill="#fff9ce" fill-opacity="0.501961" cx="261" cy="158" rx="5" ry="26" />
<g transform="translate(131.071709 385.807187) rotate(-33.009683) scale(10.026459 28.535701)"><ellipse fill="#d7b168" fill-opacity="0.501961" cx="0" cy="0" rx="1" ry="1" /></g>
<g transform="translate(89 334) rotate(153) scale(11 47)"><rect fill="#dfb970" fill-opacity="0.501961" x="-0.5" y="-0.5" width="1" height="1" /></g>
<polygon fill="#75777f" fill-opacity="0.501961" points="88,217 12,174 55,229" />
<g transform="translate(119 210) rotate(240) scale(10 58)"><rect fill="#313641" fill-opacity="0.501961" x="-0.5" y="-0.5" width="1" height="1" /></g>
<ellipse fill="#eec67a" fill-opacity="0.501961" cx="186" cy="284" rx="10" ry="10" />
<polygon fill="#444549" fill-opacity="0.501961" points="29,336 77,232 -16,208" />
<g transform="translate(77.524203 105.990723) rotate(148.491504) scale(8.557102 70.168490)"><ellipse fill="#4c5059" fill-opacity="0.501961" cx="0" cy="0" rx="1" ry="1" /></g>
<polygon fill="#d2b26b" fill-opacity="0.501961" points="101,258 122,308 134,276" />
<g transform="translate(231.632806 58.016507) rotate(335.330106) scale(3.943214 20.150588)"><ellipse fill="#fff4d3" fill-opacity="0.501961" cx="0" cy="0" rx="1" ry="1" /></g>
<polygon fill="#bda269" fill-opacity="0.501961" points="62.575319,283.076228,162.638948,204.210568,118.723224,226.213936,73.713223,234.635946" />
<polygon fill="#393c43" fill-opacity="0.501961" points="208.306275,407.140823,172.599690,459.064928,181.874311,392.415445,205.481916,394.572465" />
<polygon fill="#4f4e4f" fill-opacity="0.501961" points="-6,482 2,276 187,483" />
<polygon fill="#ffe9c2" fill-opacity="0.501961" points="290.929944,203.442484,253.214150,165.152108,260.111125,185.332127,276.307515,195.197296" />
<polygon fill="#595b57" fill-opacity="0.501961" points="183,248 151,247 222,218" />
<ellipse fill="#2b2d3a" fill-opacity="0.501961" cx="68" cy="162" rx="15" ry="15" />
<rect fill="#82827f" fill-opacity="0.501961" x="106" y="459" width="45" height="13" />
<rect fill="#deb76e" fill-opacity="0.501961" x="140" y="252" width="66" height="7" />
<polygon fill="#cbab6d" fill-opacity="0.501961" points="186.742478,53.063964,120.258738,127.982423,186.514360,10.989957,229.640750,16.356926" />
<g transform="translate(252.643990 189.872789) rotate(227.239048) scale(45.202581 11.566439)"><ellipse fill="#47484a" fill-opacity="0.501961" cx="0" cy="0" rx="1" ry="1" /></g>
<g transform="translate(206 2) rotate(186) scale(86 20)"><rect fill="#3b3e44" fill-opacity="0.501961" x="-0.5" y="-0.5" width="1" height="1" /></g>
<g transform="translate(154 282) rotate(246) scale(21 16)"><rect fill="#d0b072" fill-opacity="0.501961" x="-0.5" y="-0.5" width="1" height="1" /></g>
<g transform="translate(288 209) rotate(58) scale(52 6)"><rect fill="#fff9cf" fill-opacity="0.501961" x="-0.5" y="-0.5" width="1" height="1" /></g>
<rect fill="#ccab6b" fill-opacity="0.501961" x="161" y="116" width="15" height="35" />
<polygon fill="#737375" fill-opacity="0.501961" points="45.284497,74.611346,104.691116,142.722607,63.691664,132.055371,31.551096,152.013809" />
<g transform="translate(25.296334 177.066575) rotate(-18.179010) scale(10.781937 37.819906)"><ellipse fill="#5f5f60" fill-opacity="0.501961" cx="0" cy="0" rx="1" ry="1" /></g>
<polygon fill="#404044" fill-opacity="0.501961" points="156,91 207,44 136,157" />
<polygon fill="#fffcd7" fill-opacity="0.501961" points="71,201 50,181 93,192" />
<ellipse fill="#4b4b49" fill-opacity="0.501961" cx="285" cy="401" rx="30" ry="178" />
<polygon fill="#747477" fill-opacity="0.501961" points="208,295 238,393 194,389" />
<polygon fill="#4c4c4b" fill-opacity="0.501961" points="350.104437,-16.000000,233.262956,36.407680,231.549112,49.317696,310.287677,186.785776" />
<ellipse fill="#fff6cc" fill-opacity="0.501961" cx="321" cy="396" rx="4" ry="36" />
<polygon fill="#fffed6" fill-opacity="0.501961" points="256.932891,120.195661,259.905048,109.645186,255.311238,98.357101,237.079614,58.491312" />
<polygon fill="#fff4cb" fill-opacity="0.501961" points="325.710245,377.201203,312.734487,323.402429,309.510009,294.135509,314.939505,270.714593" />
<polygon fill="#4d4c4a" fill-opacity="0.501961" points="193.171606,96.746944,209.700048,90.318521,212.646384,26.845313,145.982271,109.142355" />
<polygon fill="#deb96e" fill-opacity="0.501961" points="217,216 142,244 174,219" />
<g transform="translate(329 440) rotate(259) scale(19 7)"><rect fill="#ffffeb" fill-opacity="0.501961" x="-0.5" y="-0.5" width="1" height="1" /></g>
<polygon fill="#3a3c41" fill-opacity="0.501961" points="125.440196,163.972036,154.433490,144.578880,123.889355,142.553065,56.308813,76.403308" />
<rect fill="#737376" fill-opacity="0.501961" x="35" y="201" width="71" height="16" />
</g>
</svg>