<svg xmlns="http://www.w3.org/2000/svg" version="1.1" width="1024" height="828">
<rect x="0" y="0" width="1024" height="828" fill="#7c858d" />
<g transform="scale(4.000000) translate(0.5 0.5)">
<path stroke="#fcffff" stroke-opacity="0.501961" fill="none" d="M 155.640591 12.155066 Q 258.932027 35.456365, 247.051944 222.000000" stroke-width="0.500000" />
<path stroke="#f9ffff" stroke-opacity="0.501961" fill="none" d="M 40.613224 59.849501 Q 165.003386 -16.000000, 243.033451 65.012128" stroke-width="0.500000" />
<path stroke="#fdffff" stroke-opacity="0.501961" fill="none" d="M 36.911009 54.001614 Q 179.600558 -15.783438, 249.225519 77.903040" stroke-width="0.500000" />
<path stroke="#f6ffff" stroke-opacity="0.501961" fill="none" d="M 125.610873 13.021800 Q 261.370944 10.829574, 248.448097 207.443710" stroke-width="0.500000" />
<path stroke="#f0fbff" stroke-opacity="0.501961" fill="none" d="M 160.012587 11.925701 Q 270.205575 47.135740, 243.252817 215.100453" stroke-width="0.500000" />
<path stroke="#000100" stroke-opacity="0.501961" fill="none" d="M 103.592441 190.887734 Q 131.279547 135.402770, 164.305661 68.224552" stroke-width="0.500000" />
<path stroke="#040e04" stroke-opacity="0.501961" fill="none" d="M 102.532398 191.264440 Q 161.673346 116.253871, 151.284049 27.164850" stroke-width="0.500000" />
<path stroke="#000000" stroke-opacity="0.501961" fill="none" d="M 131.772861 173.460440 Q 119.217598 84.116776, 169.684513 90.115896" stroke-width="0.500000" />
<path stroke="#11170d" stroke-opacity="0.501961" fill="none" d="M 43.803064 195.310416 Q 151.533859 222.000000, 143.644258 29.255602" stroke-width="0.500000" />
<path stroke="#f6ffff" stroke-opacity="0.501961" fill="none" d="M 166.501009 25.432248 Q 257.431916 22.555458, 243.150227 213.057110" stroke-width="0.500000" />
<path stroke="#000b02" stroke-opacity="0.501961" fill="none" d="M 45.557463 67.214723 Q 132.431102 161.661672, 116.875344 177.925247" stroke-width="0.500000" />
<path stroke="#000703" stroke-opacity="0.501961" fill="none" d="M 120.179251 73.332287 Q 173.632175 2.187912, 219.806099 90.818284" stroke-width="0.500000" />
<path stroke="#080e03" stroke-opacity="0.501961" fill="none" d="M 146.469633 32.998953 Q 151.891024 169.145313, 105.657080 185.409018" stroke-width="0.500000" />
<path stroke="#faffff" stroke-opacity="0.501961" fill="none" d="M 104.071587 32.371132 Q 137.596882 -16.000000, 245.043278 64.317189" stroke-width="0.500000" />
<path stroke="#e9f4ff" stroke-opacity="0.501961" fill="none" d="M 161.280762 120.834552 Q 157.082327 222.000000, -9.497996 203.261737" stroke-width="0.500000" />
<path stroke="#000807" stroke-opacity="0.501961" fill="none" d="M 130.053092 176.283380 Q 137.677296 74.347010, 153.168256 26.156625" stroke-width="0.500000" />
<path stroke="#f3ffff" stroke-opacity="0.501961" fill="none" d="M 243.717297 219.567299 Q 268.597219 73.821751, 218.608834 52.026862" stroke-width="0.500000" />
<path stroke="#f6ffff" stroke-opacity="0.501961" fill="none" d="M -1.380701 199.210057 Q 107.724496 222.000000, 142.468557 173.173152" stroke-width="0.500000" />
<path stroke="#000000" stroke-opacity="0.501961" fill="none" d="M 132.036542 51.758006 Q 166.045852 20.821354, 232.558943 86.608742" stroke-width="0.500000" />
<path stroke="#000700" stroke-opacity="0.501961" fill="none" d="M 108.890600 188.073096 Q 138.128853 161.529398, 59.684924 96.834426" stroke-width="0.500000" />
<path stroke="#fdffff" stroke-opacity="0.501961" fill="none" d="M 75.560887 58.131851 Q 158.134071 -16.000000, 198.079562 41.935016" stroke-width="0.500000" />
<path stroke="#feffff" stroke-opacity="0.501961" fill="none" d="M 26.202695 90.401430 Q 33.482068 28.690670, 134.278447 37.603150" stroke-width="0.500000" />
<path stroke="#ecfeff" stroke-opacity="0.501961" fill="none" d="M 196.265369 78.054264 Q 156.023028 136.637829, 127.719481 197.248918" stroke-width="0.500000" />
<path stroke="#f9ffff" stroke-opacity="0.501961" fill="none" d="M 119.832842 16.362117 Q 228.837188 30.106191, 271.000000 112.366599" stroke-width="0.500000" />
<path stroke="#f0feff" stroke-opacity="0.501961" fill="none" d="M 254.600926 83.466416 Q 176.009277 -10.246735, 76.151900 46.314550" stroke-width="0.500000" />
<path stroke="#f3f9ff" stroke-opacity="0.501961" fill="none" d="M 250.129798 205.536461 Q 217.064748 202.259495, 242.487548 66.062190" stroke-width="0.500000" />
<path stroke="#edf9ff" stroke-opacity="0.501961" fill="none" d="M 248.288061 222.000000 Q 247.820248 125.283426, 222.872495 43.347516" stroke-width="0.500000" />
<path stroke="#0b1600" stroke-opacity="0.501961" fill="none" d="M 162.521163 73.539035 Q 138.471178 173.655457, 61.251704 109.325881" stroke-width="0.500000" />
<path stroke="#e7ebff" stroke-opacity="0.501961" fill="none" d="M 149.306684 204.617731 Q 271.000000 222.000000, 233.289589 105.994715" stroke-width="0.500000" />
<path stroke="#f5ffff" stroke-opacity="0.501961" fill="none" d="M 160.974477 16.334692 Q 28.057889 37.175629, 23.438293 90.921589" stroke-width="0.500000" />
<path stroke="#020807" stroke-opacity="0.501961" fill="none" d="M 121.193849 65.971731 Q 173.835506 3.344489, 219.147284 85.521335" stroke-width="0.500000" />
<path stroke="#0d150e" stroke-opacity="0.501961" fill="none" d="M 149.761614 28.249169 Q 138.166912 164.608630, 93.544213 196.005113" stroke-width="0.500000" />
<path stroke="#1c2921" stroke-opacity="0.501961" fill="none" d="M 125.205991 173.844779 Q 122.090392 150.788178, -0.270474 21.602303" stroke-width="0.500000" />
<path stroke="#010804" stroke-opacity="0.501961" fill="none" d="M 132.760483 170.317969 Q 139.965859 80.525636, 143.590721 34.705121" stroke-width="0.500000" />
<path stroke="#ebf7ff" stroke-opacity="0.501961" fill="none" d="M 241.273765 208.326318 Q 271.000000 74.397593, 202.481359 33.909323" stroke-width="0.500000" />
<path stroke="#0e1600" stroke-opacity="0.501961" fill="none" d="M 59.505297 96.375453 Q 109.588716 168.453561, 167.359424 93.252617" stroke-width="0.500000" />
<path stroke="#e0e3f8" stroke-opacity="0.501961" fill="none" d="M 101.172998 206.257190 Q 200.864821 110.797338, 259.026104 214.178240" stroke-width="0.500000" />
<path stroke="#f0f8ff" stroke-opacity="0.501961" fill="none" d="M 253.774490 207.049674 Q 204.885532 182.490558, 271.000000 57.276764" stroke-width="0.500000" />
<path stroke="#e9f4ff" stroke-opacity="0.501961" fill="none" d="M 246.371254 73.631751 Q 189.096002 -8.098787, 55.732598 53.841788" stroke-width="0.500000" />
<path stroke="#000401" stroke-opacity="0.501961" fill="none" d="M 132.375175 41.827551 Q 226.596336 42.809179, 214.889218 92.459429" stroke-width="0.500000" />
<path stroke="#ffffff" stroke-opacity="0.501961" fill="none" d="M 230.488691 218.352265 Q 266.094250 140.144155, 223.683668 126.189889" stroke-width="0.500000" />
<path stroke="#09140b" stroke-opacity="0.501961" fill="none" d="M 37.591664 72.192696 Q 70.160625 57.155243, 114.463156 179.900699" stroke-width="0.500000" />
<path stroke="#ffffff" stroke-opacity="0.501961" fill="none" d="M 59.408195 57.770007 Q 111.665425 41.243051, 156.625304 9.980542" stroke-width="0.500000" />
<path stroke="#e0eeff" stroke-opacity="0.501961" fill="none" d="M 194.741247 65.440473 Q 131.268630 209.790892, 99.335712 201.993551" stroke-width="0.500000" />
<path stroke="#ffffff" stroke-opacity="0.501961" fill="none" d="M -12.063889 222.000000 Q -5.108623 182.701588, 58.075350 207.235498" stroke-width="0.500000" />
<path stroke="#000000" stroke-opacity="0.501961" fill="none" d="M 134.710406 67.794604 Q 159.049151 19.705210, 219.145500 76.541586" stroke-width="0.500000" />
<path stroke="#08120d" stroke-opacity="0.501961" fill="none" d="M 50.259782 66.479207 Q 88.939425 110.362541, 129.731348 174.844314" stroke-width="0.500000" />
<path stroke="#000000" stroke-opacity="0.501961" fill="none" d="M 164.933275 93.139573 Q 122.061612 85.604044, 131.666432 156.250263" stroke-width="0.500000" />
<path stroke="#e9f1ff" stroke-opacity="0.501961" fill="none" d="M 247.295151 65.981823 Q 206.657446 191.723131, 255.815350 208.038634" stroke-width="0.500000" />
<path stroke="#37432e" stroke-opacity="0.501961" fill="none" d="M 31.518238 3.788132 Q 215.217313 -16.000000, 246.875870 41.470702" stroke-width="0.500000" />
<path stroke="#ecfcff" stroke-opacity="0.501961" fill="none" d="M -16.000000 207.315163 Q 60.838309 207.860501, 92.965762 137.102033" stroke-width="0.500000" />
<path stroke="#ffffff" stroke-opacity="0.501961" fill="none" d="M 221.371983 132.347597 Q 269.842359 137.259905, 239.604719 204.109142" stroke-width="0.500000" />
<path stroke="#384432" stroke-opacity="0.501961" fill="none" d="M 0.300381 89.928974 Q 30.763914 -16.000000, 266.758169 15.194829" stroke-width="0.500000" />
<path stroke="#000301" stroke-opacity="0.501961" fill="none" d="M 68.668689 72.385939 Q 23.347290 74.379357, 25.743000 151.005150" stroke-width="0.500000" />
<path stroke="#d9e5fa" stroke-opacity="0.501961" fill="none" d="M 65.906322 64.694813 Q 148.221345 -16.000000, 228.957493 51.179236" stroke-width="0.500000" />
<path stroke="#dde7fc" stroke-opacity="0.501961" fill="none" d="M 44.979585 54.415434 Q 178.255514 -8.922959, 236.689427 71.530744" stroke-width="0.500000" />
<path stroke="#000e00" stroke-opacity="0.501961" fill="none" d="M 126.286396 176.545538 Q 99.489209 130.934268, 63.428288 101.347308" stroke-width="0.500000" />
<path stroke="#121b04" stroke-opacity="0.501961" fill="none" d="M 64.930812 111.287161 Q 140.104140 170.595427, 162.314014 68.053457" stroke-width="0.500000" />
<path stroke="#0b190a" stroke-opacity="0.501961" fill="none" d="M 172.497446 90.100837 Q 83.647205 130.052896, 57.514401 98.150536" stroke-width="0.500000" />
<path stroke="#ecffff" stroke-opacity="0.501961" fill="none" d="M 171.939562 54.018591 Q 216.543179 101.203948, 146.960106 127.091203" stroke-width="0.500000" />
<path stroke="#000000" stroke-opacity="0.501961" fill="none" d="M 165.776586 88.286958 Q 118.546435 89.265880, 141.074833 150.710944" stroke-width="0.500000" />
<path stroke="#ffffff" stroke-opacity="0.501961" fill="none" d="M 225.388399 126.298898 Q 264.265573 135.942108, 234.595988 215.711116" stroke-width="0.500000" />
<path stroke="#394935" stroke-opacity="0.501961" fill="none" d="M 271.000000 8.679003 Q -4.717206 -16.000000, 17.629197 128.896056" stroke-width="0.500000" />
<path stroke="#172315" stroke-opacity="0.501961" fill="none" d="M 174.406737 95.098076 Q 67.284104 149.757120, 48.901687 72.270839" stroke-width="0.500000" />
<path stroke="#0b1210" stroke-opacity="0.501961" fill="none" d="M 131.069371 53.333426 Q 192.301923 9.585268, 223.597725 115.133274" stroke-width="0.500000" />
<path stroke="#edf8ff" stroke-opacity="0.501961" fill="none" d="M -8.136576 195.281373 Q 98.362078 222.000000, 147.238449 173.194281" stroke-width="0.500000" />
<path stroke="#000000" stroke-opacity="0.501961" fill="none" d="M 163.274923 30.629797 Q 112.449635 61.930352, 170.145475 101.395505" stroke-width="0.500000" />
<path stroke="#ffffff" stroke-opacity="0.501961" fill="none" d="M 234.459042 210.741686 Q 271.000000 183.582932, 225.787432 122.201534" stroke-width="0.500000" />
<path stroke="#dde5f8" stroke-opacity="0.501961" fill="none" d="M 231.911731 46.666680 Q 267.658243 189.317811, 184.729998 207.838277" stroke-width="0.500000" />
<path stroke="#f0fdff" stroke-opacity="0.501961" fill="none" d="M 87.431589 142.828074 Q 61.054070 222.000000, -16.000000 200.367420" stroke-width="0.500000" />
<path stroke="#131a01" stroke-opacity="0.501961" fill="none" d="M 172.311881 90.291836 Q 102.419813 152.819387, 60.014701 104.597013" stroke-width="0.500000" />
<path stroke="#010502" stroke-opacity="0.501961" fill="none" d="M 223.538914 76.740999 Q 155.314349 14.474626, 129.617364 57.573836" stroke-width="0.500000" />
<path stroke="#f7ffff" stroke-opacity="0.501961" fill="none" d="M -4.364931 203.222080 Q 269.169505 222.000000, 271.000000 177.355806" stroke-width="0.500000" />
<path stroke="#e8f2ff" stroke-opacity="0.501961" fill="none" d="M 227.307350 189.803398 Q 266.978278 65.908330, 222.945190 48.074527" stroke-width="0.500000" />
<path stroke="#e1ebff" stroke-opacity="0.501961" fill="none" d="M 206.532975 35.284037 Q 247.507930 56.121107, 235.177150 208.963258" stroke-width="0.500000" />
<path stroke="#dce5fc" stroke-opacity="0.501961" fill="none" d="M 153.999562 196.147103 Q -3.699880 222.000000, -6.598719 167.481087" stroke-width="0.500000" />
<path stroke="#e7f2ff" stroke-opacity="0.501961" fill="none" d="M 152.681086 -6.782694 Q 137.096473 49.887400, 47.561588 51.082077" stroke-width="0.500000" />
<path stroke="#252f29" stroke-opacity="0.501961" fill="none" d="M 119.443602 185.815757 Q 141.569680 140.775138, -16.000000 22.361253" stroke-width="0.500000" />
<path stroke="#000100" stroke-opacity="0.501961" fill="none" d="M 129.177379 168.122720 Q 135.523126 87.950475, 167.784601 90.643453" stroke-width="0.500000" />
<path stroke="#17231c" stroke-opacity="0.501961" fill="none" d="M 127.318541 41.748721 Q 179.921917 89.941398, 109.924219 188.957975" stroke-width="0.500000" />
<path stroke="#eafcff" stroke-opacity="0.501961" fill="none" d="M 102.088437 168.909306 Q 39.526035 124.845599, 38.651343 108.682971" stroke-width="0.500000" />
<path stroke="#ffffff" stroke-opacity="0.501961" fill="none" d="M 62.119494 211.655813 Q 7.742976 170.074872, -7.120168 222.000000" stroke-width="0.500000" />
<path stroke="#e3f9ff" stroke-opacity="0.501961" fill="none" d="M 163.930421 54.598664 Q 213.502572 88.012569, 153.080863 136.912752" stroke-width="0.500000" />
<path stroke="#242218" stroke-opacity="0.501961" fill="none" d="M 145.341864 94.170218 Q 137.622634 222.000000, 34.555852 181.874869" stroke-width="0.500000" />
<path stroke="#0a1213" stroke-opacity="0.501961" fill="none" d="M 25.243370 144.108024 Q 15.168261 81.700595, 79.811985 69.931858" stroke-width="0.500000" />
<path stroke="#e4eeff" stroke-opacity="0.501961" fill="none" d="M 21.537244 108.762162 Q 20.885606 34.472897, 135.876460 38.889139" stroke-width="0.500000" />
<path stroke="#cfd7ea" stroke-opacity="0.501961" fill="none" d="M 244.409427 65.102755 Q 271.000000 135.735476, 99.113001 196.260608" stroke-width="0.500000" />
<path stroke="#f0ffff" stroke-opacity="0.501961" fill="none" d="M -4.430659 184.546918 Q 10.325837 220.430992, 248.949178 203.959098" stroke-width="0.500000" />
<path stroke="#0a1001" stroke-opacity="0.501961" fill="none" d="M 61.637336 98.645644 Q 121.240444 133.500076, 102.051657 188.126220" stroke-width="0.500000" />
<path stroke="#000400" stroke-opacity="0.501961" fill="none" d="M 134.850884 98.963559 Q 153.624193 171.773901, 98.726755 177.344235" stroke-width="0.500000" />
<path stroke="#dde6fd" stroke-opacity="0.501961" fill="none" d="M 116.648443 30.011642 Q 247.671410 -16.000000, 251.282795 199.235379" stroke-width="0.500000" />
<path stroke="#eff7ff" stroke-opacity="0.501961" fill="none" d="M 250.653681 106.829660 Q 212.422140 190.979552, 265.205180 211.392248" stroke-width="0.500000" />
<path stroke="#f7ffff" stroke-opacity="0.501961" fill="none" d="M 255.511034 203.946041 Q 220.490974 151.399005, 186.690945 209.109450" stroke-width="0.500000" />
<path stroke="#eaf2ff" stroke-opacity="0.501961" fill="none" d="M 109.626076 71.198176 Q 96.178703 0.262111, 180.755648 18.790029" stroke-width="0.500000" />
<path stroke="#1a2223" stroke-opacity="0.501961" fill="none" d="M 64.840281 70.025064 Q -16.000000 119.559001, 70.032735 222.000000" stroke-width="0.500000" />
<path stroke="#e9fbff" stroke-opacity="0.501961" fill="none" d="M 93.797869 156.366334 Q 31.924276 126.540765, 52.455263 93.251220" stroke-width="0.500000" />
<path stroke="#e8f6ff" stroke-opacity="0.501961" fill="none" d="M 181.934639 98.477772 Q 115.462375 197.104871, 130.903652 211.461015" stroke-width="0.500000" />
<path stroke="#ddf0ff" stroke-opacity="0.501961" fill="none" d="M 42.752437 48.347433 Q 146.529205 11.389062, 160.644744 15.283494" stroke-width="0.500000" />
<path stroke="#ffffff" stroke-opacity="0.501961" fill="none" d="M -16.000000 205.945012 Q -10.721793 181.739217, 47.450471 202.519869" stroke-width="0.500000" />
<path stroke="#3f4935" stroke-opacity="0.501961" fill="none" d="M 255.648997 39.502040 Q 240.571674 3.176163, 29.641282 4.878614" stroke-width="0.500000" />
<path stroke="#000000" stroke-opacity="0.501961" fill="none" d="M 131.994254 150.583884 Q 127.090644 83.734649, 169.159542 94.676589" stroke-width="0.500000" />
<path stroke="#0d1312" stroke-opacity="0.501961" fill="none" d="M 93.125178 193.234545 Q 165.545701 162.420733, 129.995770 98.232803" stroke-width="0.500000" />
<path stroke="#17210d" stroke-opacity="0.501961" fill="none" d="M 62.668403 119.564623 Q 92.819221 115.733825, 177.601488 99.671115" stroke-width="0.500000" />
<path stroke="#3d4937" stroke-opacity="0.501961" fill="none" d="M 240.069936 1.809632 Q -16.000000 0.829965, 1.700555 105.103824" stroke-width="0.500000" />
<path stroke="#d8e7ff" stroke-opacity="0.501961" fill="none" d="M 123.866962 197.806787 Q 204.378673 80.262594, 180.937677 55.417162" stroke-width="0.500000" />
<path stroke="#050e0d" stroke-opacity="0.501961" fill="none" d="M 75.363627 78.851924 Q 19.350644 66.033832, 28.069911 140.002289" stroke-width="0.500000" />
<path stroke="#030e09" stroke-opacity="0.501961" fill="none" d="M 136.571381 46.408141 Q 183.900726 14.707835, 217.975284 92.381629" stroke-width="0.500000" />
<path stroke="#ddeeff" stroke-opacity="0.501961" fill="none" d="M 148.971659 138.446223 Q 206.776987 81.567038, 160.543181 53.770844" stroke-width="0.500000" />
<path stroke="#cdd8ef" stroke-opacity="0.501961" fill="none" d="M 208.129528 215.681464 Q 127.273419 207.995543, 32.770868 111.500819" stroke-width="0.500000" />
<path stroke="#e2ebfe" stroke-opacity="0.501961" fill="none" d="M 190.691048 22.359185 Q 105.394893 -13.560232, 109.082520 79.821142" stroke-width="0.500000" />
<path stroke="#171e05" stroke-opacity="0.501961" fill="none" d="M 65.254620 123.469682 Q 166.758185 115.263120, 170.767537 92.103756" stroke-width="0.500000" />
<path stroke="#ffffff" stroke-opacity="0.501961" fill="none" d="M 258.585577 202.190632 Q 205.514304 152.013490, 187.521993 222.000000" stroke-width="0.500000" />
<path stroke="#000c07" stroke-opacity="0.501961" fill="none" d="M 133.545878 52.891107 Q 205.737288 25.783617, 217.825225 88.788915" stroke-width="0.500000" />
<path stroke="#29352f" stroke-opacity="0.501961" fill="none" d="M 139.063921 140.037856 Q 111.419679 -16.000000, 253.587553 10.691069" stroke-width="0.500000" />
<path stroke="#e6f4ff" stroke-opacity="0.501961" fill="none" d="M 86.983915 53.645956 Q 173.191577 -16.000000, 248.406782 73.890492" stroke-width="0.500000" />
<path stroke="#ffffff" stroke-opacity="0.501961" fill="none" d="M 21.296260 161.647751 Q 38.521381 213.821778, -16.000000 204.371321" stroke-width="0.500000" />
<path stroke="#111909" stroke-opacity="0.501961" fill="none" d="M 123.510369 182.414600 Q 82.514120 109.249173, 59.713477 104.729683" stroke-width="0.500000" />
<path stroke="#e4edff" stroke-opacity="0.501961" fill="none" d="M 119.987433 49.876129 Q 21.586763 26.381944, 24.015468 103.575170" stroke-width="0.500000" />
<path stroke="#faffff" stroke-opacity="0.501961" fill="none" d="M 91.931310 142.564237 Q 68.165092 158.891915, 37.430625 117.448912" stroke-width="0.500000" />
<path stroke="#0b1507" stroke-opacity="0.501961" fill="none" d="M 171.454739 98.337278 Q 124.438070 109.734295, 59.301242 114.572185" stroke-width="0.500000" />
<path stroke="#ffffff" stroke-opacity="0.501961" fill="none" d="M 260.681218 222.000000 Q 198.203278 178.244915, 271.000000 133.216650" stroke-width="0.500000" />
<path stroke="#ffffff" stroke-opacity="0.501961" fill="none" d="M 247.787199 180.310993 Q 265.738722 128.392647, 215.358731 135.834270" stroke-width="0.500000" />
<path stroke="#ffffff" stroke-opacity="0.501961" fill="none" d="M 48.122236 205.515935 Q 15.806930 171.249407, -2.847077 207.671773" stroke-width="0.500000" />
<path stroke="#232322" stroke-opacity="0.501961" fill="none" d="M 64.372737 212.327489 Q 84.896496 166.516278, 195.801445 152.178848" stroke-width="0.500000" />
<path stroke="#2b352a" stroke-opacity="0.501961" fill="none" d="M 148.243314 117.966393 Q 117.428994 -16.000000, 249.593557 17.620704" stroke-width="0.500000" />
<path stroke="#f4ffff" stroke-opacity="0.501961" fill="none" d="M 89.023153 164.104614 Q 95.860917 152.132624, 37.852552 120.120613" stroke-width="0.500000" />
<path stroke="#000200" stroke-opacity="0.501961" fill="none" d="M 133.907576 62.895671 Q 173.872032 92.672385, 165.243999 116.307994" stroke-width="0.500000" />
<path stroke="#dfeafc" stroke-opacity="0.501961" fill="none" d="M 19.857903 108.387167 Q 26.666973 20.055195, 123.063097 43.004540" stroke-width="0.500000" />
<path stroke="#e6f7ff" stroke-opacity="0.501961" fill="none" d="M 143.346260 125.262843 Q 209.362676 113.125091, 166.258709 58.176884" stroke-width="0.500000" />
<path stroke="#000000" stroke-opacity="0.501961" fill="none" d="M 129.312675 122.586854 Q 136.298908 78.094435, 170.804095 99.622083" stroke-width="0.500000" />
<path stroke="#3b4b39" stroke-opacity="0.501961" fill="none" d="M 6.128324 91.997126 Q 54.772419 -16.000000, 267.230607 14.087082" stroke-width="0.500000" />
<path stroke="#111c02" stroke-opacity="0.501961" fill="none" d="M 67.599702 116.109904 Q 131.511520 155.803654, 107.422973 188.604220" stroke-width="0.500000" />
<path stroke="#061113" stroke-opacity="0.501961" fill="none" d="M 68.787862 76.979410 Q 33.782246 66.747702, 22.826670 143.745386" stroke-width="0.500000" />
<path stroke="#fdffff" stroke-opacity="0.501961" fill="none" d="M 2.416590 197.162334 Q 23.298595 170.808403, 48.091372 204.838503" stroke-width="0.500000" />
<path stroke="#d5e3f7" stroke-opacity="0.501961" fill="none" d="M 249.861947 76.211609 Q 133.988841 -16.000000, 80.960858 48.100309" stroke-width="0.500000" />
<path stroke="#f2f8ff" stroke-opacity="0.501961" fill="none" d="M 193.268558 208.826809 Q 216.312259 148.564581, 271.000000 149.730875" stroke-width="0.500000" />
<path stroke="#effaff" stroke-opacity="0.501961" fill="none" d="M 138.495591 197.598188 Q 50.543571 222.000000, -16.000000 187.468871" stroke-width="0.500000" />
<path stroke="#3e4937" stroke-opacity="0.501961" fill="none" d="M -1.374137 60.315237 Q 70.811066 -12.577295, 265.978864 7.174799" stroke-width="0.500000" />
<path stroke="#000806" stroke-opacity="0.501961" fill="none" d="M 210.998238 88.688382 Q 211.302622 31.897058, 144.491318 50.307656" stroke-width="0.500000" />
<path stroke="#e4e9ff" stroke-opacity="0.501961" fill="none" d="M 156.174566 205.383443 Q 263.138610 222.000000, 238.785967 120.898632" stroke-width="0.500000" />
<path stroke="#000000" stroke-opacity="0.501961" fill="none" d="M 79.607315 98.036196 Q 61.127739 107.850265, 82.690451 140.040721" stroke-width="0.500000" />
<path stroke="#d9edff" stroke-opacity="0.501961" fill="none" d="M 55.309196 84.285007 Q 17.932071 124.850407, 92.357714 157.511716" stroke-width="0.500000" />
<path stroke="#f9ffff" stroke-opacity="0.501961" fill="none" d="M 251.189975 201.782498 Q 223.629137 199.700202, 232.516393 111.070454" stroke-width="0.500000" />
<path stroke="#091718" stroke-opacity="0.501961" fill="none" d="M 139.318152 33.611686 Q 161.614886 29.912707, 228.945714 84.402905" stroke-width="0.500000" />
<path stroke="#effbff" stroke-opacity="0.501961" fill="none" d="M 89.461956 50.065996 Q 162.188277 -16.000000, 205.743054 40.392174" stroke-width="0.500000" />
<path stroke="#e5f4ff" stroke-opacity="0.501961" fill="none" d="M 218.072202 50.154891 Q 271.000000 71.694330, 243.180687 208.029830" stroke-width="0.500000" />
<path stroke="#ffffff" stroke-opacity="0.501961" fill="none" d="M -4.036066 202.569997 Q 33.939122 204.158193, 21.207029 164.762214" stroke-width="0.500000" />
<path stroke="#ffffff" stroke-opacity="0.501961" fill="none" d="M 45.914794 202.516959 Q 7.625598 217.141990, 7.377601 183.431322" stroke-width="0.500000" />
<path stroke="#e0e7ff" stroke-opacity="0.501961" fill="none" d="M 254.960457 125.627778 Q 257.127022 216.546930, 188.302209 201.446247" stroke-width="0.500000" />
<path stroke="#e5edfe" stroke-opacity="0.501961" fill="none" d="M 138.370799 12.862307 Q 121.595304 62.859488, 40.788083 47.662790" stroke-width="0.500000" />
<path stroke="#1b251b" stroke-opacity="0.501961" fill="none" d="M 75.550034 96.741771 Q 101.774605 190.822491, 173.261368 153.298296" stroke-width="0.500000" />
<path stroke="#ffffff" stroke-opacity="0.501961" fill="none" d="M 54.757408 217.922596 Q 23.158898 168.572975, -4.467561 209.200447" stroke-width="0.500000" />
<path stroke="#3f4c3d" stroke-opacity="0.501961" fill="none" d="M 2.577207 86.656065 Q 3.482847 5.418565, 259.797330 1.325415" stroke-width="0.500000" />
<path stroke="#2a3330" stroke-opacity="0.501961" fill="none" d="M 24.912340 222.000000 Q 198.253828 160.980932, 135.904705 42.538832" stroke-width="0.500000" />
<path stroke="#efffff" stroke-opacity="0.501961" fill="none" d="M 37.180403 133.517378 Q 91.757607 132.264631, 85.987147 169.931675" stroke-width="0.500000" />
<path stroke="#434d3c" stroke-opacity="0.501961" fill="none" d="M 7.085357 54.007660 Q 58.663535 -8.210137, 252.072909 3.345677" stroke-width="0.500000" />
<path stroke="#d4ddf2" stroke-opacity="0.501961" fill="none" d="M 55.559292 222.000000 Q 198.783039 146.274143, 242.186836 130.347396" stroke-width="0.500000" />
<path stroke="#eaecff" stroke-opacity="0.501961" fill="none" d="M 153.844113 124.810639 Q 189.736121 207.136227, 60.709032 222.000000" stroke-width="0.500000" />
<path stroke="#eef4ff" stroke-opacity="0.501961" fill="none" d="M 111.704605 55.938274 Q 125.796734 -15.784572, 202.611096 34.483896" stroke-width="0.500000" />
<path stroke="#434e3d" stroke-opacity="0.501961" fill="none" d="M 25.870436 12.743391 Q 195.410616 -6.052963, 271.000000 45.469592" stroke-width="0.500000" />
<path stroke="#f1fdff" stroke-opacity="0.501961" fill="none" d="M 228.082753 119.863618 Q 270.363315 192.603644, 245.157686 206.804516" stroke-width="0.500000" />
<path stroke="#ccd2e8" stroke-opacity="0.501961" fill="none" d="M 77.666042 141.180543 Q 73.287411 221.218361, 259.838482 195.464918" stroke-width="0.500000" />
<path stroke="#000000" stroke-opacity="0.501961" fill="none" d="M 86.681288 138.762401 Q 54.577167 119.425314, 74.987883 93.773655" stroke-width="0.500000" />
<path stroke="#29282b" stroke-opacity="0.501961" fill="none" d="M 57.932542 196.358775 Q 106.031014 187.871939, 186.778187 148.141888" stroke-width="0.500000" />
<path stroke="#000000" stroke-opacity="0.501961" fill="none" d="M 101.202338 153.007246 Q 107.118365 105.026313, 75.615571 111.957660" stroke-width="0.500000" />
<path stroke="#ecf7ff" stroke-opacity="0.501961" fill="none" d="M 238.132787 63.409438 Q 143.765504 -16.000000, 109.629801 28.809915" stroke-width="0.500000" />
<path stroke="#cedbf3" stroke-opacity="0.501961" fill="none" d="M 179.264331 53.370913 Q 204.306959 92.374727, 123.334636 199.916122" stroke-width="0.500000" />
<path stroke="#222a22" stroke-opacity="0.501961" fill="none" d="M 153.906954 91.419007 Q 113.461873 201.327333, 60.814255 197.128417" stroke-width="0.500000" />
<path stroke="#040b02" stroke-opacity="0.501961" fill="none" d="M 164.228249 98.479148 Q 111.458165 58.690982, 164.403463 32.357779" stroke-width="0.500000" />
<path stroke="#0b1600" stroke-opacity="0.501961" fill="none" d="M 59.932393 99.694176 Q 113.790087 110.172101, 98.435266 158.979579" stroke-width="0.500000" />
<path stroke="#424f3f" stroke-opacity="0.501961" fill="none" d="M 271.000000 8.246521 Q 4.536139 -16.000000, 11.413705 117.509274" stroke-width="0.500000" />
<path stroke="#e3efff" stroke-opacity="0.501961" fill="none" d="M 27.575272 73.461169 Q 71.727750 14.675482, 137.768192 38.519257" stroke-width="0.500000" />
<path stroke="#272f33" stroke-opacity="0.501961" fill="none" d="M 55.420501 197.935418 Q -16.000000 106.821410, 66.721793 66.165220" stroke-width="0.500000" />
<path stroke="#feffff" stroke-opacity="0.501961" fill="none" d="M 20.128637 165.126550 Q 42.744122 202.578360, 0.067553 207.260540" stroke-width="0.500000" />
<path stroke="#f6faff" stroke-opacity="0.501961" fill="none" d="M 268.380754 219.644450 Q 195.935793 175.557063, 252.564826 130.601148" stroke-width="0.500000" />
<path stroke="#d2dff9" stroke-opacity="0.501961" fill="none" d="M 33.353679 208.188197 Q -16.000000 35.769661, 107.809357 37.742141" stroke-width="0.500000" />
<path stroke="#f6ffff" stroke-opacity="0.501961" fill="none" d="M 197.448295 207.041054 Q 212.685290 157.815283, 255.368101 197.392680" stroke-width="0.500000" />
<path stroke="#ffffff" stroke-opacity="0.501961" fill="none" d="M 50.150783 201.856655 Q 9.755779 204.675283, 22.691301 170.758970" stroke-width="0.500000" />
<path stroke="#15211d" stroke-opacity="0.501961" fill="none" d="M 220.224735 123.586994 Q 232.108577 58.773841, 148.434884 34.768995" stroke-width="0.500000" />
<path stroke="#d7e0fb" stroke-opacity="0.501961" fill="none" d="M 225.400159 47.524590 Q 252.389472 135.677074, 240.369607 213.302644" stroke-width="0.500000" />
<path stroke="#c5d3e9" stroke-opacity="0.501961" fill="none" d="M 167.075844 46.382969 Q 219.781988 79.520646, 97.125729 222.000000" stroke-width="0.500000" />
<path stroke="#fbffff" stroke-opacity="0.501961" fill="none" d="M 258.325702 215.487178 Q 200.446022 184.798885, 260.148532 138.422647" stroke-width="0.500000" />
<path stroke="#212a16" stroke-opacity="0.501961" fill="none" d="M 158.212867 72.730754 Q 145.754639 171.488505, 63.813837 115.757049" stroke-width="0.500000" />
<path stroke="#e2ecff" stroke-opacity="0.501961" fill="none" d="M 32.822878 60.783187 Q 71.358258 56.393464, 147.108897 23.492944" stroke-width="0.500000" />
<path stroke="#d9ecff" stroke-opacity="0.501961" fill="none" d="M 188.417494 68.029423 Q 188.872957 136.389964, 139.995371 120.209508" stroke-width="0.500000" />
<path stroke="#000000" stroke-opacity="0.501961" fill="none" d="M 70.458965 94.598927 Q 75.213236 139.856018, 82.863675 141.003666" stroke-width="0.500000" />
<path stroke="#f8ffff" stroke-opacity="0.501961" fill="none" d="M 264.227355 171.330248 Q 241.307887 113.197942, 196.229333 150.926729" stroke-width="0.500000" />
<path stroke="#434f3d" stroke-opacity="0.501961" fill="none" d="M 246.377460 63.091885 Q 209.254252 -16.000000, 8.401636 11.791415" stroke-width="0.500000" />
<path stroke="#1a2525" stroke-opacity="0.501961" fill="none" d="M 225.129794 119.661409 Q 208.012841 11.440281, 118.619358 64.166282" stroke-width="0.500000" />
<path stroke="#192006" stroke-opacity="0.501961" fill="none" d="M 171.598818 89.665781 Q 170.119192 123.209915, 63.033087 111.650860" stroke-width="0.500000" />
<path stroke="#f8ffff" stroke-opacity="0.501961" fill="none" d="M 51.463341 140.455067 Q 96.492355 135.582340, 84.951392 171.697457" stroke-width="0.500000" />
<path stroke="#d1e6ff" stroke-opacity="0.501961" fill="none" d="M 169.717452 53.072859 Q 218.333235 90.261872, 152.793392 135.424074" stroke-width="0.500000" />
<path stroke="#0a1200" stroke-opacity="0.501961" fill="none" d="M 132.228761 168.665899 Q 133.129040 101.128319, 167.694403 93.824525" stroke-width="0.500000" />
<path stroke="#f3fdff" stroke-opacity="0.501961" fill="none" d="M 213.892403 136.608664 Q 264.015935 139.496774, 238.330887 207.576462" stroke-width="0.500000" />
<path stroke="#01100b" stroke-opacity="0.501961" fill="none" d="M 172.613963 97.971727 Q 113.975959 68.885914, 166.983872 32.209656" stroke-width="0.500000" />
<path stroke="#f3ffff" stroke-opacity="0.501961" fill="none" d="M -2.432790 203.027726 Q 15.454055 170.721282, 45.865436 202.460857" stroke-width="0.500000" />
<path stroke="#ffffff" stroke-opacity="0.501961" fill="none" d="M -7.271606 222.000000 Q 8.371007 178.991647, 47.547536 202.834626" stroke-width="0.500000" />
<path stroke="#ccd4e7" stroke-opacity="0.501961" fill="none" d="M 260.022925 108.274004 Q 244.263019 124.209208, 70.631527 222.000000" stroke-width="0.500000" />
<path stroke="#ebf5ff" stroke-opacity="0.501961" fill="none" d="M 238.492101 112.918448 Q 219.205092 195.586976, 264.057020 214.820910" stroke-width="0.500000" />
<path stroke="#ebf3ff" stroke-opacity="0.501961" fill="none" d="M 226.894763 120.651335 Q 256.638786 182.155664, 255.554697 206.583723" stroke-width="0.500000" />
<path stroke="#242d35" stroke-opacity="0.501961" fill="none" d="M 68.292092 63.027558 Q -3.167872 96.572150, 47.101119 158.899350" stroke-width="0.500000" />
<path stroke="#e0f3ff" stroke-opacity="0.501961" fill="none" d="M 92.801172 142.257618 Q 48.303685 160.956822, 44.407418 103.651192" stroke-width="0.500000" />
<path stroke="#000900" stroke-opacity="0.501961" fill="none" d="M 135.210652 67.988633 Q 177.916618 84.975622, 147.592791 113.739785" stroke-width="0.500000" />
<path stroke="#d6e0f1" stroke-opacity="0.501961" fill="none" d="M 97.773168 70.184301 Q 120.324779 -8.457158, 193.342698 21.707207" stroke-width="0.500000" />
<path stroke="#cbe0fb" stroke-opacity="0.501961" fill="none" d="M 120.359082 91.711345 Q 164.281533 29.674786, 200.943012 79.789513" stroke-width="0.500000" />
<path stroke="#ffffff" stroke-opacity="0.501961" fill="none" d="M 51.826211 205.177099 Q 23.938824 208.015072, -11.913998 205.275063" stroke-width="0.500000" />
<path stroke="#d7e6fb" stroke-opacity="0.501961" fill="none" d="M 82.563795 140.628105 Q 81.190392 222.000000, 0.386238 194.346446" stroke-width="0.500000" />
<path stroke="#0d190c" stroke-opacity="0.501961" fill="none" d="M 130.258802 172.660421 Q 70.580011 105.076897, 78.635831 97.094398" stroke-width="0.500000" />
<path stroke="#141d13" stroke-opacity="0.501961" fill="none" d="M 122.586832 181.101372 Q 111.599143 112.679082, 60.341934 107.257494" stroke-width="0.500000" />
<path stroke="#e3f2ff" stroke-opacity="0.501961" fill="none" d="M 39.935094 117.613060 Q 88.084882 150.784169, 98.099017 173.787155" stroke-width="0.500000" />
<path stroke="#424e3d" stroke-opacity="0.501961" fill="none" d="M 60.457719 4.530273 Q 124.209701 -6.513551, 271.000000 27.908324" stroke-width="0.500000" />
<path stroke="#ebfaff" stroke-opacity="0.501961" fill="none" d="M 135.646274 35.972819 Q 76.609920 42.945266, 49.946254 63.179263" stroke-width="0.500000" />
<path stroke="#404b3d" stroke-opacity="0.501961" fill="none" d="M 271.000000 21.866903 Q 65.429399 -16.000000, 6.560717 51.405796" stroke-width="0.500000" />
<path stroke="#e6f5ff" stroke-opacity="0.501961" fill="none" d="M 173.342605 29.615480 Q 250.570758 39.251742, 249.270443 95.437966" stroke-width="0.500000" />
<path stroke="#d1e4fb" stroke-opacity="0.501961" fill="none" d="M 150.464109 140.451266 Q 203.693616 85.371149, 155.823072 52.776912" stroke-width="0.500000" />
<path stroke="#d8e0f3" stroke-opacity="0.501961" fill="none" d="M 259.226691 197.441671 Q 6.934087 222.000000, -8.430131 189.531256" stroke-width="0.500000" />
<path stroke="#212527" stroke-opacity="0.501961" fill="none" d="M 193.548037 149.327256 Q 159.383323 158.618898, 86.038868 191.895288" stroke-width="0.500000" />
<path stroke="#414f40" stroke-opacity="0.501961" fill="none" d="M 15.017695 73.980847 Q 35.782143 -6.845918, 271.000000 9.459104" stroke-width="0.500000" />
<path stroke="#081100" stroke-opacity="0.501961" fill="none" d="M 135.746226 158.651231 Q 121.968425 92.987592, 171.779892 94.797000" stroke-width="0.500000" />
<path stroke="#000000" stroke-opacity="0.501961" fill="none" d="M 168.118176 95.355102 Q 170.256233 126.686026, 129.262445 115.053019" stroke-width="0.500000" />
<path stroke="#e9ebff" stroke-opacity="0.501961" fill="none" d="M 185.125468 161.628236 Q 114.871732 169.143773, 134.088321 222.000000" stroke-width="0.500000" />
<path stroke="#d3e4fc" stroke-opacity="0.501961" fill="none" d="M -7.200544 197.101642 Q 31.593822 222.000000, 92.341896 136.009283" stroke-width="0.500000" />
<path stroke="#cddefa" stroke-opacity="0.501961" fill="none" d="M 93.844140 159.371413 Q 29.333186 149.026698, 55.869651 86.303060" stroke-width="0.500000" />
<path stroke="#eefbff" stroke-opacity="0.501961" fill="none" d="M 197.518836 152.844969 Q 241.278982 111.619139, 257.529427 159.738308" stroke-width="0.500000" />
<path stroke="#4a5444" stroke-opacity="0.501961" fill="none" d="M 5.599173 14.890121 Q 204.595084 -16.000000, 255.482117 58.017999" stroke-width="0.500000" />
<path stroke="#040d08" stroke-opacity="0.501961" fill="none" d="M 137.972051 58.544704 Q 152.569439 26.230662, 218.614136 66.776540" stroke-width="0.500000" />
<path stroke="#182123" stroke-opacity="0.501961" fill="none" d="M 37.606112 175.485695 Q 2.252383 101.581211, 65.115306 73.859069" stroke-width="0.500000" />
<path stroke="#3f4b3a" stroke-opacity="0.501961" fill="none" d="M 114.764944 23.719379 Q 1.765362 13.910375, 15.911841 137.275894" stroke-width="0.500000" />
<path stroke="#d5e2fe" stroke-opacity="0.501961" fill="none" d="M 93.735166 137.528044 Q 52.418194 222.000000, 3.348235 188.196715" stroke-width="0.500000" />
<path stroke="#f1fdff" stroke-opacity="0.501961" fill="none" d="M 231.626669 202.593651 Q 271.000000 158.649434, 229.800469 117.411085" stroke-width="0.500000" />
<path stroke="#cdd8ee" stroke-opacity="0.501961" fill="none" d="M 131.544760 68.298250 Q 71.370093 -2.334644, 29.626682 79.695020" stroke-width="0.500000" />
<path stroke="#fdffff" stroke-opacity="0.501961" fill="none" d="M 24.031698 168.959899 Q 11.898072 205.577252, 47.508380 203.908045" stroke-width="0.500000" />
<path stroke="#e2eafa" stroke-opacity="0.501961" fill="none" d="M 124.583073 22.957752 Q 180.190222 0.947920, 256.840774 90.017897" stroke-width="0.500000" />
<path stroke="#000000" stroke-opacity="0.501961" fill="none" d="M 150.984154 135.899795 Q 111.452570 112.154827, 150.140188 89.605098" stroke-width="0.500000" />
<path stroke="#081000" stroke-opacity="0.501961" fill="none" d="M 69.113060 97.089702 Q 92.461421 93.261871, 101.004212 159.774306" stroke-width="0.500000" />
<path stroke="#465242" stroke-opacity="0.501961" fill="none" d="M 9.490327 11.335513 Q 164.936894 -16.000000, 271.000000 48.800641" stroke-width="0.500000" />
<path stroke="#3f4842" stroke-opacity="0.501961" fill="none" d="M 19.309374 18.611632 Q 14.439271 192.830351, 72.883065 206.651520" stroke-width="0.500000" />
<path stroke="#000000" stroke-opacity="0.501961" fill="none" d="M 168.133393 109.387214 Q 152.800834 129.654791, 126.320097 106.083340" stroke-width="0.500000" />
<path stroke="#dee9fb" stroke-opacity="0.501961" fill="none" d="M 56.699993 39.282685 Q 91.624965 105.853615, 90.788589 106.842191" stroke-width="0.500000" />
<path stroke="#fbffff" stroke-opacity="0.501961" fill="none" d="M 246.739184 205.579293 Q 206.896639 171.047429, 260.062876 143.963658" stroke-width="0.500000" />
<path stroke="#d7e9ff" stroke-opacity="0.501961" fill="none" d="M 153.104406 132.291625 Q 198.261825 85.948653, 177.702456 54.411839" stroke-width="0.500000" />
<path stroke="#424c3f" stroke-opacity="0.501961" fill="none" d="M 0.525490 71.028052 Q 40.281755 -16.000000, 247.473250 19.602983" stroke-width="0.500000" />
<path stroke="#000000" stroke-opacity="0.501961" fill="none" d="M 133.863677 66.333466 Q 152.905405 39.079352, 166.276629 29.260960" stroke-width="0.500000" />
<path stroke="#e2f2ff" stroke-opacity="0.501961" fill="none" d="M 51.660495 132.322132 Q 100.440771 137.665363, 79.641385 182.405012" stroke-width="0.500000" />
<path stroke="#1f2727" stroke-opacity="0.501961" fill="none" d="M 219.286990 126.887081 Q 229.399485 21.808418, 131.672902 48.751449" stroke-width="0.500000" />
<path stroke="#d3eaff" stroke-opacity="0.501961" fill="none" d="M 181.172167 56.623761 Q 210.785509 79.507667, 152.665009 128.307600" stroke-width="0.500000" />
<path stroke="#d0d9f1" stroke-opacity="0.501961" fill="none" d="M 236.640031 213.219797 Q 253.820693 38.716945, 179.355229 21.613458" stroke-width="0.500000" />
<path stroke="#1f2d28" stroke-opacity="0.501961" fill="none" d="M 54.286398 59.004919 Q 87.739167 104.704342, 115.635188 175.594474" stroke-width="0.500000" />
<path stroke="#e7f3ff" stroke-opacity="0.501961" fill="none" d="M 193.597072 210.441529 Q 211.502221 157.953580, 260.173875 198.330158" stroke-width="0.500000" />
<path stroke="#feffff" stroke-opacity="0.501961" fill="none" d="M 57.018631 222.000000 Q 38.899365 187.029892, -12.868062 190.442374" stroke-width="0.500000" />
<path stroke="#eff6ff" stroke-opacity="0.501961" fill="none" d="M 101.341585 65.086247 Q 119.447389 -5.283812, 156.573110 18.062061" stroke-width="0.500000" />
<path stroke="#e4e9fa" stroke-opacity="0.501961" fill="none" d="M 109.118760 222.000000 Q 194.144962 157.296713, 153.222341 122.446129" stroke-width="0.500000" />
<path stroke="#030e0b" stroke-opacity="0.501961" fill="none" d="M 98.092808 178.429877 Q 148.321223 177.886156, 132.603633 101.827734" stroke-width="0.500000" />
<path stroke="#cddefa" stroke-opacity="0.501961" fill="none" d="M 42.027339 88.362155 Q 51.197784 146.633506, 98.650988 167.932610" stroke-width="0.500000" />
<path stroke="#000500" stroke-opacity="0.501961" fill="none" d="M 74.556664 93.982370 Q 60.845281 107.377133, 80.721415 139.231080" stroke-width="0.500000" />
<path stroke="#333835" stroke-opacity="0.501961" fill="none" d="M 65.228763 107.451281 Q 185.040456 212.114513, 227.511487 95.788920" stroke-width="0.500000" />
<path stroke="#000a08" stroke-opacity="0.501961" fill="none" d="M 163.572200 91.700998 Q 124.825784 86.990602, 131.076250 163.650187" stroke-width="0.500000" />
<path stroke="#f2ffff" stroke-opacity="0.501961" fill="none" d="M 215.765456 134.188169 Q 271.000000 128.500140, 251.790698 206.642998" stroke-width="0.500000" />
<path stroke="#e9f7ff" stroke-opacity="0.501961" fill="none" d="M 169.319505 41.797104 Q 199.514293 20.974952, 250.037633 79.708639" stroke-width="0.500000" />
<path stroke="#c6cee4" stroke-opacity="0.501961" fill="none" d="M 82.647091 206.367851 Q 112.067860 208.690744, 245.129894 116.331733" stroke-width="0.500000" />
<path stroke="#efffff" stroke-opacity="0.501961" fill="none" d="M -5.312913 205.923041 Q 39.795797 202.589822, 15.199020 162.910958" stroke-width="0.500000" />
<path stroke="#343337" stroke-opacity="0.501961" fill="none" d="M 34.009897 181.116207 Q 55.282719 214.464377, 174.121633 152.095167" stroke-width="0.500000" />
<path stroke="#161c1b" stroke-opacity="0.501961" fill="none" d="M 136.606429 61.866459 Q 166.167512 10.389462, 223.645247 76.339668" stroke-width="0.500000" />
<path stroke="#000501" stroke-opacity="0.501961" fill="none" d="M 134.356028 65.011009 Q 171.563283 94.602445, 167.867088 110.328573" stroke-width="0.500000" />
<path stroke="#cbe1ff" stroke-opacity="0.501961" fill="none" d="M 88.465590 98.263324 Q 42.549952 74.516659, 38.923951 125.062700" stroke-width="0.500000" />
<path stroke="#000000" stroke-opacity="0.501961" fill="none" d="M 72.251720 83.940455 Q 61.548557 66.202588, 39.239913 80.381714" stroke-width="0.500000" />
<path stroke="#ecfcff" stroke-opacity="0.501961" fill="none" d="M 78.190362 179.539512 Q 99.110258 147.111417, 55.138527 136.397688" stroke-width="0.500000" />
<path stroke="#dde9fc" stroke-opacity="0.501961" fill="none" d="M 111.915095 55.168095 Q 39.690808 20.764420, 33.043474 85.573609" stroke-width="0.500000" />
<path stroke="#becddf" stroke-opacity="0.501961" fill="none" d="M 65.735263 173.626914 Q 152.178410 72.094286, 124.345891 36.144472" stroke-width="0.500000" />
<path stroke="#fcffff" stroke-opacity="0.501961" fill="none" d="M 141.331274 122.271335 Q 173.085057 128.089267, 155.109522 154.363680" stroke-width="0.500000" />
<path stroke="#daedff" stroke-opacity="0.501961" fill="none" d="M 169.587139 56.324689 Q 209.836081 80.189772, 153.252775 140.386060" stroke-width="0.500000" />
<path stroke="#acbed6" stroke-opacity="0.501961" fill="none" d="M 131.745217 5.802247 Q -11.254623 176.125458, 19.946241 218.300973" stroke-width="0.500000" />
<path stroke="#222929" stroke-opacity="0.501961" fill="none" d="M 127.803837 100.855931 Q 168.524808 155.504508, 58.181961 197.255806" stroke-width="0.500000" />
<path stroke="#000000" stroke-opacity="0.501961" fill="none" d="M 85.990007 108.792220 Q 62.699712 116.210769, 81.753749 143.523870" stroke-width="0.500000" />
<path stroke="#b4c2d9" stroke-opacity="0.501961" fill="none" d="M 172.394872 16.563692 Q 108.604522 0.196206, 2.323164 202.207764" stroke-width="0.500000" />
<path stroke="#dbdeed" stroke-opacity="0.501961" fill="none" d="M 115.198530 215.077873 Q 193.261728 154.783049, 149.940735 120.177550" stroke-width="0.500000" />
<path stroke="#3c4937" stroke-opacity="0.501961" fill="none" d="M 115.986667 17.403457 Q 2.358181 40.139492, 7.347833 88.368355" stroke-width="0.500000" />
<path stroke="#283726" stroke-opacity="0.501961" fill="none" d="M 258.219383 -16.000000 Q 257.380024 44.174717, 178.451895 14.028623" stroke-width="0.500000" />
<path stroke="#465141" stroke-opacity="0.501961" fill="none" d="M 3.568900 107.772104 Q -16.000000 -15.436403, 103.921822 19.562079" stroke-width="0.500000" />
<path stroke="#dfe6fc" stroke-opacity="0.501961" fill="none" d="M 186.150718 222.000000 Q 198.960675 169.764260, 255.128973 149.085261" stroke-width="0.500000" />
<path stroke="#454f3f" stroke-opacity="0.501961" fill="none" d="M 99.695007 3.945336 Q -10.596556 -16.000000, 17.834038 131.748497" stroke-width="0.500000" />
<path stroke="#192212" stroke-opacity="0.501961" fill="none" d="M 62.533147 120.874125 Q 136.704038 138.221269, 116.304450 180.526044" stroke-width="0.500000" />
<path stroke="#000000" stroke-opacity="0.501961" fill="none" d="M 102.675067 136.258579 Q 97.994203 95.789528, 65.486479 118.437286" stroke-width="0.500000" />
<path stroke="#d0daef" stroke-opacity="0.501961" fill="none" d="M 238.219693 204.350059 Q 271.000000 35.700940, 166.926728 25.608392" stroke-width="0.500000" />
<path stroke="#deeeff" stroke-opacity="0.501961" fill="none" d="M 44.501148 199.603551 Q 21.399742 168.521216, -4.925650 196.950707" stroke-width="0.500000" />
<path stroke="#000300" stroke-opacity="0.501961" fill="none" d="M 170.081952 109.526661 Q 159.275135 80.234727, 126.955057 105.629773" stroke-width="0.500000" />
<path stroke="#eff5ff" stroke-opacity="0.501961" fill="none" d="M 121.287979 56.187803 Q 108.846302 11.343851, 174.403353 15.641540" stroke-width="0.500000" />
<path stroke="#c6d4e9" stroke-opacity="0.501961" fill="none" d="M 165.506140 50.861961 Q 211.078894 75.004223, 105.854719 222.000000" stroke-width="0.500000" />
<path stroke="#272c2d" stroke-opacity="0.501961" fill="none" d="M 205.678886 153.489015 Q 173.466026 143.941033, 93.275613 194.670776" stroke-width="0.500000" />
<path stroke="#313c45" stroke-opacity="0.501961" fill="none" d="M 70.855699 65.647578 Q -16.000000 99.167990, 59.362826 173.024832" stroke-width="0.500000" />
<path stroke="#203036" stroke-opacity="0.501961" fill="none" d="M 222.585825 106.652192 Q 193.252407 20.944494, 128.435896 60.286644" stroke-width="0.500000" />
<path stroke="#c9dcf4" stroke-opacity="0.501961" fill="none" d="M 158.120530 49.737406 Q 205.382733 110.728680, 152.961312 141.542505" stroke-width="0.500000" />
<path stroke="#f7ffff" stroke-opacity="0.501961" fill="none" d="M -1.457205 189.085799 Q 27.326674 185.378903, 55.121250 222.000000" stroke-width="0.500000" />
<path stroke="#000000" stroke-opacity="0.501961" fill="none" d="M 69.147733 81.089654 Q 58.571523 74.325020, 32.364766 81.412102" stroke-width="0.500000" />
<path stroke="#ffffff" stroke-opacity="0.501961" fill="none" d="M 1.354878 210.172363 Q 28.783702 173.403031, 46.971963 213.479548" stroke-width="0.500000" />
<path stroke="#e2f2ff" stroke-opacity="0.501961" fill="none" d="M 97.206241 36.286028 Q 83.622468 34.177911, 76.283379 94.512709" stroke-width="0.500000" />
<path stroke="#2f3a3e" stroke-opacity="0.501961" fill="none" d="M 60.070473 61.711150 Q -16.000000 127.208717, 64.903486 201.312089" stroke-width="0.500000" />
<path stroke="#e5e9fd" stroke-opacity="0.501961" fill="none" d="M 259.886118 125.613651 Q 191.171107 188.717265, 271.000000 218.761348" stroke-width="0.500000" />
<path stroke="#ced8eb" stroke-opacity="0.501961" fill="none" d="M 262.000586 91.005003 Q 143.338986 -16.000000, 104.355354 35.262482" stroke-width="0.500000" />
<path stroke="#dee5f7" stroke-opacity="0.501961" fill="none" d="M 186.656044 206.824172 Q 260.549966 197.384087, 228.241254 118.870251" stroke-width="0.500000" />
</g>
</svg>