<svg xmlns="http://www.w3.org/2000/svg" version="1.1" width="727" height="1024">
<rect x="0" y="0" width="727" height="1024" fill="#676256" />
<g transform="scale(2.115702) translate(0.5 0.5)">
<polygon fill="#ffd171" fill-opacity="0.501961" points="48.928185,50.782533,149.104370,13.557736,225.270338,12.029753,123.916805,126.681872" />
<polygon fill="#ffffff" fill-opacity="0.501961" points="302.182166,207.433334,320.156665,434.640760,329.469308,457.138496,323.213098,325.059082" />
<polygon fill="#f6e9d1" fill-opacity="0.501961" points="108.246389,179.933180,46.589854,218.855401,29.994824,146.791085,84.208773,128.105786" />
<polygon fill="#ffffea" fill-opacity="0.501961" points="261.679247,180.805513,321.995992,269.659442,274.333653,175.234307,242.588472,50.811789" />
<polygon fill="#b19964" fill-opacity="0.501961" points="62.987194,300.486970,75.975615,192.476988,209.757438,231.483924,154.735682,454.772554" />
<polygon fill="#000009" fill-opacity="0.501961" points="50.205877,155.249966,79.984245,146.847848,89.617491,176.231222,61.869037,185.720863" />
<polygon fill="#ffffef" fill-opacity="0.501961" points="211.042501,17.357834,212.367508,35.017893,264.677032,123.660171,247.232181,74.513618" />
<polygon fill="#323640" fill-opacity="0.501961" points="262.654728,-16.000000,345.961021,-16.000000,349.364028,269.400962,264.663793,174.142759" />
<polygon fill="#ffffde" fill-opacity="0.501961" points="248.523233,163.748715,277.392008,186.617617,318.801727,298.704950,311.493075,247.429728" />
<polygon fill="#ffffe2" fill-opacity="0.501961" points="32.605943,181.304291,113.060419,188.970993,55.224189,202.261159,46.974956,130.330712" />
<polygon fill="#363a45" fill-opacity="0.501961" points="49.947967,206.270547,-16.000000,76.920718,-2.151189,492.579848,112.805926,499.000000" />
<polygon fill="#ffcf70" fill-opacity="0.501961" points="41.728815,48.553470,50.955818,51.807473,78.211266,46.126657,10.102255,10.039206" />
<polygon fill="#212533" fill-opacity="0.501961" points="150.698854,306.599191,138.136247,227.404358,130.218718,224.430337,130.609477,326.976854" />
<polygon fill="#f6c970" fill-opacity="0.501961" points="162.961001,113.055290,183.339898,102.403868,170.131577,160.307228,159.716808,143.129270" />
<polygon fill="#fff4d4" fill-opacity="0.501961" points="85.236104,131.941008,88.219050,202.088587,107.754986,157.747824,33.311589,139.969212" />
<polygon fill="#3b3f46" fill-opacity="0.501961" points="259.672703,167.790051,178.539282,164.829305,9.324925,263.220499,78.716042,234.548156" />
<polygon fill="#323740" fill-opacity="0.501961" points="194.873908,302.358692,324.304200,499.000000,305.007977,263.089402,231.230518,131.618562" />
<polygon fill="#2d313a" fill-opacity="0.501961" points="84.481115,311.817119,153.162628,396.508152,156.942588,369.039409,156.554565,367.972939" />
<polygon fill="#0c1329" fill-opacity="0.501961" points="103.878293,305.313175,100.354901,255.042578,84.299530,288.283571,83.697960,289.122632" />
<polygon fill="#ffffe0" fill-opacity="0.501961" points="324.352262,445.399005,337.178018,454.315074,333.796680,445.171476,315.155049,365.579842" />
<polygon fill="#33363f" fill-opacity="0.501961" points="-10.082967,50.153941,-5.939439,-10.551678,49.342809,64.451971,7.211815,143.904936" />
<polygon fill="#b79e69" fill-opacity="0.501961" points="126.176370,227.254143,127.583248,152.324607,191.726675,297.122356,212.791777,215.577249" />
<polygon fill="#9b8860" fill-opacity="0.501961" points="113.023862,47.479521,146.633954,124.863590,121.326975,144.322305,66.515836,76.438888" />
<polygon fill="#353840" fill-opacity="0.501961" points="202.342289,-6.269394,-8.759984,-16.000000,36.053217,27.582091,78.425987,40.668342" />
<polygon fill="#dbb66d" fill-opacity="0.501961" points="110.470048,319.610846,171.925765,350.463249,103.839116,364.768156,159.154015,426.694925" />
<polygon fill="#3e4045" fill-opacity="0.501961" points="304.624041,383.902090,290.230561,399.192563,359.000000,493.006767,142.995497,497.061965" />
<polygon fill="#30343c" fill-opacity="0.501961" points="171.269406,337.439909,172.860519,365.539304,186.428759,454.915373,199.771146,329.860354" />
<polygon fill="#353841" fill-opacity="0.501961" points="153.398150,95.283815,184.048175,51.918575,226.776751,57.792235,245.192043,93.361766" />
<polygon fill="#ffffd5" fill-opacity="0.501961" points="296.190938,213.770285,313.979010,261.584034,324.019917,339.530374,322.953231,380.581888" />
<polygon fill="#edc477" fill-opacity="0.501961" points="141.172823,315.985651,153.673263,305.458752,194.642724,311.211080,187.091111,331.889518" />
<polygon fill="#363a41" fill-opacity="0.501961" points="310.439418,247.198591,337.037887,408.661110,359.000000,284.219199,292.792732,200.319709" />
<polygon fill="#d2ae6b" fill-opacity="0.501961" points="130.687315,101.731561,205.638772,36.882205,254.952576,18.371467,167.691603,10.755754" />
<polygon fill="#fffed8" fill-opacity="0.501961" points="256.124319,176.308040,310.432290,237.370766,263.094895,168.431283,261.246838,109.505600" />
<polygon fill="#dab66d" fill-opacity="0.501961" points="70.923193,318.058838,118.792788,385.940309,70.212114,273.273329,62.450023,267.410175" />
<polygon fill="#56595f" fill-opacity="0.501961" points="62.846900,231.549622,98.855927,181.577181,105.198674,56.165937,135.155077,219.947407" />
<polygon fill="#e9c376" fill-opacity="0.501961" points="211.660670,113.127862,209.983193,98.914331,196.236457,94.809094,166.557688,106.493339" />
<polygon fill="#fffad4" fill-opacity="0.501961" points="64.598809,128.425883,41.519520,192.609080,76.493203,203.204367,35.032860,155.651440" />
<polygon fill="#bfa369" fill-opacity="0.501961" points="227.910407,102.523171,230.700400,150.241712,166.567357,156.788407,201.523197,172.085553" />
<polygon fill="#25272f" fill-opacity="0.501961" points="216.687435,118.672044,210.413654,157.605929,173.899227,146.003441,178.510398,112.864631" />
<polygon fill="#707175" fill-opacity="0.501961" points="100.127388,213.930924,7.850022,183.252348,26.452083,120.423810,44.660492,232.654455" />
<polygon fill="#373a41" fill-opacity="0.501961" points="239.598197,62.235438,266.777682,117.801195,263.195839,22.486525,220.514028,30.625436" />
<polygon fill="#827f76" fill-opacity="0.501961" points="247.878280,426.582680,205.947467,453.038324,203.591934,287.157932,211.570345,305.447774" />
<polygon fill="#fff7d0" fill-opacity="0.501961" points="241.472837,63.494313,196.619438,17.273497,228.805533,60.741797,265.125426,130.142522" />
<polygon fill="#0d172e" fill-opacity="0.501961" points="180.434626,272.204573,168.424147,291.556395,162.134863,269.505980,174.571709,256.830606" />
<polygon fill="#c7a96b" fill-opacity="0.501961" points="60.250958,291.396588,155.619753,202.742313,166.970185,214.120885,75.100146,236.687848" />
<polygon fill="#3d3e43" fill-opacity="0.501961" points="125.782668,156.399234,242.570695,243.743234,159.873985,141.352998,164.197848,75.837207" />
<polygon fill="#696b70" fill-opacity="0.501961" points="69.677655,106.108733,103.980676,139.542639,9.211941,124.321198,22.658999,177.696728" />
<polygon fill="#46484d" fill-opacity="0.501961" points="201.709153,499.000000,111.054507,398.330995,64.422214,296.928301,55.571964,477.025085" />
<polygon fill="#424344" fill-opacity="0.501961" points="118.122767,333.247964,162.273231,374.101090,105.143097,355.106204,95.645250,311.437412" />
<polygon fill="#ceac67" fill-opacity="0.501961" points="175.875623,49.803984,127.976183,148.260072,130.276451,86.548293,121.633863,22.523889" />
<polygon fill="#2a2d35" fill-opacity="0.501961" points="50.910085,161.069929,87.905687,156.783420,71.507659,186.708685,55.002791,181.573905" />
<polygon fill="#c1a568" fill-opacity="0.501961" points="101.756434,267.625097,119.782224,311.300821,151.354008,226.901805,184.017621,258.698705" />
<polygon fill="#3b3d45" fill-opacity="0.501961" points="253.636693,114.808567,211.996782,61.009555,235.365612,151.410826,258.801227,163.557985" />
<polygon fill="#d2af6a" fill-opacity="0.501961" points="77.738253,92.176534,101.475007,122.601687,71.263027,34.058949,55.820263,50.364362" />
<polygon fill="#3e4045" fill-opacity="0.501961" points="323.694991,340.494673,326.216695,413.030558,344.338466,482.496012,353.674693,392.641322" />
<polygon fill="#fff9d7" fill-opacity="0.501961" points="94.053751,161.388178,98.532567,173.699729,80.667240,204.959731,71.143012,195.923763" />
<polygon fill="#343840" fill-opacity="0.501961" points="256.693084,-16.000000,206.092517,-16.000000,164.560683,9.738262,268.125833,16.772822" />
<polygon fill="#e3bd73" fill-opacity="0.501961" points="127.650750,192.228243,125.873731,178.254373,130.190488,155.691484,143.487019,178.378743" />
<polygon fill="#5d5d56" fill-opacity="0.501961" points="223.981902,213.311890,146.473205,251.138570,180.466906,247.743515,208.802753,238.236226" />
<polygon fill="#ffeecc" fill-opacity="0.501961" points="230.066397,45.181509,255.773271,126.210190,265.549970,177.657074,265.324451,132.028380" />
<polygon fill="#fff5d2" fill-opacity="0.501961" points="92.218524,140.952907,61.851760,133.540477,98.036340,171.325187,100.592446,166.066866" />
<polygon fill="#3f4145" fill-opacity="0.501961" points="70.898626,80.101806,126.034455,162.270914,3.210593,21.532686,59.911910,58.242817" />
<polygon fill="#fffacc" fill-opacity="0.501961" points="323.435642,389.041015,315.446038,290.338045,316.263044,408.742062,332.643671,454.650316" />
<polygon fill="#3c3f45" fill-opacity="0.501961" points="178.071704,400.246246,180.223213,390.671819,209.704956,394.345698,170.104066,483.846002" />
<polygon fill="#414343" fill-opacity="0.501961" points="120.884248,250.380418,153.247076,251.135884,125.265483,203.066485,166.970026,156.584409" />
<polygon fill="#484949" fill-opacity="0.501961" points="231.798513,150.567006,287.715219,216.453447,178.045735,218.481468,145.034546,193.568788" />
<polygon fill="#dbb76f" fill-opacity="0.501961" points="215.343364,216.410220,172.544024,239.251556,145.084683,233.292044,183.450855,217.900343" />
<polygon fill="#51504b" fill-opacity="0.501961" points="132.529923,150.045700,119.889484,193.045018,116.658050,85.975412,118.879650,79.580749" />
<polygon fill="#c6a768" fill-opacity="0.501961" points="226.241401,13.524256,147.632071,37.444767,244.531078,25.144075,268.995376,23.992533" />
<polygon fill="#d6b371" fill-opacity="0.501961" points="171.530699,350.089281,108.121930,320.710475,153.922473,358.901446,171.882529,368.274477" />
<polygon fill="#717172" fill-opacity="0.501961" points="48.399625,229.243228,142.223458,193.512894,60.983560,201.995911,17.405927,180.565977" />
<polygon fill="#9e9369" fill-opacity="0.501961" points="221.708785,459.649017,197.300583,476.075369,220.143572,471.034201,254.976771,473.230434" />
<polygon fill="#cbad71" fill-opacity="0.501961" points="198.320904,277.243888,153.698934,296.607307,135.314132,264.778496,178.705218,296.232266" />
<polygon fill="#ffe9c9" fill-opacity="0.501961" points="309.155753,259.545252,266.669357,176.684155,278.756885,187.640014,302.867345,227.034649" />
<polygon fill="#4c4a47" fill-opacity="0.501961" points="224.334849,35.577615,255.293081,88.808093,254.044461,22.920900,191.690965,35.700204" />
<polygon fill="#49494a" fill-opacity="0.501961" points="346.739558,469.880529,211.517194,323.679748,251.526221,414.049539,250.383058,498.123172" />
<polygon fill="#504c4b" fill-opacity="0.501961" points="317.876056,425.551876,314.730545,350.159896,311.816663,313.827718,297.426027,235.512107" />
<polygon fill="#717378" fill-opacity="0.501961" points="75.907461,127.197191,38.316340,145.725545,18.636783,122.205920,50.857630,70.480885" />
<polygon fill="#747473" fill-opacity="0.501961" points="131.716606,472.984662,67.507001,469.683971,94.459065,456.077393,165.909619,465.787751" />
<polygon fill="#918561" fill-opacity="0.501961" points="181.807434,375.860840,149.842369,392.193407,148.170204,442.605021,170.567549,459.481125" />
<polygon fill="#323439" fill-opacity="0.501961" points="127.416947,299.658496,142.046614,327.585273,150.645069,293.428344,135.652338,269.139547" />
<polygon fill="#d2ae69" fill-opacity="0.501961" points="148.903428,416.263443,130.374357,399.792742,117.848452,383.371292,162.415132,395.130071" />
<polygon fill="#ffefcc" fill-opacity="0.501961" points="59.344225,135.249383,35.544334,156.471483,35.306852,176.499628,42.542333,194.730034" />
<polygon fill="#615f56" fill-opacity="0.501961" points="118.985430,30.846841,109.189071,69.787011,103.174963,57.051019,129.299740,0.231468" />
<polygon fill="#ffeccc" fill-opacity="0.501961" points="246.917442,79.065150,210.815250,38.777948,219.318975,33.654948,229.257129,44.715541" />
<polygon fill="#e0ba70" fill-opacity="0.501961" points="223.709843,111.783927,230.263240,134.581390,223.889929,150.396397,215.494023,160.311814" />
<polygon fill="#ddb971" fill-opacity="0.501961" points="181.664272,151.416914,196.930561,155.320126,197.476000,161.850297,177.042507,167.813206" />
<polygon fill="#ffe6c2" fill-opacity="0.501961" points="314.661623,352.037994,323.788282,394.353254,324.597765,336.512669,305.164781,235.670879" />
<polygon fill="#4e4e4b" fill-opacity="0.501961" points="194.466635,260.255865,118.179144,268.445655,308.377500,289.697026,302.132849,243.461464" />
<polygon fill="#717170" fill-opacity="0.501961" points="98.791213,152.199017,103.655323,234.791664,114.695101,145.513349,61.353091,114.109473" />
<polygon fill="#ffeacb" fill-opacity="0.501961" points="254.640073,175.465314,257.423141,181.358750,264.545366,172.813241,263.374258,119.669674" />
<polygon fill="#3b3d3f" fill-opacity="0.501961" points="88.345597,168.245598,52.088093,178.685373,64.644003,148.430137,83.163371,151.716779" />
<polygon fill="#484849" fill-opacity="0.501961" points="209.606661,34.231490,251.135167,108.191429,162.882974,87.512996,193.251381,45.207836" />
<polygon fill="#3b3937" fill-opacity="0.501961" points="270.249321,177.433835,283.982860,194.300496,265.822879,136.241925,266.330997,173.787529" />
<polygon fill="#ccad6f" fill-opacity="0.501961" points="166.950165,251.671576,202.828663,241.318299,173.011594,292.749823,199.389576,288.042563" />
<polygon fill="#303239" fill-opacity="0.501961" points="119.610188,361.286465,118.712847,337.138192,105.650292,320.583330,96.985476,340.822838" />
<polygon fill="#c2a466" fill-opacity="0.501961" points="14.173050,10.197113,21.357701,32.378342,164.449422,76.008100,49.206566,31.669967" />
<polygon fill="#2f3038" fill-opacity="0.501961" points="132.322516,364.009494,141.288951,387.078213,156.771151,393.894658,137.713247,348.386307" />
<polygon fill="#fee9c8" fill-opacity="0.501961" points="59.050179,134.150205,38.538868,148.441670,46.767869,163.102095,74.053488,138.580884" />
<polygon fill="#464648" fill-opacity="0.501961" points="5.881061,139.145148,51.221885,287.775732,81.708222,223.895452,11.530132,239.800804" />
<polygon fill="#444547" fill-opacity="0.501961" points="81.676025,349.051688,134.872913,426.799211,88.307321,484.664480,100.183374,442.936070" />
<polygon fill="#d5b16b" fill-opacity="0.501961" points="94.772953,302.116421,95.436285,308.817027,129.288027,339.741368,101.848962,301.822259" />
<polygon fill="#c7aa68" fill-opacity="0.501961" points="82.205436,287.015783,76.948869,268.392531,85.481422,273.522920,91.454010,299.995594" />
<polygon fill="#424446" fill-opacity="0.501961" points="234.774241,439.854211,162.756283,461.725568,157.034635,469.045508,269.494092,448.725831" />
<polygon fill="#4b4c4b" fill-opacity="0.501961" points="288.357616,10.383912,268.656977,157.586566,260.108142,111.090741,238.652330,50.442780" />
<polygon fill="#817b66" fill-opacity="0.501961" points="235.679668,435.478710,230.681499,398.408556,188.019327,424.823136,187.280509,455.445987" />
<polygon fill="#484648" fill-opacity="0.501961" points="87.322728,174.262713,75.087345,185.973390,54.322739,178.509376,49.219602,162.596208" />
<polygon fill="#9f9067" fill-opacity="0.501961" points="121.355910,356.742478,132.888830,371.943522,134.196049,356.769933,118.377817,324.107217" />
<polygon fill="#424345" fill-opacity="0.501961" points="189.731357,351.135554,202.170929,328.782651,202.188650,261.723601,190.941369,319.547560" />
<polygon fill="#ceae6a" fill-opacity="0.501961" points="130.677828,146.402057,128.330587,107.812999,128.752710,117.316450,153.905702,89.018697" />
<polygon fill="#4c4c4a" fill-opacity="0.501961" points="304.454979,232.193160,268.692848,158.044703,348.939001,237.795370,358.778260,403.749903" />
<polygon fill="#cead69" fill-opacity="0.501961" points="100.845599,258.559072,133.192531,316.558667,101.330001,285.309641,132.404059,277.510633" />
<polygon fill="#5e5c54" fill-opacity="0.501961" points="115.664686,289.336230,212.450183,294.941200,154.333291,300.904693,95.013565,269.195140" />
<polygon fill="#737372" fill-opacity="0.501961" points="129.845494,432.834389,140.392548,476.202777,152.581590,460.193848,109.086556,451.188248" />
<polygon fill="#35363b" fill-opacity="0.501961" points="103.901765,297.035903,88.413086,291.400217,87.539404,274.126335,103.007726,260.478912" />
<polygon fill="#fee7c7" fill-opacity="0.501961" points="36.920726,175.141359,92.312909,194.923559,70.862498,201.675927,49.276868,199.153497" />
<polygon fill="#6d6c69" fill-opacity="0.501961" points="34.287459,181.860769,80.248248,226.541758,21.121258,196.005282,40.200078,76.912476" />
<polygon fill="#d2af6b" fill-opacity="0.501961" points="139.987781,252.360475,142.376191,261.054238,203.303518,256.170556,205.233346,249.229726" />
<polygon fill="#bfa266" fill-opacity="0.501961" points="119.552432,24.987745,188.499920,10.493525,229.964984,15.205064,123.673461,109.306820" />
<polygon fill="#c0a367" fill-opacity="0.501961" points="88.434862,352.722159,113.571186,367.594684,66.287984,274.132969,63.738450,285.958205" />
<polygon fill="#484849" fill-opacity="0.501961" points="112.269021,184.034281,166.449308,75.858854,187.823263,94.854438,172.806768,104.462466" />
<polygon fill="#605e53" fill-opacity="0.501961" points="130.647240,237.141302,168.551642,224.237905,167.065172,214.948998,91.789082,242.649988" />
<polygon fill="#cbab6b" fill-opacity="0.501961" points="167.192315,158.014477,159.355668,125.717361,182.965536,101.099508,169.540455,154.847234" />
<polygon fill="#4b4b49" fill-opacity="0.501961" points="192.255045,211.542698,254.796786,182.328638,255.915293,132.239932,248.516020,103.216929" />
<polygon fill="#fee4c2" fill-opacity="0.501961" points="316.064120,407.306966,332.201222,442.318518,338.522380,448.721554,325.093522,450.032971" />
<polygon fill="#4c4c4b" fill-opacity="0.501961" points="196.168255,450.908171,359.000000,499.000000,317.302525,268.345189,335.122044,449.795752" />
<polygon fill="#615e52" fill-opacity="0.501961" points="88.994397,79.730880,83.295719,59.038280,95.386927,82.955657,117.508536,159.791395" />
<polygon fill="#6e7073" fill-opacity="0.501961" points="194.778412,390.323498,193.227439,385.324494,209.547058,281.280902,228.175291,383.984091" />
<polygon fill="#3c3c40" fill-opacity="0.501961" points="302.263421,257.883211,299.132470,241.295273,290.121878,224.290753,265.895762,187.181432" />
<polygon fill="#363639" fill-opacity="0.501961" points="192.937643,400.516803,185.675622,430.303305,208.118464,408.661275,202.746439,388.349580" />
<polygon fill="#353537" fill-opacity="0.501961" points="174.153923,373.979930,182.243995,385.030613,180.125562,341.025392,172.294148,332.223725" />
<polygon fill="#444547" fill-opacity="0.501961" points="62.347248,85.913100,79.091615,114.670506,118.897554,154.797704,162.680844,175.186925" />
<polygon fill="#a4976e" fill-opacity="0.501961" points="191.178874,320.223522,177.246638,336.161306,187.870894,345.111125,188.760637,338.467050" />
<polygon fill="#bba266" fill-opacity="0.501961" points="136.685542,260.735245,101.658990,254.953837,131.044517,243.812313,106.560569,239.317191" />
<polygon fill="#3c3d40" fill-opacity="0.501961" points="181.282290,148.246935,213.319295,118.708360,183.626190,106.354395,196.298309,79.826942" />
<polygon fill="#79735e" fill-opacity="0.501961" points="171.226258,383.257213,153.647091,451.772166,82.371519,347.800888,145.949697,420.647341" />
<polygon fill="#454443" fill-opacity="0.501961" points="125.825624,214.003242,37.683086,242.451132,134.318557,200.634061,111.551124,162.142854" />
<polygon fill="#333337" fill-opacity="0.501961" points="132.135012,260.049259,144.554075,242.084180,135.058414,222.203049,126.685763,236.032429" />
<polygon fill="#706f6f" fill-opacity="0.501961" points="92.569120,193.816021,39.435869,215.633557,112.370798,209.576405,118.084643,139.592014" />
<polygon fill="#a89467" fill-opacity="0.501961" points="130.605752,208.575551,194.845746,224.264607,153.188278,205.889309,105.139918,225.592132" />
<polygon fill="#6f6b5c" fill-opacity="0.501961" points="118.366922,324.305883,164.289960,343.144130,103.053964,289.980551,113.355100,314.463238" />
<polygon fill="#c9a96e" fill-opacity="0.501961" points="195.964450,94.705092,212.368091,99.223030,211.101144,117.167825,188.205077,103.204702" />
<polygon fill="#474846" fill-opacity="0.501961" points="172.231714,253.998134,158.726562,273.395598,188.820135,260.176626,165.253254,296.316847" />
<polygon fill="#767060" fill-opacity="0.501961" points="224.054170,114.618073,212.652319,143.122324,194.271563,162.473649,213.662212,162.415237" />
<polygon fill="#746e5b" fill-opacity="0.501961" points="128.807322,94.048581,112.682007,132.961696,120.200284,135.368532,128.077219,145.097073" />
<polygon fill="#cfad6a" fill-opacity="0.501961" points="110.629493,60.602700,123.053545,29.514314,123.099711,38.087827,113.841590,111.805411" />
<polygon fill="#958966" fill-opacity="0.501961" points="104.777599,327.074149,90.203607,355.138476,135.600419,426.884184,74.492197,287.402553" />
<polygon fill="#c1a46b" fill-opacity="0.501961" points="64.534347,294.447157,67.267205,255.716141,73.995953,238.051664,71.200556,308.585903" />
<polygon fill="#746f59" fill-opacity="0.501961" points="148.106043,261.785590,165.353352,275.632917,130.471874,274.366088,103.211821,257.816067" />
<polygon fill="#d0af6f" fill-opacity="0.501961" points="137.042512,188.530591,129.910327,199.376732,125.955036,171.449677,144.440878,179.197925" />
<polygon fill="#414042" fill-opacity="0.501961" points="73.090691,147.721463,66.102732,185.584832,57.040537,181.951401,57.853374,151.009506" />
<polygon fill="#cfaf70" fill-opacity="0.501961" points="177.619569,276.698363,198.604196,278.529839,192.173413,293.981824,170.092843,290.927562" />
<polygon fill="#4d4d4b" fill-opacity="0.501961" points="321.836360,439.332019,304.661838,316.379488,238.057769,386.685307,319.382642,499.000000" />
<polygon fill="#464647" fill-opacity="0.501961" points="207.100594,218.319437,133.465068,158.175108,141.161881,177.921307,177.978060,214.197461" />
<polygon fill="#ffefcf" fill-opacity="0.501961" points="101.734585,167.541043,89.074964,141.290529,37.380263,156.364259,63.799423,138.173549" />
<polygon fill="#c4a567" fill-opacity="0.501961" points="90.038738,110.717226,88.843034,73.173683,113.997436,29.945883,52.205636,46.003954" />
<polygon fill="#4b4a4b" fill-opacity="0.501961" points="66.515058,378.083285,13.791804,460.503604,-2.638580,155.054581,63.518175,249.376501" />
<polygon fill="#feeac8" fill-opacity="0.501961" points="275.317207,187.733702,304.728021,232.614787,308.013307,265.756588,290.627002,215.825043" />
<polygon fill="#6e6955" fill-opacity="0.501961" points="100.057101,84.126540,106.912272,103.366084,111.546461,77.051788,114.596630,30.138228" />
<polygon fill="#ffeac9" fill-opacity="0.501961" points="97.757329,182.278200,75.041172,202.302649,63.585345,190.956367,100.926980,170.476869" />
<polygon fill="#6a6865" fill-opacity="0.501961" points="80.791473,103.265591,25.900917,164.908811,12.149021,128.956316,14.751204,158.159852" />
<polygon fill="#d1af70" fill-opacity="0.501961" points="166.145683,295.328379,171.852585,297.441459,145.054787,279.484570,162.344278,275.929793" />
<polygon fill="#626051" fill-opacity="0.501961" points="131.324717,253.264696,136.001689,249.677707,92.848584,243.147276,109.610398,251.925145" />
<polygon fill="#cead6c" fill-opacity="0.501961" points="157.695203,206.586101,165.949925,210.925740,96.925290,238.103181,131.393080,220.040436" />
<polygon fill="#434241" fill-opacity="0.501961" points="239.481232,26.496174,216.050187,31.836490,202.880921,38.115482,204.626209,39.706190" />
<polygon fill="#c7a767" fill-opacity="0.501961" points="108.920798,359.923593,109.128236,372.653655,144.934650,413.343357,126.477885,360.251518" />
<polygon fill="#745a58" fill-opacity="0.501961" points="53.749299,447.928396,51.489714,431.616526,21.770852,431.135634,40.355849,449.679905" />
<polygon fill="#50504d" fill-opacity="0.501961" points="359.000000,397.678900,321.614722,265.910535,326.341588,430.060068,325.788579,414.782088" />
<polygon fill="#f4e2c5" fill-opacity="0.501961" points="303.643623,259.207497,306.118048,235.934498,318.192161,285.084086,321.073451,330.107485" />
<polygon fill="#8b7f59" fill-opacity="0.501961" points="216.163016,350.116102,234.844193,433.934212,207.477459,441.399378,220.483139,361.580082" />
<polygon fill="#4a4a4a" fill-opacity="0.501961" points="7.874826,10.784685,56.735605,69.048158,21.780180,107.501969,4.394365,177.509161" />
<polygon fill="#474849" fill-opacity="0.501961" points="104.141963,395.654382,158.936351,467.479897,105.665880,482.016165,203.932853,499.000000" />
<polygon fill="#4b4644" fill-opacity="0.501961" points="314.163137,350.117125,314.745432,368.663009,306.915028,290.823289,312.122563,318.461037" />
<polygon fill="#3b3a3c" fill-opacity="0.501961" points="176.691044,122.953618,174.551218,130.988449,218.639413,140.175539,199.583548,108.981217" />
<polygon fill="#766f58" fill-opacity="0.501961" points="71.267750,280.922450,74.795262,253.024433,79.510352,296.813766,71.161058,283.327216" />
<polygon fill="#454441" fill-opacity="0.501961" points="159.520226,272.355946,170.877870,254.294410,175.952722,281.950060,167.774613,290.455651" />
<polygon fill="#4b4b4a" fill-opacity="0.501961" points="284.763229,217.965503,160.050978,154.782842,124.686690,212.698254,201.336926,161.658763" />
<polygon fill="#cfad6d" fill-opacity="0.501961" points="183.223895,99.380551,179.680963,119.567564,165.147392,115.079918,169.587399,107.566570" />
<polygon fill="#7d775f" fill-opacity="0.501961" points="127.110912,341.797428,138.736085,355.782187,171.772098,384.394451,171.251395,369.438794" />
<polygon fill="#c2a469" fill-opacity="0.501961" points="182.378138,215.534623,153.575052,230.095045,142.133837,243.275286,188.698379,234.204122" />
<polygon fill="#7c755d" fill-opacity="0.501961" points="116.620137,227.574296,113.078512,227.458127,148.671111,192.541602,156.490375,205.899889" />
<polygon fill="#f1ddc0" fill-opacity="0.501961" points="273.246661,193.655093,249.808077,172.990885,273.986233,184.954760,307.026987,251.501408" />
<polygon fill="#ccab6e" fill-opacity="0.501961" points="154.658135,379.811159,158.265639,403.670017,162.480146,386.303213,163.501399,388.968827" />
<polygon fill="#6e7074" fill-opacity="0.501961" points="238.653135,421.242291,255.540218,423.042978,209.444588,324.543297,232.390040,412.364017" />
<polygon fill="#f9e6c7" fill-opacity="0.501961" points="250.305266,97.231835,264.361489,183.585494,265.071215,138.408911,252.967419,89.332582" />
<polygon fill="#bfa268" fill-opacity="0.501961" points="235.101874,23.900548,144.917577,59.395486,219.562215,12.572601,271.236748,22.578199" />
<polygon fill="#4c4c4b" fill-opacity="0.501961" points="168.100078,78.295328,246.881569,117.400578,214.197988,39.790397,189.539051,48.453916" />
<polygon fill="#fbe8c7" fill-opacity="0.501961" points="54.262651,199.484987,49.938033,150.518254,35.064274,161.812232,43.392035,191.196979" />
<polygon fill="#3f4040" fill-opacity="0.501961" points="70.627141,186.455548,84.940300,176.270636,87.743785,162.420430,81.842358,154.577867" />
<polygon fill="#3c3c3c" fill-opacity="0.501961" points="103.879490,314.615285,119.210113,357.539544,108.083380,360.298312,105.708166,339.890995" />
<polygon fill="#706b5b" fill-opacity="0.501961" points="206.415477,235.773608,133.300007,243.712487,172.738953,250.657029,226.898160,201.965148" />
<polygon fill="#c0a364" fill-opacity="0.501961" points="133.661208,270.919702,132.622100,287.507546,98.877228,263.297162,131.229730,272.871081" />
<polygon fill="#4e4d4b" fill-opacity="0.501961" points="240.339765,85.217673,251.790680,108.776050,258.027878,146.645203,252.129694,187.324729" />
<polygon fill="#6e6e6d" fill-opacity="0.501961" points="64.797463,133.613163,18.675114,150.582325,56.487022,79.055270,95.718184,137.145644" />
<polygon fill="#6f6e6d" fill-opacity="0.501961" points="32.515122,209.708098,54.757132,230.332724,105.995027,215.843756,22.004713,188.910361" />
<polygon fill="#ffeac8" fill-opacity="0.501961" points="323.507719,351.027594,326.221283,454.441891,317.575256,392.904337,310.579948,283.073281" />
<polygon fill="#c8aa69" fill-opacity="0.501961" points="125.902579,294.456724,103.718534,289.864346,128.496900,310.694249,127.716842,288.961383" />
<polygon fill="#bb9f68" fill-opacity="0.501961" points="21.689579,27.214259,13.711147,18.523996,10.033142,4.487485,48.800902,51.978065" />
<polygon fill="#424140" fill-opacity="0.501961" points="104.161036,266.344408,85.775334,290.975976,95.490454,301.312924,103.502526,298.177923" />
<polygon fill="#c8a967" fill-opacity="0.501961" points="78.469072,279.209005,88.365253,285.057046,76.485880,237.674975,93.321110,267.470919" />
<polygon fill="#4c4b4a" fill-opacity="0.501961" points="193.377871,303.455119,232.862163,151.133374,278.117078,202.565815,301.514430,247.147748" />
<polygon fill="#474749" fill-opacity="0.501961" points="-6.432988,-4.083464,145.348891,10.928431,71.297915,40.007385,19.526404,13.535491" />
<polygon fill="#4e4e4d" fill-opacity="0.501961" points="261.696852,118.569623,270.048572,175.417240,336.637821,73.896182,250.543311,80.349980" />
<polygon fill="#ffebc8" fill-opacity="0.501961" points="334.346992,450.137098,331.216269,436.001850,319.409613,410.407303,320.964941,435.682643" />
<polygon fill="#c1a46c" fill-opacity="0.501961" points="171.116076,70.160777,151.102992,98.569223,119.928818,87.734339,219.654787,18.887842" />
<polygon fill="#6d6759" fill-opacity="0.501961" points="119.246265,70.551127,127.164420,61.247662,124.728106,68.278471,118.615384,99.074112" />
<polygon fill="#8a8063" fill-opacity="0.501961" points="214.531381,101.629381,223.351370,112.529293,216.579239,131.710950,210.617022,106.977107" />
<polygon fill="#f7e5c7" fill-opacity="0.501961" points="236.269202,54.804264,245.486310,88.023888,212.519287,35.511963,222.541078,41.298677" />
<polygon fill="#cbac6a" fill-opacity="0.501961" points="97.997317,67.323147,78.996007,44.038245,98.093027,88.086940,101.419189,102.431078" />
<polygon fill="#72706e" fill-opacity="0.501961" points="78.063053,202.354255,99.250241,187.372086,100.773461,134.100612,119.859140,204.774024" />
<polygon fill="#4c4c4c" fill-opacity="0.501961" points="75.935226,25.815321,90.599574,-10.530620,299.146481,10.518969,168.678674,12.047274" />
<polygon fill="#f9e8c8" fill-opacity="0.501961" points="82.580364,197.806946,98.092509,183.587058,89.800763,167.295335,78.652028,187.099038" />
<polygon fill="#7a7761" fill-opacity="0.501961" points="180.725380,168.707060,175.543269,131.976861,168.546683,162.267818,170.222235,157.598174" />
<polygon fill="#c6aa6f" fill-opacity="0.501961" points="128.474917,244.965920,126.427288,239.382627,107.889353,242.594138,99.067707,245.223717" />
<polygon fill="#3a3a3a" fill-opacity="0.501961" points="144.142332,241.933014,128.423942,256.502035,127.222560,242.880061,127.090214,234.428426" />
<polygon fill="#686b76" fill-opacity="0.501961" points="204.655795,449.222570,207.970961,410.302517,190.053294,428.544757,185.075563,450.613020" />
<polygon fill="#777363" fill-opacity="0.501961" points="140.827079,320.593543,154.289575,340.655404,192.036041,332.446852,155.767850,320.516441" />
<polygon fill="#c3a56d" fill-opacity="0.501961" points="127.900795,161.779014,141.212101,181.496621,132.281668,198.834718,124.381236,177.632869" />
<polygon fill="#c2a56a" fill-opacity="0.501961" points="100.400184,306.826939,100.784270,307.499139,118.427202,336.736029,164.452998,363.692143" />
<polygon fill="#d2b170" fill-opacity="0.501961" points="78.593617,238.372800,117.320933,232.004703,127.289893,227.500096,77.810201,234.526724" />
<polygon fill="#4c4c4b" fill-opacity="0.501961" points="305.335729,206.722388,264.767769,173.764761,264.659202,167.846169,309.172074,55.903824" />
<polygon fill="#caab6d" fill-opacity="0.501961" points="184.617561,309.426601,191.673702,331.874278,147.824907,317.149181,146.973978,305.939593" />
<polygon fill="#444245" fill-opacity="0.501961" points="60.055272,149.894579,62.815077,186.139163,79.237480,182.068727,72.595311,148.272797" />
<polygon fill="#837f68" fill-opacity="0.501961" points="176.206668,277.327905,182.692485,260.229902,202.318408,262.099555,194.195143,277.377846" />
<polygon fill="#f4e4c6" fill-opacity="0.501961" points="261.429749,178.317706,265.006507,157.700964,262.727183,123.869596,251.187516,85.160346" />
<polygon fill="#403f40" fill-opacity="0.501961" points="155.396423,368.938961,155.440636,386.169225,141.649148,390.944216,134.314336,369.093742" />
<polygon fill="#767674" fill-opacity="0.501961" points="137.045647,471.992198,148.918634,457.479851,113.367678,463.069811,101.159915,468.613025" />
<polygon fill="#817a60" fill-opacity="0.501961" points="161.466905,274.419963,150.665926,274.983162,119.635898,262.878461,165.363345,262.005071" />
<polygon fill="#4a4949" fill-opacity="0.501961" points="298.003698,-16.000000,285.818227,25.590150,236.356771,15.484668,170.374091,5.385740" />
<polygon fill="#f4e4c6" fill-opacity="0.501961" points="39.136785,150.744702,66.696974,143.359499,33.981485,174.897937,34.208830,163.499471" />
<polygon fill="#464645" fill-opacity="0.501961" points="85.582007,224.571249,120.551217,202.864357,113.306065,162.876214,135.018232,203.930200" />
<polygon fill="#c1a365" fill-opacity="0.501961" points="22.065071,27.048180,69.685404,38.606655,111.807753,39.722711,50.554329,53.881229" />
<polygon fill="#454342" fill-opacity="0.501961" points="125.043814,285.371606,138.281722,325.013165,149.017653,307.765346,149.238008,287.171154" />
<polygon fill="#4a4a4a" fill-opacity="0.501961" points="67.021610,256.533354,77.737599,223.951155,34.638088,241.216335,64.695018,271.758655" />
<polygon fill="#797977" fill-opacity="0.501961" points="73.622677,474.997818,84.835225,459.769463,95.269490,458.868758,87.448684,468.835127" />
<polygon fill="#4c4b4b" fill-opacity="0.501961" points="272.044892,60.308640,325.581582,17.338941,221.854381,28.821735,265.127161,111.205452" />
<polygon fill="#7a7257" fill-opacity="0.501961" points="105.642325,96.557400,93.212502,43.321709,120.306600,134.213601,98.144749,118.460203" />
<polygon fill="#4d4c4b" fill-opacity="0.501961" points="208.220739,39.517221,201.440880,74.943467,132.072514,146.138907,165.649330,75.153461" />
<polygon fill="#707278" fill-opacity="0.501961" points="171.249402,475.577700,172.136221,471.901403,185.249839,461.296948,192.107716,465.626261" />
<polygon fill="#797059" fill-opacity="0.501961" points="81.768258,51.598884,102.204725,102.083817,136.734745,150.867576,95.559319,108.150794" />
<polygon fill="#c8a969" fill-opacity="0.501961" points="101.938750,74.592640,112.671247,27.317648,87.874360,62.481495,98.715868,36.291596" />
<polygon fill="#bea26a" fill-opacity="0.501961" points="179.286897,149.119712,184.386655,166.941118,197.968113,167.158060,184.797497,150.149179" />
<polygon fill="#7a745a" fill-opacity="0.501961" points="125.381153,234.070169,86.949438,236.928210,89.134036,235.091394,95.575014,241.677647" />
<polygon fill="#c6a76a" fill-opacity="0.501961" points="200.196086,258.116599,174.550322,262.543889,172.213041,252.278200,208.591738,240.724056" />
<polygon fill="#484849" fill-opacity="0.501961" points="206.711703,463.080512,185.977149,449.081758,179.957506,367.221631,174.599582,463.364790" />
<polygon fill="#eedfc3" fill-opacity="0.501961" points="304.447936,230.667625,316.456357,280.837653,317.426037,295.762075,283.925502,194.997542" />
<polygon fill="#4b4b49" fill-opacity="0.501961" points="215.956612,328.090343,216.546886,162.781227,314.634213,342.633192,275.287926,472.139529" />
<polygon fill="#4d4d4b" fill-opacity="0.501961" points="291.668243,208.243156,359.000000,136.100586,323.826646,313.484070,308.758968,240.027865" />
<polygon fill="#f7e5c5" fill-opacity="0.501961" points="332.852818,439.539874,316.950894,403.941837,323.695732,445.345683,331.391599,450.591935" />
<polygon fill="#7d765c" fill-opacity="0.501961" points="80.244848,281.635667,69.251915,277.333165,96.668499,330.975660,105.413289,327.293800" />
<polygon fill="#c3a568" fill-opacity="0.501961" points="80.251336,299.899919,110.226389,363.961996,103.631145,367.774318,81.866457,319.774819" />
<polygon fill="#caab6b" fill-opacity="0.501961" points="124.222053,103.283957,121.143520,102.212382,122.961035,72.767430,132.024991,80.924213" />
<polygon fill="#f8e7c7" fill-opacity="0.501961" points="259.312021,168.557360,262.848569,151.218885,253.253717,177.396323,271.399276,180.405765" />
<polygon fill="#4c4b4a" fill-opacity="0.501961" points="41.814566,375.308797,42.809575,247.583752,90.872639,357.659279,139.877757,443.350639" />
<polygon fill="#494948" fill-opacity="0.501961" points="192.174076,311.457749,180.369194,418.671873,212.151539,276.797296,220.449188,263.902869" />
<polygon fill="#7d7764" fill-opacity="0.501961" points="190.212251,308.528038,196.377451,293.313384,157.621901,290.792184,148.703684,305.728849" />
<polygon fill="#6c6b68" fill-opacity="0.501961" points="34.966336,164.487401,33.812327,208.087200,11.873146,148.934660,57.470320,66.471604" />
<polygon fill="#40403f" fill-opacity="0.501961" points="174.783136,341.906795,172.270661,351.247110,173.227195,377.626459,199.296773,343.000119" />
<polygon fill="#6a6251" fill-opacity="0.501961" points="129.169286,91.921902,127.573646,117.352964,123.736649,108.188862,131.359230,96.196070" />
<polygon fill="#70706d" fill-opacity="0.501961" points="96.197557,149.527582,109.277135,196.319283,118.524314,152.084465,65.069589,115.592512" />
<polygon fill="#fce9c9" fill-opacity="0.501961" points="99.777181,165.158825,85.056437,138.872623,68.265032,132.220893,99.193274,174.652689" />
<polygon fill="#77705d" fill-opacity="0.501961" points="211.812217,145.653788,190.130992,168.938229,216.279135,161.694799,224.086567,101.877406" />
<polygon fill="#3c3b3d" fill-opacity="0.501961" points="98.166054,337.475910,120.762757,345.248434,122.270265,358.345011,110.141703,358.361584" />
<polygon fill="#454646" fill-opacity="0.501961" points="170.369388,460.094951,114.438311,459.481977,153.063205,446.446092,158.349322,455.323915" />
<polygon fill="#494848" fill-opacity="0.501961" points="112.836179,177.083275,160.025540,119.614297,158.620643,161.719443,122.154779,140.024180" />
<polygon fill="#c5a76b" fill-opacity="0.501961" points="137.705386,257.978536,142.466848,254.411519,171.717904,248.845261,162.811178,264.204495" />
<polygon fill="#c7a96d" fill-opacity="0.501961" points="76.232455,87.138371,80.394924,54.182744,92.942069,100.872027,98.184816,118.310125" />
<polygon fill="#4d4b4a" fill-opacity="0.501961" points="4.693494,163.989727,47.669465,51.491550,27.074999,33.673367,-14.236267,-16.000000" />
<polygon fill="#736b52" fill-opacity="0.501961" points="99.121943,50.592816,102.342739,85.287483,95.999089,57.353508,96.629117,64.428163" />
<polygon fill="#4f4e4e" fill-opacity="0.501961" points="217.738122,105.936131,256.472825,132.453212,234.210589,69.617138,215.093293,43.441116" />
<polygon fill="#4b4949" fill-opacity="0.501961" points="58.048203,231.877830,108.150492,212.650483,114.761559,219.847335,82.189282,232.933253" />
<polygon fill="#f6e5c5" fill-opacity="0.501961" points="34.025280,159.327185,41.784907,189.091347,65.754035,192.284522,39.448132,160.200049" />
<polygon fill="#c6a869" fill-opacity="0.501961" points="95.216790,262.495939,78.572197,238.295371,99.772980,256.790876,90.305356,267.463002" />
<polygon fill="#70706f" fill-opacity="0.501961" points="152.788384,469.209203,134.040159,440.337476,110.749330,449.788780,142.268485,452.370781" />
<polygon fill="#c2a364" fill-opacity="0.501961" points="150.555664,79.299848,120.474193,96.261355,168.957194,11.283273,127.526011,20.432341" />
<polygon fill="#d0af6a" fill-opacity="0.501961" points="105.711453,255.831664,133.166969,258.206803,128.052477,254.434881,103.433922,252.193492" />
<polygon fill="#bb9f65" fill-opacity="0.501961" points="168.806103,107.844532,191.049803,110.922849,196.145008,104.145249,159.149122,134.878797" />
<polygon fill="#7e7762" fill-opacity="0.501961" points="84.357303,340.231403,118.078906,402.766000,139.079364,431.084218,131.497076,401.634898" />
<polygon fill="#f7e5c6" fill-opacity="0.501961" points="243.678232,71.410393,243.533987,88.451253,258.759655,126.008045,259.205394,120.103393" />
<polygon fill="#4a4a4b" fill-opacity="0.501961" points="96.816056,499.000000,273.959324,479.331773,88.554214,470.936444,108.976271,446.462802" />
<polygon fill="#4a4a49" fill-opacity="0.501961" points="40.041468,47.416915,77.134840,111.244061,165.865079,191.569513,96.320242,115.772278" />
<polygon fill="#6e6d6a" fill-opacity="0.501961" points="14.146507,158.938468,32.619499,208.230785,84.450572,213.294702,47.766892,196.205514" />
<polygon fill="#40403f" fill-opacity="0.501961" points="186.219663,152.525569,196.719424,154.031338,217.780883,129.748908,182.303321,105.302674" />
<polygon fill="#747371" fill-opacity="0.501961" points="100.992521,214.409804,62.310009,228.891539,43.868205,215.691717,102.058978,189.665571" />
<polygon fill="#4d4c4b" fill-opacity="0.501961" points="230.384350,45.903981,345.191253,31.175201,248.956357,23.143342,216.868033,31.000886" />
<polygon fill="#c4a666" fill-opacity="0.501961" points="116.218078,35.941398,112.124139,105.889383,125.229719,52.390346,123.141580,21.774842" />
<polygon fill="#cead70" fill-opacity="0.501961" points="150.083585,357.091553,170.327844,366.266545,171.096535,360.425902,165.943878,349.698486" />
<polygon fill="#4c4b4a" fill-opacity="0.501961" points="257.391038,149.622712,151.453766,180.283690,166.261889,216.209646,201.592296,217.879512" />
<polygon fill="#bea36c" fill-opacity="0.501961" points="154.110679,205.823947,167.060685,212.045744,156.745579,217.059406,120.167288,232.816125" />
<polygon fill="#494a49" fill-opacity="0.501961" points="317.629696,447.262506,334.789129,464.389452,359.000000,446.651333,331.714373,450.490538" />
<polygon fill="#41403e" fill-opacity="0.501961" points="88.035739,273.634006,91.521307,271.951482,99.870640,254.821531,105.714303,303.834098" />
<polygon fill="#454345" fill-opacity="0.501961" points="52.798634,158.792199,84.739940,179.252120,58.659552,183.865622,51.164874,168.566914" />
<polygon fill="#7f785c" fill-opacity="0.501961" points="221.340229,456.443012,252.257269,473.591702,251.129880,475.488029,211.877336,468.549938" />
<polygon fill="#444241" fill-opacity="0.501961" points="104.768141,314.902946,109.627751,357.187039,122.541269,354.618753,118.360199,338.062415" />
<polygon fill="#4e4d4b" fill-opacity="0.501961" points="151.261142,98.978220,136.612290,132.514216,178.672205,94.284703,191.180786,48.048802" />
<polygon fill="#7b7055" fill-opacity="0.501961" points="72.406248,229.762068,94.422643,247.185148,106.507043,258.416649,100.815969,256.045140" />
<polygon fill="#4d4d4b" fill-opacity="0.501961" points="228.531580,144.715156,256.896441,162.143292,249.542393,200.474182,186.312115,207.279118" />
<polygon fill="#6c6c6a" fill-opacity="0.501961" points="23.731181,112.107949,52.818112,68.701247,62.126840,87.676036,34.289588,162.677623" />
<polygon fill="#81785c" fill-opacity="0.501961" points="172.395995,459.538113,111.040136,392.905746,150.694187,416.533218,166.603534,382.260513" />
<polygon fill="#bfa368" fill-opacity="0.501961" points="156.306155,229.734373,142.749919,244.015902,164.036871,240.409185,221.882844,213.005502" />
</g>
</svg>