<svg xmlns="http://www.w3.org/2000/svg" version="1.1" width="727" height="1024">
<rect x="0" y="0" width="727" height="1024" fill="#676256" />
<g transform="scale(2.115702) translate(0.5 0.5)">
<path stroke="#ffffff" stroke-opacity="0.501961" fill="none" d="M 324.551641 450.824901 Q 326.884005 218.046374, 255.049457 167.309232" stroke-width="0.500000" />
<path stroke="#ffffff" stroke-opacity="0.501961" fill="none" d="M 327.815747 439.656460 Q 307.380470 196.944133, 272.062993 185.341217" stroke-width="0.500000" />
<path stroke="#ffffde" stroke-opacity="0.501961" fill="none" d="M 320.030685 387.059763 Q 339.070780 69.719269, 25.502874 157.145099" stroke-width="0.500000" />
<path stroke="#ffffff" stroke-opacity="0.501961" fill="none" d="M 309.823617 224.896213 Q 308.504658 346.944172, 333.816326 452.067331" stroke-width="0.500000" />
<path stroke="#ffffff" stroke-opacity="0.501961" fill="none" d="M 249.512455 172.204744 Q 318.957931 210.739762, 322.922176 399.809458" stroke-width="0.500000" />
<path stroke="#ffffff" stroke-opacity="0.501961" fill="none" d="M 323.931193 446.860632 Q 324.220920 426.991245, 301.762976 211.300525" stroke-width="0.500000" />
<path stroke="#ffffff" stroke-opacity="0.501961" fill="none" d="M 325.138928 439.116926 Q 327.081156 295.863862, 293.489242 211.206135" stroke-width="0.500000" />
<path stroke="#ffffff" stroke-opacity="0.501961" fill="none" d="M 261.464075 179.603461 Q 277.720072 111.596628, 206.375763 15.043598" stroke-width="0.500000" />
<path stroke="#ffffff" stroke-opacity="0.501961" fill="none" d="M 331.587076 449.789373 Q 318.330944 406.876732, 310.578640 253.072829" stroke-width="0.500000" />
<path stroke="#ffffff" stroke-opacity="0.501961" fill="none" d="M 297.213337 213.848422 Q 313.485143 283.855936, 321.737763 451.429269" stroke-width="0.500000" />
<path stroke="#ffffff" stroke-opacity="0.501961" fill="none" d="M 253.711767 175.432055 Q 328.789143 240.876134, 322.676092 381.979628" stroke-width="0.500000" />
<path stroke="#ffffff" stroke-opacity="0.501961" fill="none" d="M 259.096837 156.506259 Q 322.707045 274.716647, 322.323366 341.369034" stroke-width="0.500000" />
<path stroke="#ffffce" stroke-opacity="0.501961" fill="none" d="M 111.827740 29.672218 Q 278.842148 -16.000000, 263.233906 239.529495" stroke-width="0.500000" />
<path stroke="#ffffff" stroke-opacity="0.501961" fill="none" d="M 229.261289 43.939999 Q 258.104801 104.845193, 263.094897 180.531276" stroke-width="0.500000" />
<path stroke="#ffdf98" stroke-opacity="0.501961" fill="none" d="M 44.321673 195.234149 Q 77.792554 -15.470916, 255.667781 20.753701" stroke-width="0.500000" />
<path stroke="#ffffff" stroke-opacity="0.501961" fill="none" d="M 69.929309 133.274584 Q 120.304182 174.425820, 66.578550 201.119132" stroke-width="0.500000" />
<path stroke="#ffffff" stroke-opacity="0.501961" fill="none" d="M 321.458807 420.418734 Q 320.520736 359.689217, 311.388996 253.354958" stroke-width="0.500000" />
<path stroke="#fffff0" stroke-opacity="0.501961" fill="none" d="M 315.831245 405.418502 Q 335.236349 271.542023, 250.816671 151.078899" stroke-width="0.500000" />
<path stroke="#ffffff" stroke-opacity="0.501961" fill="none" d="M 201.217221 15.534914 Q 236.412899 66.515584, 264.158522 130.027287" stroke-width="0.500000" />
<path stroke="#ffffff" stroke-opacity="0.501961" fill="none" d="M 313.093902 264.832515 Q 314.051270 417.211162, 327.299304 448.317062" stroke-width="0.500000" />
<path stroke="#ffe9a5" stroke-opacity="0.501961" fill="none" d="M 36.679289 182.585228 Q 120.500505 220.511315, 180.105538 13.364140" stroke-width="0.500000" />
<path stroke="#ffffde" stroke-opacity="0.501961" fill="none" d="M 140.199624 34.408731 Q 237.310997 -16.000000, 263.854259 146.497674" stroke-width="0.500000" />
<path stroke="#fffffe" stroke-opacity="0.501961" fill="none" d="M 203.632878 15.426024 Q 242.596156 66.967503, 263.665171 148.441951" stroke-width="0.500000" />
<path stroke="#ffffff" stroke-opacity="0.501961" fill="none" d="M 58.091909 134.465738 Q 16.285505 188.088196, 80.586434 198.756872" stroke-width="0.500000" />
<path stroke="#ffffed" stroke-opacity="0.501961" fill="none" d="M 300.821799 225.936533 Q 306.429134 239.283427, 334.315886 499.000000" stroke-width="0.500000" />
<path stroke="#ffffff" stroke-opacity="0.501961" fill="none" d="M 259.104123 175.326516 Q 266.308601 83.611609, 201.308873 25.523352" stroke-width="0.500000" />
<path stroke="#ffdc94" stroke-opacity="0.501961" fill="none" d="M 254.028436 21.603470 Q 148.902707 -5.239518, 70.961314 216.721554" stroke-width="0.500000" />
<path stroke="#ffffff" stroke-opacity="0.501961" fill="none" d="M 68.202346 201.723067 Q 122.404847 178.231614, 75.787295 134.829169" stroke-width="0.500000" />
<path stroke="#ffffff" stroke-opacity="0.501961" fill="none" d="M 88.297785 138.210395 Q 16.568301 137.072088, 50.745729 199.656829" stroke-width="0.500000" />
<path stroke="#ffdb95" stroke-opacity="0.501961" fill="none" d="M 51.233388 197.577034 Q 32.593967 -16.000000, 258.093606 23.406404" stroke-width="0.500000" />
<path stroke="#ffffff" stroke-opacity="0.501961" fill="none" d="M 52.282625 202.816226 Q 118.006455 182.441133, 72.708813 134.290695" stroke-width="0.500000" />
<path stroke="#ffffff" stroke-opacity="0.501961" fill="none" d="M 94.073664 191.388730 Q 28.826802 200.781043, 48.223122 140.990954" stroke-width="0.500000" />
<path stroke="#ffffff" stroke-opacity="0.501961" fill="none" d="M 202.846132 22.369872 Q 279.420496 92.823979, 258.453592 187.724032" stroke-width="0.500000" />
<path stroke="#ffffff" stroke-opacity="0.501961" fill="none" d="M 201.653467 31.958623 Q 246.152820 55.905899, 265.270257 160.912824" stroke-width="0.500000" />
<path stroke="#ffecc9" stroke-opacity="0.501961" fill="none" d="M 316.273237 326.737333 Q 318.343776 81.543719, 48.417290 198.796278" stroke-width="0.500000" />
<path stroke="#ffe9a2" stroke-opacity="0.501961" fill="none" d="M 45.412977 192.508403 Q 14.764968 148.797513, 231.028697 20.267269" stroke-width="0.500000" />
<path stroke="#ffffff" stroke-opacity="0.501961" fill="none" d="M 259.338290 171.498425 Q 314.811146 239.660251, 315.742365 285.836322" stroke-width="0.500000" />
<path stroke="#ffeba8" stroke-opacity="0.501961" fill="none" d="M 40.429582 187.488093 Q 88.983793 218.340664, 188.816562 30.807967" stroke-width="0.500000" />
<path stroke="#ffffff" stroke-opacity="0.501961" fill="none" d="M 38.028949 177.460147 Q 58.229964 118.697885, 99.052893 160.894178" stroke-width="0.500000" />
<path stroke="#fffff0" stroke-opacity="0.501961" fill="none" d="M 257.147410 178.309859 Q 268.133637 94.973603, 198.349604 5.480966" stroke-width="0.500000" />
<path stroke="#ffdf96" stroke-opacity="0.501961" fill="none" d="M 31.719317 180.372894 Q 168.009739 16.881180, 265.827852 23.007599" stroke-width="0.500000" />
<path stroke="#ffffff" stroke-opacity="0.501961" fill="none" d="M 81.619996 135.166608 Q 121.196503 184.485488, 54.930624 197.459043" stroke-width="0.500000" />
<path stroke="#ffdb74" stroke-opacity="0.501961" fill="none" d="M 246.895269 18.409187 Q 48.246193 90.381954, 11.126198 9.290931" stroke-width="0.500000" />
<path stroke="#edcc87" stroke-opacity="0.501961" fill="none" d="M 215.867264 12.927700 Q 28.091215 56.042874, 118.211462 303.789460" stroke-width="0.500000" />
<path stroke="#ffdb94" stroke-opacity="0.501961" fill="none" d="M 39.487915 185.402186 Q 127.081518 -8.290015, 243.095014 23.533988" stroke-width="0.500000" />
<path stroke="#fedc9b" stroke-opacity="0.501961" fill="none" d="M 102.141378 200.534769 Q 23.341638 13.209029, 187.351780 13.648557" stroke-width="0.500000" />
<path stroke="#ffdd92" stroke-opacity="0.501961" fill="none" d="M 241.711745 17.419145 Q 32.694108 -11.735682, 96.417984 192.055570" stroke-width="0.500000" />
<path stroke="#ffffff" stroke-opacity="0.501961" fill="none" d="M 53.611135 125.892108 Q 18.679751 193.431373, 87.858667 196.954285" stroke-width="0.500000" />
<path stroke="#e1c17f" stroke-opacity="0.501961" fill="none" d="M 283.427685 18.515866 Q 26.352622 20.951373, 99.373884 370.759875" stroke-width="0.500000" />
<path stroke="#ffffff" stroke-opacity="0.501961" fill="none" d="M 43.695704 145.144634 Q 23.180953 202.895714, 77.540825 199.024645" stroke-width="0.500000" />
<path stroke="#ffffff" stroke-opacity="0.501961" fill="none" d="M 40.153156 188.399177 Q 31.459646 125.240482, 97.188103 149.069705" stroke-width="0.500000" />
<path stroke="#ffd972" stroke-opacity="0.501961" fill="none" d="M 10.368637 6.758168 Q 46.927663 77.860926, 244.192484 16.925585" stroke-width="0.500000" />
<path stroke="#e4c37f" stroke-opacity="0.501961" fill="none" d="M 139.152027 348.775382 Q 14.581872 57.903962, 213.277376 18.841521" stroke-width="0.500000" />
<path stroke="#ffffc7" stroke-opacity="0.501961" fill="none" d="M 260.909718 170.005841 Q 263.809804 -16.000000, 104.763867 43.122622" stroke-width="0.500000" />
<path stroke="#ffffff" stroke-opacity="0.501961" fill="none" d="M 312.998582 284.202412 Q 321.568290 414.973946, 327.540724 451.542792" stroke-width="0.500000" />
<path stroke="#ffd874" stroke-opacity="0.501961" fill="none" d="M 15.426789 11.551709 Q 134.554223 158.179311, 204.982344 19.089604" stroke-width="0.500000" />
<path stroke="#ffffff" stroke-opacity="0.501961" fill="none" d="M 59.071156 206.379960 Q 130.660510 184.098453, 73.972074 125.298101" stroke-width="0.500000" />
<path stroke="#ffffff" stroke-opacity="0.501961" fill="none" d="M 36.113786 155.466467 Q 44.201211 221.503348, 99.143739 180.593909" stroke-width="0.500000" />
<path stroke="#f1cd84" stroke-opacity="0.501961" fill="none" d="M 168.300416 26.051690 Q -5.009204 298.787383, 131.848562 383.118145" stroke-width="0.500000" />
<path stroke="#ffffff" stroke-opacity="0.501961" fill="none" d="M 38.077150 187.834947 Q 27.353504 128.683565, 82.747434 137.534326" stroke-width="0.500000" />
<path stroke="#ffffe2" stroke-opacity="0.501961" fill="none" d="M 256.148292 167.531566 Q 359.000000 315.796147, 297.599102 372.982998" stroke-width="0.500000" />
<path stroke="#ffffff" stroke-opacity="0.501961" fill="none" d="M 96.354206 194.643384 Q 24.527200 194.102055, 56.780083 132.953338" stroke-width="0.500000" />
<path stroke="#ffffff" stroke-opacity="0.501961" fill="none" d="M 48.982990 142.512581 Q 32.456510 202.554376, 93.803248 187.664761" stroke-width="0.500000" />
<path stroke="#fffffd" stroke-opacity="0.501961" fill="none" d="M 328.077516 437.152210 Q 324.053538 379.687780, 304.787117 232.341148" stroke-width="0.500000" />
<path stroke="#ffd470" stroke-opacity="0.501961" fill="none" d="M 13.616793 8.652960 Q 34.084803 78.316249, 252.480242 19.635924" stroke-width="0.500000" />
<path stroke="#ffd474" stroke-opacity="0.501961" fill="none" d="M 222.317719 17.257142 Q 127.232505 128.402316, 16.632972 11.563295" stroke-width="0.500000" />
<path stroke="#ffe09c" stroke-opacity="0.501961" fill="none" d="M 179.375977 9.710099 Q 113.409587 202.202398, 47.956308 194.886988" stroke-width="0.500000" />
<path stroke="#ffffdf" stroke-opacity="0.501961" fill="none" d="M 228.127096 201.349887 Q 311.631791 159.986752, 204.874709 27.359205" stroke-width="0.500000" />
<path stroke="#ffffff" stroke-opacity="0.501961" fill="none" d="M 71.960805 206.303765 Q 18.005979 167.572864, 80.957470 135.894538" stroke-width="0.500000" />
<path stroke="#ffdd9b" stroke-opacity="0.501961" fill="none" d="M 190.560458 10.738728 Q 89.889312 198.485563, 52.727039 201.631098" stroke-width="0.500000" />
<path stroke="#fffff7" stroke-opacity="0.501961" fill="none" d="M 262.238868 128.038579 Q 241.723694 165.075637, 313.958569 251.440669" stroke-width="0.500000" />
<path stroke="#eac982" stroke-opacity="0.501961" fill="none" d="M 163.028509 14.281371 Q 12.137352 249.736213, 127.554867 393.427203" stroke-width="0.500000" />
<path stroke="#ffe09d" stroke-opacity="0.501961" fill="none" d="M 211.622062 23.412996 Q 10.330565 142.856513, 52.292902 197.494814" stroke-width="0.500000" />
<path stroke="#ffffff" stroke-opacity="0.501961" fill="none" d="M 316.121752 279.590356 Q 309.743090 391.859295, 334.627616 449.770158" stroke-width="0.500000" />
<path stroke="#f1d294" stroke-opacity="0.501961" fill="none" d="M 207.633843 17.631896 Q -16.000000 35.610862, 62.945199 204.280627" stroke-width="0.500000" />
<path stroke="#fffffe" stroke-opacity="0.501961" fill="none" d="M 330.096123 451.606815 Q 310.661558 385.259041, 319.183258 319.174719" stroke-width="0.500000" />
<path stroke="#fffffa" stroke-opacity="0.501961" fill="none" d="M 275.114293 185.214471 Q 320.251254 266.172597, 323.940707 351.569233" stroke-width="0.500000" />
<path stroke="#fff0a2" stroke-opacity="0.501961" fill="none" d="M 54.744824 49.724168 Q 228.296719 -16.000000, 252.312474 102.715448" stroke-width="0.500000" />
<path stroke="#fffff6" stroke-opacity="0.501961" fill="none" d="M 264.662061 174.137129 Q 265.247082 85.834146, 205.601981 27.746865" stroke-width="0.500000" />
<path stroke="#ffffff" stroke-opacity="0.501961" fill="none" d="M 52.319810 127.632954 Q 118.653147 159.182176, 62.819803 202.636231" stroke-width="0.500000" />
<path stroke="#e0bf7c" stroke-opacity="0.501961" fill="none" d="M 153.386708 13.250651 Q -16.000000 374.789218, 194.462738 412.353764" stroke-width="0.500000" />
<path stroke="#ffd16f" stroke-opacity="0.501961" fill="none" d="M 230.204120 18.215916 Q 67.494468 114.009440, 15.113958 10.335326" stroke-width="0.500000" />
<path stroke="#ffffff" stroke-opacity="0.501961" fill="none" d="M 30.329731 168.955672 Q 69.604813 115.247425, 102.063878 180.102795" stroke-width="0.500000" />
<path stroke="#ffffff" stroke-opacity="0.501961" fill="none" d="M 83.288267 196.094647 Q 25.251137 181.533680, 63.873173 127.736596" stroke-width="0.500000" />
<path stroke="#ffffeb" stroke-opacity="0.501961" fill="none" d="M 253.907370 96.941172 Q 257.928126 182.878072, 313.061846 256.609816" stroke-width="0.500000" />
<path stroke="#fffffe" stroke-opacity="0.501961" fill="none" d="M 322.448008 412.448723 Q 328.418891 211.628722, 263.891612 185.677282" stroke-width="0.500000" />
<path stroke="#ffd573" stroke-opacity="0.501961" fill="none" d="M 10.133559 8.561278 Q 146.754126 112.313704, 221.017065 13.292663" stroke-width="0.500000" />
<path stroke="#ffffff" stroke-opacity="0.501961" fill="none" d="M 97.251938 184.293155 Q 40.694392 202.363248, 51.825753 143.940700" stroke-width="0.500000" />
<path stroke="#fcce72" stroke-opacity="0.501961" fill="none" d="M 217.566174 16.122057 Q 122.134797 147.570592, 19.449677 13.953448" stroke-width="0.500000" />
<path stroke="#fed073" stroke-opacity="0.501961" fill="none" d="M 135.184290 397.647807 Q 12.609726 258.455996, 161.858804 210.492956" stroke-width="0.500000" />
<path stroke="#d7ba7e" stroke-opacity="0.501961" fill="none" d="M 192.984251 16.544727 Q 11.293682 37.670838, 143.475559 401.603186" stroke-width="0.500000" />
<path stroke="#ffffff" stroke-opacity="0.501961" fill="none" d="M 85.571839 195.605038 Q 119.365106 143.863158, 58.372321 138.250912" stroke-width="0.500000" />
<path stroke="#ffffec" stroke-opacity="0.501961" fill="none" d="M 300.952737 223.101047 Q 334.373436 361.058481, 320.029914 447.754578" stroke-width="0.500000" />
<path stroke="#f9cd74" stroke-opacity="0.501961" fill="none" d="M 149.997314 212.462939 Q 6.692901 283.619687, 151.020044 414.709351" stroke-width="0.500000" />
<path stroke="#ffffff" stroke-opacity="0.501961" fill="none" d="M 39.702799 149.178014 Q 93.773328 123.043107, 97.678865 183.587577" stroke-width="0.500000" />
<path stroke="#fffff6" stroke-opacity="0.501961" fill="none" d="M 252.255307 181.782783 Q 282.210532 136.686977, 217.487841 44.266527" stroke-width="0.500000" />
<path stroke="#ffffff" stroke-opacity="0.501961" fill="none" d="M 93.604718 189.278941 Q 34.779389 214.084876, 40.159361 145.301428" stroke-width="0.500000" />
<path stroke="#ffd673" stroke-opacity="0.501961" fill="none" d="M 152.141148 414.181456 Q 43.673490 288.585895, 76.506446 237.297572" stroke-width="0.500000" />
<path stroke="#dabb7a" stroke-opacity="0.501961" fill="none" d="M 150.372491 363.793903 Q -2.058391 35.915383, 249.291284 15.269383" stroke-width="0.500000" />
<path stroke="#ffffff" stroke-opacity="0.501961" fill="none" d="M 32.964967 175.547280 Q 81.358957 218.547117, 97.050476 153.223604" stroke-width="0.500000" />
<path stroke="#edc470" stroke-opacity="0.501961" fill="none" d="M 202.682091 259.434098 Q 74.860607 225.580389, 172.294802 11.765596" stroke-width="0.500000" />
<path stroke="#ffffe0" stroke-opacity="0.501961" fill="none" d="M 209.211529 16.398428 Q 263.502328 105.124258, 263.636125 186.259653" stroke-width="0.500000" />
<path stroke="#eecd8b" stroke-opacity="0.501961" fill="none" d="M 56.724325 200.232310 Q 3.675329 -13.504320, 255.964351 20.994188" stroke-width="0.500000" />
<path stroke="#fffff7" stroke-opacity="0.501961" fill="none" d="M 254.127961 162.210228 Q 319.971214 224.923281, 319.121714 327.933620" stroke-width="0.500000" />
<path stroke="#ffffff" stroke-opacity="0.501961" fill="none" d="M 45.066486 144.529007 Q 17.761158 201.074514, 81.183213 198.345656" stroke-width="0.500000" />
<path stroke="#ffd172" stroke-opacity="0.501961" fill="none" d="M 16.210979 15.119962 Q 146.325411 136.771235, 203.902159 18.451625" stroke-width="0.500000" />
<path stroke="#ffffff" stroke-opacity="0.501961" fill="none" d="M 39.149316 185.421900 Q 49.599060 124.499834, 95.748647 159.320052" stroke-width="0.500000" />
<path stroke="#ffd26d" stroke-opacity="0.501961" fill="none" d="M 24.197388 18.512816 Q 64.549020 67.461071, 238.792097 17.122322" stroke-width="0.500000" />
<path stroke="#ffd172" stroke-opacity="0.501961" fill="none" d="M 19.377687 14.720986 Q 131.181803 91.839374, 226.559136 14.136061" stroke-width="0.500000" />
<path stroke="#ffffef" stroke-opacity="0.501961" fill="none" d="M 330.770939 456.730793 Q 311.524437 425.500461, 317.528130 306.301330" stroke-width="0.500000" />
<path stroke="#ccac6b" stroke-opacity="0.501961" fill="none" d="M 41.267296 42.420214 Q 255.701311 55.725192, 150.334477 414.549375" stroke-width="0.500000" />
<path stroke="#ffffff" stroke-opacity="0.501961" fill="none" d="M 99.326733 173.570046 Q 80.170422 111.286579, 32.524271 159.547186" stroke-width="0.500000" />
<path stroke="#ffffff" stroke-opacity="0.501961" fill="none" d="M 76.666921 140.226294 Q 19.778079 168.045518, 67.216635 203.537516" stroke-width="0.500000" />
<path stroke="#eac06e" stroke-opacity="0.501961" fill="none" d="M 215.213558 12.561985 Q 70.731692 144.546799, 166.336891 262.328876" stroke-width="0.500000" />
<path stroke="#dcba6e" stroke-opacity="0.501961" fill="none" d="M 212.410964 216.483289 Q 52.498933 267.624231, 168.217546 448.031928" stroke-width="0.500000" />
<path stroke="#ffffff" stroke-opacity="0.501961" fill="none" d="M 59.284101 200.161481 Q 9.733060 161.652020, 64.146964 136.799334" stroke-width="0.500000" />
<path stroke="#ffd26d" stroke-opacity="0.501961" fill="none" d="M 245.061241 20.924653 Q 129.672124 -16.000000, 130.396151 138.257742" stroke-width="0.500000" />
<path stroke="#ffd073" stroke-opacity="0.501961" fill="none" d="M 83.129543 231.343499 Q 24.760969 295.188246, 161.680361 409.873205" stroke-width="0.500000" />
<path stroke="#d6ba81" stroke-opacity="0.501961" fill="none" d="M 125.576841 88.303797 Q -8.948203 356.591550, 183.584850 404.169104" stroke-width="0.500000" />
<path stroke="#ffffff" stroke-opacity="0.501961" fill="none" d="M 71.132782 134.375370 Q 12.352664 172.525139, 73.499463 204.584640" stroke-width="0.500000" />
<path stroke="#fffff0" stroke-opacity="0.501961" fill="none" d="M 318.552248 427.877151 Q 328.656473 354.522188, 305.461628 262.925200" stroke-width="0.500000" />
<path stroke="#ffffff" stroke-opacity="0.501961" fill="none" d="M 43.983461 143.387430 Q 113.895371 140.117655, 84.661422 202.197618" stroke-width="0.500000" />
<path stroke="#ffffed" stroke-opacity="0.501961" fill="none" d="M 293.095234 212.530076 Q 329.805610 319.451275, 322.578790 441.598710" stroke-width="0.500000" />
<path stroke="#ffffed" stroke-opacity="0.501961" fill="none" d="M 258.667020 168.806572 Q 306.579610 227.083569, 318.326667 294.759002" stroke-width="0.500000" />
<path stroke="#ffffff" stroke-opacity="0.501961" fill="none" d="M 103.195922 158.227140 Q 73.918701 210.942358, 36.283720 165.983317" stroke-width="0.500000" />
<path stroke="#facc71" stroke-opacity="0.501961" fill="none" d="M 229.327746 17.068707 Q 59.234889 100.616322, 13.136387 11.554137" stroke-width="0.500000" />
<path stroke="#d5b87b" stroke-opacity="0.501961" fill="none" d="M 143.817891 21.848287 Q 4.699611 291.054007, 168.080804 364.136491" stroke-width="0.500000" />
<path stroke="#ffd177" stroke-opacity="0.501961" fill="none" d="M 116.904978 116.424292 Q 88.536337 -11.291462, 241.760329 17.583642" stroke-width="0.500000" />
<path stroke="#f9cb70" stroke-opacity="0.501961" fill="none" d="M 202.420968 12.997059 Q 147.614462 147.640475, 26.471338 22.963479" stroke-width="0.500000" />
<path stroke="#ffffe5" stroke-opacity="0.501961" fill="none" d="M 308.103519 242.715078 Q 316.885662 355.135872, 321.298531 419.033483" stroke-width="0.500000" />
<path stroke="#fbcc6e" stroke-opacity="0.501961" fill="none" d="M 217.213229 14.643438 Q 128.996924 121.195289, 27.971178 19.761987" stroke-width="0.500000" />
<path stroke="#f5ca73" stroke-opacity="0.501961" fill="none" d="M 196.246076 39.462149 Q 106.515531 159.833661, 41.918785 26.801466" stroke-width="0.500000" />
<path stroke="#ffffff" stroke-opacity="0.501961" fill="none" d="M 43.099899 144.475991 Q 20.516808 204.131881, 85.617846 195.959722" stroke-width="0.500000" />
<path stroke="#ffffff" stroke-opacity="0.501961" fill="none" d="M 53.066978 198.659619 Q 102.741013 200.894615, 84.112805 137.312813" stroke-width="0.500000" />
<path stroke="#ffffff" stroke-opacity="0.501961" fill="none" d="M 77.776856 129.661225 Q 22.863450 170.889487, 71.791864 199.727943" stroke-width="0.500000" />
<path stroke="#c7a868" stroke-opacity="0.501961" fill="none" d="M 166.315423 428.259213 Q 154.750575 343.696998, 124.716071 21.603439" stroke-width="0.500000" />
<path stroke="#ffcf6e" stroke-opacity="0.501961" fill="none" d="M 26.827140 26.817351 Q 166.152142 89.914482, 196.722413 14.521045" stroke-width="0.500000" />
<path stroke="#fffffd" stroke-opacity="0.501961" fill="none" d="M 80.988969 135.645694 Q 27.036469 130.278922, 44.334187 195.199406" stroke-width="0.500000" />
<path stroke="#ffcf6d" stroke-opacity="0.501961" fill="none" d="M 131.244438 141.943825 Q 131.101227 -0.002064, 235.791085 24.521408" stroke-width="0.500000" />
<path stroke="#f8c96b" stroke-opacity="0.501961" fill="none" d="M 40.838555 43.975576 Q 61.886548 42.134454, 261.507881 21.267175" stroke-width="0.500000" />
<path stroke="#ffffff" stroke-opacity="0.501961" fill="none" d="M 260.787794 173.952284 Q 275.367792 121.930736, 228.130203 44.013729" stroke-width="0.500000" />
<path stroke="#fffdbe" stroke-opacity="0.501961" fill="none" d="M 259.019746 135.749389 Q 236.230086 0.280122, 148.636444 29.276101" stroke-width="0.500000" />
<path stroke="#edc36d" stroke-opacity="0.501961" fill="none" d="M 139.101122 381.468589 Q 9.363305 300.518666, 151.252942 210.844485" stroke-width="0.500000" />
<path stroke="#ffffe8" stroke-opacity="0.501961" fill="none" d="M 272.216612 181.320082 Q 301.848410 216.296586, 322.965476 344.879323" stroke-width="0.500000" />
<path stroke="#fecf6e" stroke-opacity="0.501961" fill="none" d="M 157.273210 410.952012 Q 28.070190 303.588594, 85.640896 231.948486" stroke-width="0.500000" />
<path stroke="#fffffc" stroke-opacity="0.501961" fill="none" d="M 54.009800 134.925150 Q 116.307780 140.083537, 93.375259 188.956678" stroke-width="0.500000" />
<path stroke="#f0d296" stroke-opacity="0.501961" fill="none" d="M 37.496254 185.823335 Q 100.464286 219.681815, 178.316562 10.875604" stroke-width="0.500000" />
<path stroke="#ffffff" stroke-opacity="0.501961" fill="none" d="M 97.294333 182.860274 Q 35.654661 203.189230, 45.051947 144.557219" stroke-width="0.500000" />
<path stroke="#fcd380" stroke-opacity="0.501961" fill="none" d="M 63.913399 57.730623 Q 205.734567 -16.000000, 233.591370 56.355556" stroke-width="0.500000" />
<path stroke="#f3c66e" stroke-opacity="0.501961" fill="none" d="M 134.017569 204.550549 Q 117.128953 31.309472, 212.822433 16.585821" stroke-width="0.500000" />
<path stroke="#c9aa68" stroke-opacity="0.501961" fill="none" d="M 108.638916 379.830155 Q 310.646551 170.055208, 43.281141 30.861367" stroke-width="0.500000" />
<path stroke="#cfaf6b" stroke-opacity="0.501961" fill="none" d="M 133.023448 24.574207 Q 110.609982 42.423772, 171.404051 389.060957" stroke-width="0.500000" />
<path stroke="#f7c96c" stroke-opacity="0.501961" fill="none" d="M 28.934773 29.053524 Q 62.928098 71.895840, 221.807197 27.533233" stroke-width="0.500000" />
<path stroke="#ffffdf" stroke-opacity="0.501961" fill="none" d="M 329.797904 447.177749 Q 312.935584 385.707136, 312.643677 293.518160" stroke-width="0.500000" />
<path stroke="#ffffff" stroke-opacity="0.501961" fill="none" d="M 96.493900 178.904434 Q 88.786074 126.081194, 43.091659 155.768610" stroke-width="0.500000" />
<path stroke="#c5a96c" stroke-opacity="0.501961" fill="none" d="M 172.831650 384.133440 Q 146.255856 44.188452, 18.082209 21.227284" stroke-width="0.500000" />
<path stroke="#fdcd6e" stroke-opacity="0.501961" fill="none" d="M 79.354991 92.512836 Q 84.986711 6.176851, 204.562983 16.078182" stroke-width="0.500000" />
<path stroke="#f0ca77" stroke-opacity="0.501961" fill="none" d="M 100.389050 227.262127 Q 14.286519 275.222246, 144.517916 412.548269" stroke-width="0.500000" />
<path stroke="#fffff8" stroke-opacity="0.501961" fill="none" d="M 96.490423 178.956325 Q 79.004468 119.473646, 32.215516 160.948101" stroke-width="0.500000" />
<path stroke="#fffff8" stroke-opacity="0.501961" fill="none" d="M 52.938070 198.216225 Q 23.297789 138.840305, 91.167910 138.955054" stroke-width="0.500000" />
<path stroke="#d1af68" stroke-opacity="0.501961" fill="none" d="M 173.297010 7.853440 Q 67.578763 312.864801, 171.216522 362.716312" stroke-width="0.500000" />
<path stroke="#fffff9" stroke-opacity="0.501961" fill="none" d="M 262.558880 122.692483 Q 234.319223 45.285195, 215.834155 36.175203" stroke-width="0.500000" />
<path stroke="#eec268" stroke-opacity="0.501961" fill="none" d="M 239.606204 12.738462 Q 89.761314 117.507750, 23.675107 22.587498" stroke-width="0.500000" />
<path stroke="#ffffff" stroke-opacity="0.501961" fill="none" d="M 55.422142 141.127958 Q 113.193081 135.057648, 93.107783 188.163790" stroke-width="0.500000" />
<path stroke="#fffdd9" stroke-opacity="0.501961" fill="none" d="M 217.803056 38.592358 Q 260.923304 109.378899, 259.935963 166.498978" stroke-width="0.500000" />
<path stroke="#d4bd8b" stroke-opacity="0.501961" fill="none" d="M 157.130454 370.582748 Q 243.967323 203.019787, 38.784702 184.961682" stroke-width="0.500000" />
<path stroke="#fbcd6e" stroke-opacity="0.501961" fill="none" d="M 132.861569 138.620668 Q 164.320350 26.695380, 43.224417 41.946536" stroke-width="0.500000" />
<path stroke="#e7c277" stroke-opacity="0.501961" fill="none" d="M 204.211258 218.417355 Q 131.251180 223.651330, 173.386192 375.606773" stroke-width="0.500000" />
<path stroke="#d9ba7b" stroke-opacity="0.501961" fill="none" d="M 137.800798 20.975438 Q 7.199751 344.585833, 169.711044 404.322798" stroke-width="0.500000" />
<path stroke="#fffff2" stroke-opacity="0.501961" fill="none" d="M 257.095698 118.785840 Q 254.642169 177.828913, 302.909471 234.354409" stroke-width="0.500000" />
<path stroke="#f4c872" stroke-opacity="0.501961" fill="none" d="M 92.993681 340.451461 Q 31.955740 245.434629, 163.595755 212.520437" stroke-width="0.500000" />
<path stroke="#bea266" stroke-opacity="0.501961" fill="none" d="M 33.680843 32.617668 Q 291.821091 114.896132, 129.479615 446.316745" stroke-width="0.500000" />
<path stroke="#d3b67a" stroke-opacity="0.501961" fill="none" d="M 132.224135 325.920622 Q 12.606489 27.828961, 230.793740 14.132381" stroke-width="0.500000" />
<path stroke="#ffd678" stroke-opacity="0.501961" fill="none" d="M 175.777885 367.595695 Q 103.106741 323.396537, 86.700810 292.226595" stroke-width="0.500000" />
<path stroke="#fffffe" stroke-opacity="0.501961" fill="none" d="M 255.679386 173.347494 Q 292.834133 217.471424, 307.681194 240.856133" stroke-width="0.500000" />
<path stroke="#fffff7" stroke-opacity="0.501961" fill="none" d="M 38.652751 152.690582 Q 82.460566 111.875044, 99.439347 172.074357" stroke-width="0.500000" />
<path stroke="#ffffea" stroke-opacity="0.501961" fill="none" d="M 304.097866 242.172201 Q 316.948049 366.605921, 332.447964 450.105296" stroke-width="0.500000" />
<path stroke="#caab66" stroke-opacity="0.501961" fill="none" d="M 173.892935 433.491282 Q 78.288747 412.997286, 161.728155 -11.275556" stroke-width="0.500000" />
<path stroke="#fffff5" stroke-opacity="0.501961" fill="none" d="M 61.146304 135.457305 Q 17.016803 166.648827, 70.626558 201.836020" stroke-width="0.500000" />
<path stroke="#d5b26b" stroke-opacity="0.501961" fill="none" d="M 195.967790 10.456669 Q 73.216269 41.257148, 177.364740 333.323249" stroke-width="0.500000" />
<path stroke="#ffffff" stroke-opacity="0.501961" fill="none" d="M 57.140457 137.139074 Q 116.595538 151.339823, 76.280066 200.807035" stroke-width="0.500000" />
<path stroke="#ffffec" stroke-opacity="0.501961" fill="none" d="M 216.694726 33.571211 Q 271.265846 122.598609, 263.650578 167.928160" stroke-width="0.500000" />
<path stroke="#fffff9" stroke-opacity="0.501961" fill="none" d="M 33.783889 174.369430 Q 68.583833 124.038330, 101.187265 166.344119" stroke-width="0.500000" />
<path stroke="#f8cd76" stroke-opacity="0.501961" fill="none" d="M 66.278094 291.527333 Q 163.919520 352.200517, 172.021671 358.973358" stroke-width="0.500000" />
<path stroke="#e7bd6b" stroke-opacity="0.501961" fill="none" d="M 41.012758 44.019986 Q 156.603885 150.056704, 201.063929 6.071026" stroke-width="0.500000" />
<path stroke="#dcbb74" stroke-opacity="0.501961" fill="none" d="M 142.701722 350.947551 Q 239.908225 307.730322, 153.940407 204.034913" stroke-width="0.500000" />
<path stroke="#fcd073" stroke-opacity="0.501961" fill="none" d="M 169.572871 357.286448 Q 47.851512 292.775797, 90.609384 236.625496" stroke-width="0.500000" />
<path stroke="#fffff8" stroke-opacity="0.501961" fill="none" d="M 92.858039 188.548918 Q 29.704003 197.552738, 51.363509 137.775016" stroke-width="0.500000" />
<path stroke="#fffffa" stroke-opacity="0.501961" fill="none" d="M 38.965239 151.050135 Q 23.007434 196.095731, 82.572038 197.930343" stroke-width="0.500000" />
<path stroke="#f0c368" stroke-opacity="0.501961" fill="none" d="M 28.195958 22.864097 Q 112.056109 98.267703, 225.562194 20.865571" stroke-width="0.500000" />
<path stroke="#ffffe7" stroke-opacity="0.501961" fill="none" d="M 314.476888 270.894379 Q 310.797579 235.800522, 260.552968 169.196239" stroke-width="0.500000" />
<path stroke="#edc26d" stroke-opacity="0.501961" fill="none" d="M 198.076034 14.136665 Q 146.073361 139.970202, 14.499070 18.305067" stroke-width="0.500000" />
<path stroke="#ebc475" stroke-opacity="0.501961" fill="none" d="M 209.907447 218.223314 Q 102.875919 257.724349, 187.376797 330.779613" stroke-width="0.500000" />
<path stroke="#ffffe0" stroke-opacity="0.501961" fill="none" d="M 302.765187 253.382065 Q 325.118176 334.169074, 326.584262 451.087372" stroke-width="0.500000" />
<path stroke="#f3c56b" stroke-opacity="0.501961" fill="none" d="M 76.601880 89.889870 Q 68.389006 4.315014, 231.413856 22.133354" stroke-width="0.500000" />
<path stroke="#fffff2" stroke-opacity="0.501961" fill="none" d="M 89.022520 134.447104 Q 25.421314 146.592511, 65.420494 199.542645" stroke-width="0.500000" />
<path stroke="#ffd677" stroke-opacity="0.501961" fill="none" d="M 81.153584 235.039638 Q 125.266583 279.270840, 205.428177 242.838432" stroke-width="0.500000" />
<path stroke="#eec26a" stroke-opacity="0.501961" fill="none" d="M 78.894644 93.340854 Q 67.291583 29.755213, 256.960665 21.438343" stroke-width="0.500000" />
<path stroke="#fccc6d" stroke-opacity="0.501961" fill="none" d="M 200.438162 14.911233 Q 95.899034 9.242344, 116.758736 111.343513" stroke-width="0.500000" />
<path stroke="#f2c771" stroke-opacity="0.501961" fill="none" d="M 64.675053 263.492388 Q 109.559465 385.772054, 156.646804 413.103394" stroke-width="0.500000" />
<path stroke="#fffff0" stroke-opacity="0.501961" fill="none" d="M 33.264079 172.927381 Q 71.723466 214.816838, 101.185332 155.873319" stroke-width="0.500000" />
<path stroke="#d2b370" stroke-opacity="0.501961" fill="none" d="M 102.542161 366.695505 Q 252.674498 317.456025, 150.896937 208.635712" stroke-width="0.500000" />
<path stroke="#fffff6" stroke-opacity="0.501961" fill="none" d="M 33.977046 170.261329 Q 53.764623 219.496136, 95.093310 189.388838" stroke-width="0.500000" />
<path stroke="#edc26b" stroke-opacity="0.501961" fill="none" d="M 48.659630 32.012155 Q 133.010570 73.153896, 233.276943 20.047615" stroke-width="0.500000" />
<path stroke="#ecc26d" stroke-opacity="0.501961" fill="none" d="M 19.279593 15.107516 Q 125.629355 101.693655, 195.678421 42.723901" stroke-width="0.500000" />
<path stroke="#ffffee" stroke-opacity="0.501961" fill="none" d="M 256.251400 169.746121 Q 314.376794 237.534600, 308.797502 252.833638" stroke-width="0.500000" />
<path stroke="#ffffde" stroke-opacity="0.501961" fill="none" d="M 250.357343 164.466931 Q 310.506582 238.590074, 312.069770 285.844305" stroke-width="0.500000" />
<path stroke="#fcdb9b" stroke-opacity="0.501961" fill="none" d="M 260.990933 133.113461 Q 249.158052 -16.000000, 55.039388 50.417106" stroke-width="0.500000" />
<path stroke="#d4b16d" stroke-opacity="0.501961" fill="none" d="M 240.808675 20.801548 Q 54.795665 83.701146, 188.159777 338.912361" stroke-width="0.500000" />
<path stroke="#e9c374" stroke-opacity="0.501961" fill="none" d="M 173.003927 322.137838 Q 103.486669 240.200989, 199.667190 218.019215" stroke-width="0.500000" />
<path stroke="#ffffeb" stroke-opacity="0.501961" fill="none" d="M 40.569007 192.824699 Q 109.637316 205.099682, 89.317825 138.911156" stroke-width="0.500000" />
<path stroke="#ffffef" stroke-opacity="0.501961" fill="none" d="M 35.102359 151.214419 Q 97.864998 130.996890, 91.403024 190.483101" stroke-width="0.500000" />
<path stroke="#fbce73" stroke-opacity="0.501961" fill="none" d="M 119.776624 267.692610 Q 74.825993 314.130712, 171.200490 364.970985" stroke-width="0.500000" />
<path stroke="#ffffe4" stroke-opacity="0.501961" fill="none" d="M 316.999945 339.345241 Q 316.539583 446.627054, 334.022338 450.938186" stroke-width="0.500000" />
<path stroke="#ddb96f" stroke-opacity="0.501961" fill="none" d="M 66.587116 299.300238 Q 69.756898 192.975168, 201.664092 245.176275" stroke-width="0.500000" />
<path stroke="#f5c76d" stroke-opacity="0.501961" fill="none" d="M 235.767838 20.106884 Q 108.758136 -16.000000, 137.449634 122.847519" stroke-width="0.500000" />
<path stroke="#ffffe4" stroke-opacity="0.501961" fill="none" d="M 334.677217 447.356260 Q 318.509078 408.454696, 316.508286 298.209927" stroke-width="0.500000" />
<path stroke="#ffffe6" stroke-opacity="0.501961" fill="none" d="M 321.578055 433.458258 Q 324.711448 371.965376, 322.755758 323.396326" stroke-width="0.500000" />
<path stroke="#edc26d" stroke-opacity="0.501961" fill="none" d="M 39.617039 35.175184 Q 132.667585 152.767341, 189.996061 16.638458" stroke-width="0.500000" />
<path stroke="#ffd479" stroke-opacity="0.501961" fill="none" d="M 212.361692 107.127137 Q 155.000346 90.760872, 166.775075 154.057048" stroke-width="0.500000" />
<path stroke="#fffff0" stroke-opacity="0.501961" fill="none" d="M 62.877141 129.576487 Q 118.567258 169.395571, 56.675433 198.094491" stroke-width="0.500000" />
<path stroke="#f2c66d" stroke-opacity="0.501961" fill="none" d="M 194.285457 17.541847 Q 58.279984 24.956885, 90.695958 108.016014" stroke-width="0.500000" />
<path stroke="#e9c06d" stroke-opacity="0.501961" fill="none" d="M 46.790250 45.662206 Q 140.947953 153.165863, 191.185196 14.270256" stroke-width="0.500000" />
<path stroke="#ffffdb" stroke-opacity="0.501961" fill="none" d="M 314.256971 266.707514 Q 319.829199 318.625858, 323.590859 446.817032" stroke-width="0.500000" />
<path stroke="#e7c06d" stroke-opacity="0.501961" fill="none" d="M 95.732081 261.776274 Q 50.630623 319.740220, 159.195535 423.346639" stroke-width="0.500000" />
<path stroke="#d7b36b" stroke-opacity="0.501961" fill="none" d="M 141.294580 402.657396 Q 91.413783 264.595440, 189.802200 215.897175" stroke-width="0.500000" />
<path stroke="#ffffee" stroke-opacity="0.501961" fill="none" d="M 64.033421 201.697102 Q 15.479337 171.775482, 69.265935 133.494035" stroke-width="0.500000" />
<path stroke="#fffff1" stroke-opacity="0.501961" fill="none" d="M 93.724514 188.615441 Q 39.504595 205.695936, 48.521910 141.260450" stroke-width="0.500000" />
<path stroke="#ffffe4" stroke-opacity="0.501961" fill="none" d="M 232.236102 56.702728 Q 270.419417 127.575237, 258.182850 181.063451" stroke-width="0.500000" />
<path stroke="#ffd777" stroke-opacity="0.501961" fill="none" d="M 168.919331 154.257348 Q 160.992303 86.276167, 213.487981 102.064213" stroke-width="0.500000" />
<path stroke="#f3c973" stroke-opacity="0.501961" fill="none" d="M 76.503971 309.349210 Q 40.796015 243.384907, 153.113718 216.815608" stroke-width="0.500000" />
<path stroke="#e0bc6e" stroke-opacity="0.501961" fill="none" d="M 157.216003 207.776055 Q 39.212978 257.052453, 92.469193 348.387111" stroke-width="0.500000" />
<path stroke="#ecc16b" stroke-opacity="0.501961" fill="none" d="M 201.096179 13.936827 Q 109.166474 112.311765, 10.738175 7.153805" stroke-width="0.500000" />
<path stroke="#eec673" stroke-opacity="0.501961" fill="none" d="M 157.367072 400.753628 Q 22.436765 306.611111, 86.084423 233.035713" stroke-width="0.500000" />
<path stroke="#eec471" stroke-opacity="0.501961" fill="none" d="M 209.651346 240.529842 Q 122.047896 272.061488, 74.978610 243.836085" stroke-width="0.500000" />
<path stroke="#ffffee" stroke-opacity="0.501961" fill="none" d="M 45.975412 192.612621 Q 113.137412 195.003843, 82.283660 135.009477" stroke-width="0.500000" />
<path stroke="#e3bf72" stroke-opacity="0.501961" fill="none" d="M 193.463757 218.203380 Q 113.369393 249.938106, 190.435453 332.445617" stroke-width="0.500000" />
<path stroke="#d0ae69" stroke-opacity="0.501961" fill="none" d="M 186.247891 264.924274 Q 52.029599 176.465813, 233.918298 -16.000000" stroke-width="0.500000" />
<path stroke="#ffe1a4" stroke-opacity="0.501961" fill="none" d="M 251.230672 91.755498 Q 225.248522 3.819776, 117.393582 45.130195" stroke-width="0.500000" />
<path stroke="#31353f" stroke-opacity="0.501961" fill="none" d="M 90.338161 142.266918 Q 211.553821 116.118428, 342.033220 499.000000" stroke-width="0.500000" />
<path stroke="#d3b572" stroke-opacity="0.501961" fill="none" d="M 148.456170 409.176829 Q 182.342631 390.788342, 147.702662 210.898772" stroke-width="0.500000" />
<path stroke="#f0c46d" stroke-opacity="0.501961" fill="none" d="M 161.654742 404.410940 Q 121.632762 407.877043, 63.850199 276.058360" stroke-width="0.500000" />
<path stroke="#ffffec" stroke-opacity="0.501961" fill="none" d="M 34.412000 161.753074 Q 46.610259 207.922353, 105.609004 172.407123" stroke-width="0.500000" />
<path stroke="#d3b572" stroke-opacity="0.501961" fill="none" d="M 114.978182 366.653453 Q 246.579232 268.927577, 154.529263 205.062828" stroke-width="0.500000" />
<path stroke="#f5ca73" stroke-opacity="0.501961" fill="none" d="M 163.809782 356.745893 Q 71.906085 305.948843, 76.637965 249.774900" stroke-width="0.500000" />
<path stroke="#ffd77f" stroke-opacity="0.501961" fill="none" d="M 214.469144 102.340234 Q 149.357709 92.307992, 165.135463 150.896427" stroke-width="0.500000" />
<path stroke="#cdb072" stroke-opacity="0.501961" fill="none" d="M 163.139765 436.105418 Q 139.167018 338.124799, 202.547540 245.431584" stroke-width="0.500000" />
<path stroke="#ceae6c" stroke-opacity="0.501961" fill="none" d="M 203.550614 39.335704 Q 65.143681 77.748591, 184.905686 331.384506" stroke-width="0.500000" />
<path stroke="#dcb96e" stroke-opacity="0.501961" fill="none" d="M 133.426174 219.758790 Q 66.458228 329.872614, 170.035406 363.841380" stroke-width="0.500000" />
<path stroke="#eec46f" stroke-opacity="0.501961" fill="none" d="M 110.501151 294.881764 Q 129.975948 244.839248, 202.638627 255.291129" stroke-width="0.500000" />
<path stroke="#ffffe5" stroke-opacity="0.501961" fill="none" d="M 83.369459 130.517710 Q 22.960191 163.686591, 74.557798 200.602993" stroke-width="0.500000" />
<path stroke="#cdb06f" stroke-opacity="0.501961" fill="none" d="M 140.276240 427.706778 Q 224.890176 283.425786, 81.685748 234.435912" stroke-width="0.500000" />
<path stroke="#eec26b" stroke-opacity="0.501961" fill="none" d="M 223.445168 15.039318 Q 117.118596 75.377070, 19.206286 19.599653" stroke-width="0.500000" />
<path stroke="#eac06e" stroke-opacity="0.501961" fill="none" d="M 37.828091 35.661590 Q 149.192218 117.464473, 205.706750 24.822779" stroke-width="0.500000" />
<path stroke="#2e333d" stroke-opacity="0.501961" fill="none" d="M 78.127899 111.259913 Q 353.458521 286.658840, 298.991514 481.830271" stroke-width="0.500000" />
<path stroke="#313541" stroke-opacity="0.501961" fill="none" d="M 15.803938 498.775610 Q 17.706500 325.920826, 8.317082 -7.991448" stroke-width="0.500000" />
<path stroke="#ffffe1" stroke-opacity="0.501961" fill="none" d="M 312.900354 277.336046 Q 311.075893 235.303647, 257.452049 172.430700" stroke-width="0.500000" />
<path stroke="#e3bd71" stroke-opacity="0.501961" fill="none" d="M 203.900801 14.616163 Q 152.552808 136.449640, 65.699775 71.154979" stroke-width="0.500000" />
<path stroke="#ffffe5" stroke-opacity="0.501961" fill="none" d="M 92.018407 144.215282 Q 49.275174 115.196824, 35.114965 172.764624" stroke-width="0.500000" />
<path stroke="#e6bd6c" stroke-opacity="0.501961" fill="none" d="M 148.783510 397.541190 Q 23.216011 282.746127, 98.719732 228.670673" stroke-width="0.500000" />
<path stroke="#31353f" stroke-opacity="0.501961" fill="none" d="M 209.721173 32.384371 Q 300.707516 387.340221, 337.274000 496.138386" stroke-width="0.500000" />
<path stroke="#f2c66e" stroke-opacity="0.501961" fill="none" d="M 88.327142 104.790983 Q 57.200588 39.911589, 166.148215 12.859649" stroke-width="0.500000" />
<path stroke="#ffffe3" stroke-opacity="0.501961" fill="none" d="M 93.069761 145.654978 Q 38.735348 119.128089, 34.941198 178.335526" stroke-width="0.500000" />
<path stroke="#fffff2" stroke-opacity="0.501961" fill="none" d="M 81.424637 196.322839 Q 121.234644 149.222782, 58.504870 136.250095" stroke-width="0.500000" />
<path stroke="#cead69" stroke-opacity="0.501961" fill="none" d="M 203.432338 17.604147 Q 75.511070 56.562682, 178.328250 325.788322" stroke-width="0.500000" />
<path stroke="#ffd477" stroke-opacity="0.501961" fill="none" d="M 169.611761 154.027573 Q 165.349916 95.699251, 210.532170 108.927615" stroke-width="0.500000" />
<path stroke="#2f343f" stroke-opacity="0.501961" fill="none" d="M 0.338567 -11.997067 Q 1.726268 64.211348, 303.981488 285.889129" stroke-width="0.500000" />
<path stroke="#dbb770" stroke-opacity="0.501961" fill="none" d="M 207.499572 220.313638 Q 157.527671 210.060398, 145.372558 355.849120" stroke-width="0.500000" />
<path stroke="#353a44" stroke-opacity="0.501961" fill="none" d="M 309.174091 499.000000 Q 329.212445 229.823494, 0.109397 71.405025" stroke-width="0.500000" />
<path stroke="#30353e" stroke-opacity="0.501961" fill="none" d="M 220.600373 51.739385 Q 331.125961 429.252777, 204.872685 457.997830" stroke-width="0.500000" />
<path stroke="#fffff0" stroke-opacity="0.501961" fill="none" d="M 34.925294 171.492282 Q 73.573270 204.794068, 92.941557 165.303847" stroke-width="0.500000" />
<path stroke="#313641" stroke-opacity="0.501961" fill="none" d="M 2.655706 6.888940 Q 5.865382 399.454607, 204.468048 482.840340" stroke-width="0.500000" />
<path stroke="#333840" stroke-opacity="0.501961" fill="none" d="M 335.699381 484.845204 Q 356.757758 -16.000000, 196.953527 2.424012" stroke-width="0.500000" />
<path stroke="#ffffd9" stroke-opacity="0.501961" fill="none" d="M 331.030760 450.002630 Q 318.428975 349.764086, 298.896144 220.961287" stroke-width="0.500000" />
<path stroke="#fffff0" stroke-opacity="0.501961" fill="none" d="M 212.524808 36.395539 Q 273.112257 124.057792, 261.194283 140.271666" stroke-width="0.500000" />
<path stroke="#ffffed" stroke-opacity="0.501961" fill="none" d="M 256.857832 164.177879 Q 297.438597 215.323352, 306.062483 237.529038" stroke-width="0.500000" />
<path stroke="#ffffe6" stroke-opacity="0.501961" fill="none" d="M 265.795417 146.582588 Q 255.164624 103.104897, 217.153088 35.961827" stroke-width="0.500000" />
<path stroke="#dbb76f" stroke-opacity="0.501961" fill="none" d="M 161.672929 210.875854 Q 19.476856 260.974785, 143.816765 407.696605" stroke-width="0.500000" />
<path stroke="#fedb9d" stroke-opacity="0.501961" fill="none" d="M 85.315629 41.936962 Q 241.846747 -16.000000, 254.857184 121.491461" stroke-width="0.500000" />
<path stroke="#ffcf74" stroke-opacity="0.501961" fill="none" d="M 170.469008 152.604531 Q 152.354014 99.787145, 210.845519 103.962256" stroke-width="0.500000" />
<path stroke="#ffd176" stroke-opacity="0.501961" fill="none" d="M 168.801416 359.872560 Q 150.692408 356.797885, 96.010078 302.185414" stroke-width="0.500000" />
<path stroke="#dcb86d" stroke-opacity="0.501961" fill="none" d="M 136.814703 377.840331 Q 2.603070 289.893974, 140.604805 216.247962" stroke-width="0.500000" />
<path stroke="#313640" stroke-opacity="0.501961" fill="none" d="M 80.110433 117.124794 Q 359.000000 258.993410, 309.883233 499.000000" stroke-width="0.500000" />
<path stroke="#2f343e" stroke-opacity="0.501961" fill="none" d="M 91.550074 124.916949 Q 359.000000 266.808875, 253.050066 485.880540" stroke-width="0.500000" />
<path stroke="#e8be6d" stroke-opacity="0.501961" fill="none" d="M 26.308256 31.483726 Q 157.712817 126.218543, 194.710261 30.302223" stroke-width="0.500000" />
<path stroke="#caa967" stroke-opacity="0.501961" fill="none" d="M 130.121613 396.825965 Q 118.191301 95.574145, 145.292757 23.166669" stroke-width="0.500000" />
<path stroke="#fffcd4" stroke-opacity="0.501961" fill="none" d="M 337.699420 451.472659 Q 304.351660 433.283977, 325.746988 318.724314" stroke-width="0.500000" />
<path stroke="#fffff1" stroke-opacity="0.501961" fill="none" d="M 90.316277 193.065969 Q 110.442449 138.259593, 50.756556 141.952873" stroke-width="0.500000" />
<path stroke="#edc36b" stroke-opacity="0.501961" fill="none" d="M 199.050227 21.526667 Q 136.714575 69.582070, 49.225126 46.981183" stroke-width="0.500000" />
<path stroke="#ffffe5" stroke-opacity="0.501961" fill="none" d="M 48.034063 200.610716 Q 29.163973 140.396905, 91.318882 147.409812" stroke-width="0.500000" />
<path stroke="#ebc16e" stroke-opacity="0.501961" fill="none" d="M 118.013972 124.261800 Q 103.436545 2.239607, 183.011239 13.856775" stroke-width="0.500000" />
<path stroke="#313641" stroke-opacity="0.501961" fill="none" d="M 18.617322 475.747384 Q -2.396815 122.264943, 285.518583 217.465194" stroke-width="0.500000" />
<path stroke="#ffffdc" stroke-opacity="0.501961" fill="none" d="M 326.295312 448.943353 Q 314.532075 418.410688, 315.983906 329.101110" stroke-width="0.500000" />
<path stroke="#36393f" stroke-opacity="0.501961" fill="none" d="M 305.287760 326.737454 Q 25.557399 50.693141, -16.000000 -7.052812" stroke-width="0.500000" />
<path stroke="#333742" stroke-opacity="0.501961" fill="none" d="M 9.045767 499.000000 Q 9.610773 85.742281, 6.832288 -8.455463" stroke-width="0.500000" />
<path stroke="#d4b06b" stroke-opacity="0.501961" fill="none" d="M 218.179962 11.288057 Q 49.173848 171.671277, 206.234141 254.048999" stroke-width="0.500000" />
<path stroke="#dab872" stroke-opacity="0.501961" fill="none" d="M 184.182051 330.952287 Q 216.761488 221.565776, 149.762037 209.136255" stroke-width="0.500000" />
<path stroke="#dfbb6c" stroke-opacity="0.501961" fill="none" d="M 99.010825 231.594982 Q 37.841946 306.889293, 158.411187 425.279839" stroke-width="0.500000" />
<path stroke="#e8be6a" stroke-opacity="0.501961" fill="none" d="M 191.584566 21.511322 Q 166.006887 95.365814, 24.548980 25.868629" stroke-width="0.500000" />
<path stroke="#ffffeb" stroke-opacity="0.501961" fill="none" d="M 36.043399 156.516511 Q 56.135720 201.768371, 98.033576 180.292850" stroke-width="0.500000" />
</g>
</svg>